<svg width="430" height="445" viewBox="0 0 430 445" fill="none" xmlns="http://www.w3.org/2000/svg">
<path d="M160.29 16.3801C160.81 12.6501 155.53 9.58009 151.57 9.26009C149.68 9.10009 147.72 9.39009 145.93 8.77009C142.06 7.42009 140.51 2.41009 136.72 0.770089C133.89 -0.419911 130.64 0.640089 127.9 2.02009C125.16 3.40009 122.44 5.14009 119.38 5.34009C116.72 5.51009 113.82 4.52009 111.49 5.82009C109.75 6.82009 108.84 8.82009 107.24 9.97009C105.575 10.9996 103.647 11.5241 101.69 11.4801C99.7385 11.4272 97.7946 11.7427 95.96 12.4101C94.19 13.2201 92.73 15.1001 93.1 17.0101L160.29 16.3801Z" fill="#F5F5F5"/>
<path d="M425.8 237.09C426.66 230.88 417.89 225.77 411.3 225.24C408.16 224.98 404.9 225.46 401.92 224.42C395.48 222.18 392.92 213.85 386.61 211.19C381.91 209.19 376.49 210.98 371.93 213.27C367.37 215.56 362.87 218.45 357.77 218.78C353.34 219.06 348.53 217.42 344.65 219.59C341.76 221.2 340.25 224.53 337.59 226.49C334.93 228.45 331.59 228.82 328.35 229C325.11 229.18 321.77 229.2 318.83 230.55C315.89 231.9 313.45 235.01 314.06 238.19L425.8 237.09Z" fill="#EBEBEB"/>
<path d="M92.3999 85.53C93.0499 80.78 86.3399 76.87 81.2999 76.46C78.8999 76.27 76.4099 76.64 74.1299 75.84C69.1999 74.12 67.23 67.75 62.41 65.72C58.82 64.2 54.67 65.56 51.18 67.31C47.69 69.06 44.2499 71.31 40.3499 71.53C36.9599 71.74 33.2799 70.53 30.3499 72.14C28.1399 73.38 26.99 75.92 24.95 77.42C22.91 78.92 20.36 79.21 17.88 79.34C15.4 79.47 12.8799 79.5 10.5999 80.53C8.31995 81.56 6.48995 83.94 6.94995 86.37L92.3999 85.53Z" fill="#F5F5F5"/>
<path d="M357.87 344.38L335.62 440.98L345.03 440.95L367.32 345.29L357.87 344.38Z" fill="#E0E0E0"/>
<path d="M398.45 344.38L420.78 440.98H429.72L408.12 344.38H398.45Z" fill="#E0E0E0"/>
<path d="M342.85 271.83L355.52 338.34H369.91L356.38 271.83H342.85Z" fill="#E0E0E0"/>
<path d="M122.22 344.38L104.07 440.98H113.31L132.27 344.38H122.22Z" fill="#E0E0E0"/>
<path d="M160.38 344.38L181.12 440.45H190.25L170.22 344.38H160.38Z" fill="#E0E0E0"/>
<path d="M107.2 271.83L119.87 338.34H134.26L120.73 271.83H107.2Z" fill="#E0E0E0"/>
<path d="M78.7 265.79L81.29 277.88H370.34L366.97 265.79H78.7Z" fill="#EBEBEB"/>
<path d="M84.22 289.27L87.28 301.36H374.37L371.76 289.27H84.22Z" fill="#EBEBEB"/>
<path d="M89.9299 313.58L92.7699 325.67H378.98L376.27 313.58H89.9299Z" fill="#EBEBEB"/>
<path d="M420.44 338.34H111.81V350.43H420.44V338.34Z" fill="#EBEBEB"/>
<path d="M295.38 188.6C292.995 188.601 290.652 187.975 288.586 186.784C286.519 185.594 284.802 183.881 283.607 181.817C282.412 179.754 281.78 177.412 281.775 175.027C281.77 172.643 282.393 170.298 283.58 168.23L322.58 100.23C323.756 98.1494 325.466 96.4198 327.533 95.2193C329.6 94.0189 331.95 93.3909 334.34 93.4001C336.723 93.386 339.067 94.0042 341.133 95.1918C343.199 96.3794 344.913 98.0938 346.1 100.16L385.5 167.93C386.698 169.995 387.332 172.338 387.338 174.725C387.344 177.113 386.722 179.459 385.535 181.53C384.347 183.601 382.636 185.323 380.573 186.524C378.51 187.724 376.167 188.361 373.78 188.37L295.39 188.61L295.38 188.6ZM334.38 97.4501C332.702 97.445 331.054 97.887 329.604 98.7307C328.154 99.5743 326.955 100.789 326.13 102.25L287.13 170.25C286.297 171.7 285.86 173.344 285.863 175.017C285.866 176.689 286.309 178.331 287.146 179.779C287.984 181.226 289.188 182.428 290.636 183.264C292.085 184.099 293.728 184.54 295.4 184.54L373.79 184.3C375.459 184.29 377.096 183.842 378.537 183.002C379.979 182.161 381.175 180.958 382.006 179.51C382.837 178.063 383.273 176.423 383.272 174.754C383.271 173.086 382.833 171.446 382 170L342.6 102.24C341.776 100.784 340.579 99.5731 339.133 98.7314C337.687 97.8897 336.043 97.4475 334.37 97.4501H334.38Z" fill="#EBEBEB"/>
<path d="M326.72 126.87L328.55 152.24C328.62 153.241 329.054 154.182 329.771 154.884C330.488 155.586 331.438 156.001 332.44 156.05C333.494 156.105 334.529 155.752 335.331 155.065C336.133 154.379 336.641 153.41 336.75 152.36L339.35 126.83C339.395 126.374 339.343 125.914 339.198 125.48C339.052 125.045 338.816 124.647 338.505 124.311C338.194 123.974 337.816 123.707 337.394 123.528C336.973 123.349 336.518 123.261 336.06 123.27L329.87 123.41C329.432 123.42 329.002 123.518 328.603 123.7C328.205 123.881 327.848 124.141 327.553 124.465C327.259 124.789 327.033 125.169 326.89 125.582C326.746 125.995 326.689 126.434 326.72 126.87Z" fill="#EBEBEB"/>
<path d="M339.29 170.27C338.913 171.434 338.2 172.461 337.24 173.22C336.281 173.979 335.118 174.436 333.898 174.535C332.678 174.633 331.457 174.368 330.388 173.772C329.319 173.177 328.451 172.278 327.892 171.189C327.334 170.1 327.111 168.871 327.251 167.655C327.391 166.44 327.889 165.293 328.68 164.36C329.472 163.427 330.522 162.749 331.699 162.413C332.875 162.077 334.125 162.097 335.29 162.47C336.065 162.719 336.784 163.118 337.405 163.644C338.026 164.171 338.537 164.815 338.908 165.54C339.28 166.265 339.505 167.055 339.57 167.867C339.636 168.679 339.541 169.495 339.29 170.27Z" fill="#EBEBEB"/>
<path d="M282.52 333.58L181.52 333.51C169.38 333.51 159.52 323.16 159.52 310.4V44.4001C159.52 31.6401 169.38 21.2901 181.52 21.3001L282.47 21.3601C294.62 21.3601 304.47 31.7101 304.47 44.4701L304.42 310.47C304.52 323.24 294.67 333.58 282.52 333.58Z" fill="#263238"/>
<path d="M282.49 30.78H262.91C261.589 30.8448 260.347 31.4305 259.457 32.4089C258.567 33.3873 258.1 34.6786 258.16 36V39.73C258.22 41.0531 257.752 42.3459 256.86 43.3245C255.967 44.3032 254.723 44.8878 253.4 44.95H215.25C213.927 44.8853 212.684 44.2982 211.793 43.3176C210.903 42.3371 210.438 41.0432 210.5 39.72V36C210.56 34.6786 210.094 33.3873 209.203 32.4089C208.313 31.4305 207.071 30.8448 205.75 30.78H181.75C173.24 30.78 166.34 38.03 166.34 46.97V306.59C166.34 315.52 173.23 322.77 181.73 322.78L282.49 322.84C291 322.84 297.9 315.6 297.9 306.66L297.88 47C297.88 38 291 30.78 282.49 30.78Z" fill="white"/>
<path d="M193.8 298.27V304.62C193.799 304.744 193.765 304.867 193.702 304.974C193.638 305.081 193.547 305.169 193.438 305.229C193.329 305.289 193.206 305.319 193.081 305.316C192.957 305.312 192.836 305.276 192.73 305.21L187.73 302.03C187.631 301.967 187.549 301.88 187.493 301.776C187.436 301.673 187.407 301.558 187.407 301.44C187.407 301.322 187.436 301.207 187.493 301.104C187.549 301 187.631 300.913 187.73 300.85L192.73 297.67C192.836 297.604 192.959 297.567 193.084 297.564C193.209 297.562 193.333 297.592 193.442 297.654C193.552 297.715 193.643 297.804 193.706 297.913C193.768 298.021 193.801 298.145 193.8 298.27Z" fill="#E0E0E0"/>
<path d="M234.86 301.38C234.858 302.246 234.6 303.092 234.117 303.811C233.635 304.53 232.95 305.089 232.149 305.419C231.349 305.749 230.468 305.835 229.619 305.665C228.77 305.494 227.991 305.077 227.379 304.464C226.768 303.851 226.352 303.07 226.184 302.221C226.015 301.371 226.103 300.491 226.434 299.692C226.766 298.892 227.328 298.208 228.048 297.727C228.768 297.247 229.614 296.99 230.48 296.99C231.643 296.993 232.757 297.456 233.578 298.279C234.399 299.102 234.86 300.217 234.86 301.38Z" fill="#E0E0E0"/>
<path d="M272.53 297.56H268.19C267.157 297.56 266.32 298.397 266.32 299.43V303.79C266.32 304.823 267.157 305.66 268.19 305.66H272.53C273.563 305.66 274.4 304.823 274.4 303.79V299.43C274.4 298.397 273.563 297.56 272.53 297.56Z" fill="#E0E0E0"/>
<path d="M280.8 157.161C287.25 130.458 270.832 103.583 244.129 97.1324C217.427 90.6822 190.551 107.1 184.101 133.803C177.651 160.505 194.069 187.381 220.771 193.831C247.474 200.281 274.35 183.864 280.8 157.161Z" fill="#F5F5F5"/>
<path d="M234.67 167.38C234.668 168.193 234.425 168.988 233.971 169.663C233.517 170.338 232.874 170.863 232.121 171.172C231.369 171.481 230.542 171.56 229.745 171.398C228.947 171.237 228.216 170.843 227.643 170.266C227.07 169.688 226.681 168.954 226.526 168.156C226.37 167.358 226.455 166.531 226.77 165.781C227.084 165.031 227.614 164.391 228.292 163.942C228.97 163.494 229.767 163.256 230.58 163.26C231.667 163.268 232.708 163.706 233.474 164.477C234.24 165.249 234.67 166.293 234.67 167.38Z" fill="#455A64"/>
<path d="M222.35 162.1C223.399 160.971 224.665 160.067 226.074 159.442C227.482 158.816 229.002 158.484 230.543 158.463C232.084 158.442 233.612 158.735 235.037 159.322C236.461 159.909 237.752 160.78 238.83 161.88C240.93 164 244.21 160.75 242.11 158.63C240.6 157.109 238.802 155.905 236.82 155.089C234.838 154.273 232.713 153.862 230.57 153.879C228.427 153.897 226.309 154.343 224.341 155.192C222.373 156.04 220.594 157.274 219.11 158.82C217.06 160.97 220.31 164.26 222.37 162.1H222.35Z" fill="#455A64"/>
<path d="M208.39 143C214.64 137.6 222.1 134.2 230.45 134.18C238.786 134.061 246.852 137.13 253 142.76C255.16 144.76 258.45 141.55 256.28 139.51C249.272 133.019 240.052 129.443 230.5 129.51C220.89 129.51 212.35 133.51 205.16 139.68C202.91 141.63 206.16 144.9 208.42 142.96L208.39 143Z" fill="#455A64"/>
<path d="M213.9 153.57C215.984 151.245 218.527 149.376 221.369 148.083C224.211 146.789 227.29 146.098 230.412 146.054C233.534 146.01 236.632 146.613 239.509 147.826C242.387 149.039 244.981 150.835 247.13 153.1C249.21 155.23 252.49 151.98 250.41 149.84C247.832 147.146 244.728 145.01 241.291 143.564C237.854 142.119 234.156 141.395 230.427 141.437C226.699 141.479 223.019 142.287 219.615 143.81C216.211 145.333 213.156 147.538 210.64 150.29C208.64 152.47 211.87 155.76 213.9 153.57Z" fill="#455A64"/>
<path d="M269.393 134.288C270.606 127.43 266.029 120.887 259.172 119.674C252.314 118.461 245.771 123.037 244.558 129.895C243.345 136.753 247.921 143.296 254.779 144.509C261.637 145.722 268.18 141.146 269.393 134.288Z" fill="#FCE494"/>
<path d="M262.173 128.565L260.384 126.776L252.372 134.788L254.161 136.577L262.173 128.565Z" fill="white"/>
<path d="M254.165 126.767L252.376 128.556L260.388 136.568L262.177 134.779L254.165 126.767Z" fill="white"/>
<path d="M229.11 58.5501C229.736 58.174 230.408 57.8815 231.11 57.6801L231.52 55.6801L234.85 55.6201L235.33 57.6201C236.029 57.7973 236.702 58.0663 237.33 58.4201L239 57.3001L241.4 59.6201L240.35 61.3401C240.726 61.9659 241.019 62.6383 241.22 63.3401L243.22 63.7501L243.28 67.0901L241.28 67.5601C241.106 68.2588 240.841 68.9313 240.49 69.5601L241.59 71.2401L239.28 73.6401L237.56 72.6401C236.934 73.0124 236.261 73.3015 235.56 73.5001L235.15 75.5001L231.82 75.5601L231.34 73.5601C230.642 73.381 229.969 73.1121 229.34 72.7601L227.65 73.8601L225.25 71.5501L226.3 69.8301C225.923 69.2049 225.63 68.5323 225.43 67.8301L223.43 67.4201L223.37 64.0901L225.37 63.6101C225.546 62.912 225.811 62.2398 226.16 61.6101L225.06 59.9201L227.38 57.5301L229.1 58.5301L229.11 58.5501ZM230.88 63.0001C230.388 63.5095 230.058 64.1534 229.932 64.8502C229.806 65.5471 229.89 66.2657 230.172 66.9151C230.455 67.5645 230.923 68.1156 231.519 68.4986C232.115 68.8815 232.811 69.0792 233.519 69.0666C234.227 69.054 234.915 68.8317 235.497 68.4278C236.079 68.0239 236.528 67.4565 236.787 66.7975C237.046 66.1384 237.104 65.4173 236.953 64.7254C236.802 64.0334 236.45 63.4017 235.94 62.9101C235.257 62.2514 234.34 61.8909 233.391 61.9078C232.443 61.9246 231.539 62.3175 230.88 63.0001Z" fill="#E0E0E0"/>
<path d="M186.82 66.0001C185.82 66.0001 184.43 66.0001 183.1 66.0001C181.51 66.0001 179.92 66.0001 178.81 66.0001C178.677 66.0001 178.55 65.9474 178.456 65.8537C178.363 65.7599 178.31 65.6327 178.31 65.5001C178.309 65.4349 178.32 65.3701 178.344 65.3095C178.368 65.2489 178.404 65.1937 178.45 65.1471C178.495 65.1006 178.55 65.0636 178.61 65.0383C178.67 65.0131 178.735 65.0001 178.8 65.0001C179.91 65.0001 181.52 65.0001 183.12 65.0001C184.72 65.0001 186.3 65.0601 187.41 65.0001C187.475 64.9988 187.54 65.0105 187.601 65.0345C187.661 65.0585 187.716 65.0944 187.763 65.14C187.809 65.1857 187.846 65.2401 187.872 65.3003C187.897 65.3604 187.91 65.4249 187.91 65.4901C187.911 65.5558 187.9 65.6211 187.876 65.6822C187.852 65.7434 187.816 65.7993 187.771 65.8466C187.725 65.894 187.671 65.9319 187.611 65.9582C187.55 65.9846 187.486 65.9988 187.42 66.0001H186.82Z" fill="#263238"/>
<path d="M181.85 69.3601C181.78 69.3587 181.711 69.3429 181.647 69.3136C181.584 69.2844 181.527 69.2423 181.48 69.1901L178.48 65.7601C178.398 65.6656 178.354 65.5449 178.354 65.4201C178.354 65.2952 178.398 65.1746 178.48 65.0801L181.48 61.9601C181.524 61.907 181.578 61.8636 181.639 61.8325C181.701 61.8013 181.768 61.7832 181.837 61.7792C181.905 61.7752 181.974 61.7854 182.039 61.8091C182.103 61.8329 182.162 61.8697 182.212 61.9173C182.261 61.9649 182.301 62.0222 182.327 62.0857C182.354 62.1492 182.367 62.2175 182.366 62.2862C182.365 62.355 182.349 62.4228 182.321 62.4854C182.292 62.548 182.251 62.6041 182.2 62.6501L179.55 65.4401L182.29 68.5301C182.354 68.6026 182.395 68.692 182.409 68.7875C182.423 68.883 182.409 68.9805 182.369 69.0683C182.329 69.156 182.264 69.2303 182.183 69.282C182.101 69.3338 182.007 69.3609 181.91 69.3601H181.85Z" fill="#263238"/>
<path d="M284.93 63.09C285.786 63.09 286.48 62.396 286.48 61.54C286.48 60.684 285.786 59.99 284.93 59.99C284.074 59.99 283.38 60.684 283.38 61.54C283.38 62.396 284.074 63.09 284.93 63.09Z" fill="#263238"/>
<path d="M286.48 66.4402C286.482 66.7496 286.392 67.0525 286.221 67.3106C286.051 67.5687 285.807 67.7702 285.522 67.8895C285.236 68.0088 284.922 68.0405 284.618 67.9806C284.315 67.9208 284.036 67.772 283.817 67.5532C283.598 67.3345 283.449 67.0556 283.39 66.752C283.33 66.4485 283.361 66.134 283.481 65.8486C283.6 65.5631 283.802 65.3196 284.06 65.1489C284.318 64.9783 284.621 64.8882 284.93 64.8902C285.341 64.8902 285.735 65.0535 286.026 65.3442C286.317 65.6348 286.48 66.0291 286.48 66.4402Z" fill="#263238"/>
<path d="M284.93 72.89C285.786 72.89 286.48 72.1961 286.48 71.34C286.48 70.484 285.786 69.79 284.93 69.79C284.074 69.79 283.38 70.484 283.38 71.34C283.38 72.1961 284.074 72.89 284.93 72.89Z" fill="#263238"/>
<path d="M198.76 213.89C196.403 214.147 194.03 214.234 191.66 214.15C189.294 214.234 186.924 214.147 184.57 213.89C186.924 213.633 189.294 213.546 191.66 213.63C194.03 213.546 196.403 213.633 198.76 213.89Z" fill="#263238"/>
<path d="M224.23 230.49C224.23 230.63 215.51 230.75 204.76 230.75C194.01 230.75 185.29 230.63 185.29 230.49C185.29 230.35 194 230.23 204.76 230.23C215.52 230.23 224.23 230.35 224.23 230.49Z" fill="#263238"/>
<path d="M224.23 247C224.23 247.14 215.51 247.26 204.76 247.26C194.01 247.26 185.29 247.14 185.29 247C185.29 246.86 194 246.74 204.76 246.74C215.52 246.74 224.23 246.84 224.23 247Z" fill="#263238"/>
<path d="M275.7 224.26H261.46C258.019 224.26 255.23 227.047 255.23 230.485C255.23 233.923 258.019 236.71 261.46 236.71H275.7C279.141 236.71 281.93 233.923 281.93 230.485C281.93 227.047 279.141 224.26 275.7 224.26Z" fill="#EBEBEB"/>
<path d="M266.6 230.49C266.6 231.522 266.294 232.532 265.72 233.39C265.147 234.249 264.331 234.918 263.377 235.313C262.424 235.708 261.374 235.811 260.362 235.61C259.349 235.408 258.419 234.911 257.689 234.181C256.959 233.451 256.462 232.521 256.26 231.508C256.059 230.496 256.162 229.446 256.557 228.492C256.952 227.539 257.621 226.723 258.48 226.15C259.338 225.576 260.347 225.27 261.38 225.27C262.065 225.27 262.744 225.405 263.377 225.667C264.011 225.93 264.586 226.314 265.071 226.799C265.556 227.284 265.94 227.859 266.203 228.492C266.465 229.126 266.6 229.805 266.6 230.49Z" fill="#E0E0E0"/>
<path d="M275.71 253.21H261.46C259.808 253.21 258.223 252.554 257.055 251.385C255.886 250.217 255.23 248.632 255.23 246.98C255.23 245.328 255.886 243.743 257.055 242.575C258.223 241.406 259.808 240.75 261.46 240.75H275.71C277.362 240.75 278.947 241.406 280.115 242.575C281.284 243.743 281.94 245.328 281.94 246.98C281.94 248.632 281.284 250.217 280.115 251.385C278.947 252.554 277.362 253.21 275.71 253.21Z" fill="#EBEBEB"/>
<path d="M261.38 252.2C264.263 252.2 266.6 249.863 266.6 246.98C266.6 244.097 264.263 241.76 261.38 241.76C258.497 241.76 256.16 244.097 256.16 246.98C256.16 249.863 258.497 252.2 261.38 252.2Z" fill="#E0E0E0"/>
<path d="M224.23 263.58C224.23 263.73 215.51 263.84 204.76 263.84C194.01 263.84 185.29 263.73 185.29 263.58C185.29 263.43 194 263.32 204.76 263.32C215.52 263.32 224.23 263.44 224.23 263.58Z" fill="#263238"/>
<path d="M275.71 271.65H261.46C260.642 271.651 259.832 271.492 259.077 271.18C258.321 270.868 257.634 270.41 257.055 269.832C256.477 269.254 256.018 268.568 255.704 267.813C255.391 267.057 255.23 266.248 255.23 265.43C255.23 263.778 255.886 262.193 257.055 261.025C258.223 259.857 259.808 259.2 261.46 259.2H275.71C277.362 259.2 278.947 259.857 280.115 261.025C281.284 262.193 281.94 263.778 281.94 265.43C281.94 266.248 281.779 267.057 281.466 267.813C281.152 268.568 280.693 269.254 280.115 269.832C279.536 270.41 278.849 270.868 278.093 271.18C277.338 271.492 276.528 271.651 275.71 271.65Z" fill="#EBEBEB"/>
<path d="M261.38 270.65C264.263 270.65 266.6 268.313 266.6 265.43C266.6 262.547 264.263 260.21 261.38 260.21C258.497 260.21 256.16 262.547 256.16 265.43C256.16 268.313 258.497 270.65 261.38 270.65Z" fill="#E0E0E0"/>
<path d="M394.671 48.2577C396.105 39.3705 390.064 31.003 381.177 29.5683C372.289 28.1337 363.922 34.1752 362.487 43.0624C361.053 51.9496 367.094 60.3171 375.981 61.7517C384.869 63.1863 393.236 57.1448 394.671 48.2577Z" fill="#FCE494"/>
<path d="M376.26 82.1099C376.17 82.1099 376.09 79.1099 376.09 75.3799C376.09 71.6499 376.17 68.6599 376.26 68.6599C376.434 70.8954 376.49 73.1385 376.43 75.3799C376.49 77.6247 376.434 79.8711 376.26 82.1099Z" fill="#FCE494"/>
<path d="M366.87 64.8701C366.95 64.8701 365.42 67.7301 363.45 71.1401C361.48 74.5501 359.81 77.2901 359.73 77.2401C359.65 77.1901 361.18 74.3901 363.15 70.9701C365.12 67.5501 366.79 64.8201 366.87 64.8701Z" fill="#FCE494"/>
<path d="M357.23 58.8699C356.04 60.0368 354.771 61.1195 353.43 62.1099C352.162 63.1935 350.826 64.1955 349.43 65.1099C350.62 63.9429 351.89 62.8603 353.23 61.8699C354.494 60.7808 355.831 59.7785 357.23 58.8699Z" fill="#FCE494"/>
<path d="M392.52 75.48C392.325 74.9448 392.181 74.3924 392.09 73.83C391.86 72.83 391.52 71.39 391.09 69.83C390.66 68.27 390.25 66.89 389.94 65.89C389.732 65.3568 389.578 64.804 389.48 64.24C389.765 64.7375 389.996 65.2637 390.17 65.81C390.54 66.81 391 68.18 391.42 69.74C391.84 71.3 392.13 72.74 392.31 73.74C392.442 74.3109 392.512 74.8942 392.52 75.48Z" fill="#FCE494"/>
<path d="M409.05 63.75C407.372 62.5049 405.763 61.1696 404.23 59.75C402.624 58.4214 401.092 57.006 399.64 55.51C401.318 56.7552 402.927 58.0904 404.46 59.51C406.066 60.8386 407.599 62.254 409.05 63.75Z" fill="#FCE494"/>
<path d="M415.38 47.6301C414.707 47.5887 414.039 47.4951 413.38 47.3501C412.17 47.1501 410.5 46.8901 408.65 46.6801C406.8 46.4701 405.11 46.3401 403.89 46.2601C403.22 46.2587 402.551 46.2018 401.89 46.0901C402.553 45.9999 403.223 45.9765 403.89 46.0201C405.12 46.0201 406.82 46.1301 408.68 46.3401C410.54 46.5501 412.22 46.8501 413.42 47.1101C414.088 47.2227 414.744 47.3967 415.38 47.6301Z" fill="#FCE494"/>
<path d="M415.4 31.7798C415.4 31.8798 411.9 32.7798 407.52 33.8798C403.14 34.9798 399.58 35.7298 399.52 35.6398C399.46 35.5498 403.03 34.6399 407.4 33.5499C411.77 32.4599 415.38 31.6898 415.4 31.7798Z" fill="#FCE494"/>
<path d="M397 13.3201C397.07 13.3201 395.39 16.0601 393.23 19.3201C391.07 22.5801 389.23 25.2001 389.17 25.1401C389.11 25.0801 390.78 22.4001 392.94 19.1401C394.194 17.1325 395.549 15.19 397 13.3201Z" fill="#FCE494"/>
<path d="M378.71 9.45996C378.762 10.2057 378.762 10.9542 378.71 11.7C378.71 13.08 378.71 14.98 378.71 17.08C378.71 19.18 378.71 21.08 378.77 22.48C378.823 23.2224 378.823 23.9676 378.77 24.71C378.628 23.9782 378.551 23.2353 378.54 22.49C378.46 21.11 378.39 19.2 378.39 17.09C378.39 14.98 378.45 13.09 378.53 11.69C378.523 10.9427 378.583 10.1963 378.71 9.45996Z" fill="#FCE494"/>
<path d="M364.87 26.6901C364.79 26.7401 363.07 24.0801 361.04 20.7501C359.01 17.4201 357.41 14.6701 357.49 14.6201C357.57 14.5701 359.29 17.2401 361.33 20.6201C363.37 24.0001 365 26.6501 364.87 26.6901Z" fill="#FCE494"/>
<path d="M356.6 33.7199C356.015 33.6961 355.435 33.6055 354.87 33.4499C353.81 33.2199 352.36 32.8699 350.77 32.4499C349.18 32.0299 347.77 31.4499 346.77 31.0999C346.211 30.9222 345.672 30.6876 345.16 30.3999C345.738 30.505 346.304 30.6657 346.85 30.8799C347.85 31.1999 349.3 31.6599 350.85 32.1199C352.4 32.5799 353.85 32.9799 354.91 33.2599C355.487 33.3595 356.053 33.5135 356.6 33.7199Z" fill="#FCE494"/>
<path d="M353 46.24C351.284 46.5831 349.547 46.8069 347.8 46.91C346.066 47.1331 344.319 47.2466 342.57 47.25C344.286 46.9053 346.023 46.6781 347.77 46.57C349.505 46.3527 351.252 46.2425 353 46.24Z" fill="#FCE494"/>
<path d="M341.88 336.74L356.46 440.61L360.26 440.73C357.84 405.45 355.26 369.47 341.88 336.74Z" fill="#455A64"/>
<path d="M382.39 331.87C372.2 343 368.1 358.39 365.52 373.28C361.86 394.39 361.52 419.33 362.63 440.73L367.95 440.85C365.842 403.938 370.741 366.96 382.39 331.87Z" fill="#455A64"/>
<path d="M344.56 398.19C343.39 393.04 342.05 387.81 339.11 383.42C335.11 377.5 328.68 373.76 322.17 370.84C315.66 367.92 308.83 365.6 302.95 361.56C309.51 372.31 324.39 375.17 331.95 385.23C335.72 390.23 337.29 396.51 338.76 402.6C341.99 415.88 343.97 427.37 347.19 440.6H351.51C350.089 426.331 347.768 412.166 344.56 398.19Z" fill="#455A64"/>
<path d="M371.84 440.73C371.84 440.73 375.49 399.48 378.2 391.9C380.91 384.32 406.51 363.4 406.27 364.39C406.03 365.38 387.06 388.27 384.35 393C381.64 397.73 377 440.73 377 440.73H371.84Z" fill="#455A64"/>
<path d="M250.82 397.59C251.831 397.994 252.75 398.598 253.521 399.367C254.293 400.135 254.901 401.051 255.31 402.06C256.126 404.086 256.468 406.272 256.31 408.45C256.1 412.65 254.01 417.02 251.67 420.52C247.96 417.68 246.81 412.39 246.39 409.66C245.73 405.36 247.15 397.18 250.84 397.59" fill="#FCE494"/>
<path d="M256.18 427.13C255.864 425.953 255.865 424.713 256.183 423.536C256.501 422.36 257.124 421.288 257.99 420.43C258.867 419.588 259.904 418.929 261.039 418.493C262.174 418.057 263.385 417.852 264.6 417.89C265.152 417.854 265.705 417.936 266.222 418.131C266.739 418.326 267.209 418.629 267.6 419.02C267.906 419.452 268.091 419.959 268.133 420.487C268.175 421.015 268.074 421.545 267.84 422.02C267.369 422.964 266.654 423.765 265.77 424.34C262.85 426.45 259.64 427.95 256.13 427.14" fill="#FCE494"/>
<path d="M250.28 403.91C250.319 404.03 250.343 404.154 250.35 404.28L250.48 405.35C250.6 406.29 250.74 407.63 250.9 409.3C251.23 412.64 251.61 417.25 251.9 422.35C252.19 427.45 252.39 432.08 252.47 435.43C252.47 437.11 252.53 438.43 252.53 439.43V440.51C252.53 440.76 252.53 440.89 252.53 440.89C252.519 440.764 252.519 440.637 252.53 440.51L252.48 439.43C252.48 438.43 252.39 437.12 252.32 435.43C252.18 432.08 251.98 427.43 251.67 422.36C251.36 417.29 251.01 412.65 250.74 409.31C250.6 407.67 250.5 406.31 250.42 405.36C250.42 404.92 250.36 404.56 250.34 404.28C250.312 404.158 250.291 404.035 250.28 403.91Z" fill="#263238"/>
<path d="M250.27 430.07C249.684 427.57 248.51 425.247 246.845 423.292C245.181 421.337 243.074 419.807 240.7 418.83C239.49 418.34 237.93 418.07 237.02 419.01C236.11 419.95 236.43 421.5 237.02 422.68C238.215 425.132 240.109 427.175 242.464 428.552C244.818 429.93 247.527 430.58 250.25 430.42" fill="#FCE494"/>
<path d="M75.0699 385.8L46.9399 408.87L75.4699 444C78.6599 441.07 70.6399 417.42 70.6399 417.42L89.2699 403.42L75.0699 385.8Z" fill="#455A64"/>
<g opacity="0.6">
<path d="M63.34 405.33C62.9636 405.076 62.507 404.969 62.0571 405.03C61.6072 405.091 61.1953 405.315 60.9 405.66C60.6307 406.028 60.5128 406.485 60.5705 406.937C60.6281 407.389 60.857 407.802 61.21 408.09C61.6141 408.35 62.0983 408.455 62.5739 408.387C63.0494 408.319 63.4847 408.082 63.8 407.72C64.0396 407.307 64.1099 406.816 63.9962 406.352C63.8825 405.888 63.5936 405.486 63.19 405.23" fill="white"/>
</g>
<g opacity="0.6">
<path d="M47.0498 408.77L49.8798 406.43L75.9998 441.27C75.9998 441.27 76.5798 443.39 75.3298 444.1L47.0498 408.77Z" fill="white"/>
</g>
<path d="M71.2799 417.85C71.1099 417.99 70.2799 417.19 69.0899 416.8C67.8999 416.41 66.7699 416.54 66.7099 416.32C66.6499 416.1 67.8499 415.56 69.3399 416.07C70.8299 416.58 71.4699 417.76 71.2799 417.85Z" fill="#263238"/>
<path d="M75.1699 414.18C74.9599 414.24 74.5599 413.26 73.6999 412.34C72.8399 411.42 71.9299 410.92 71.9999 410.71C72.0699 410.5 73.2799 410.71 74.2699 411.82C75.2599 412.93 75.3799 414.16 75.1699 414.18Z" fill="#263238"/>
<path d="M78.6599 410C78.5899 410.06 77.9399 409.47 77.2399 408.23C76.8396 407.503 76.5274 406.731 76.3099 405.93C76.1821 405.458 76.0885 404.976 76.0299 404.49C75.9835 404.202 75.9835 403.908 76.0299 403.62C76.0661 403.411 76.1681 403.219 76.3209 403.071C76.4737 402.924 76.6695 402.829 76.8799 402.8C77.0687 402.787 77.258 402.819 77.4319 402.894C77.6058 402.969 77.7594 403.084 77.8799 403.23C78.0628 403.455 78.2142 403.704 78.3299 403.97C78.5421 404.42 78.7128 404.889 78.8399 405.37C79.0559 406.178 79.1404 407.015 79.0899 407.85C79.1294 408.627 78.923 409.397 78.4999 410.05C78.3899 410.05 78.5999 409.19 78.4999 407.85C78.4686 407.073 78.3375 406.304 78.1099 405.56C77.9728 405.128 77.8022 404.706 77.5999 404.3C77.3999 403.85 77.1399 403.53 76.8999 403.57C76.6599 403.61 76.7799 403.57 76.7299 403.77C76.701 403.979 76.701 404.191 76.7299 404.4C76.7797 404.857 76.8531 405.311 76.9499 405.76C77.1238 406.525 77.3681 407.271 77.6799 407.99C78.0575 408.634 78.3851 409.306 78.6599 410Z" fill="#263238"/>
<path d="M78.2399 409.94C78.1599 409.94 78.4999 409.06 79.5599 408.09C80.1876 407.534 80.9043 407.088 81.6799 406.77C82.1419 406.584 82.6208 406.444 83.1099 406.35C83.4192 406.258 83.7469 406.246 84.062 406.316C84.3771 406.386 84.669 406.535 84.9099 406.75C85.0344 406.91 85.1108 407.102 85.1303 407.304C85.1498 407.506 85.1115 407.709 85.0199 407.89C84.8853 408.145 84.7172 408.38 84.5199 408.59C84.1809 408.983 83.7828 409.32 83.3399 409.59C82.6025 410.03 81.7677 410.281 80.9099 410.32C79.4399 410.37 78.6499 409.82 78.6999 409.76C79.4194 409.798 80.1404 409.798 80.8599 409.76C81.6194 409.663 82.3492 409.404 82.9999 409C83.3763 408.768 83.7137 408.477 83.9999 408.14C84.3299 407.78 84.5199 407.4 84.3699 407.29C84.211 407.19 84.0324 407.124 83.8462 407.098C83.6599 407.073 83.4703 407.087 83.2899 407.14C82.8451 407.219 82.4071 407.333 81.9799 407.48C81.2659 407.749 80.5927 408.116 79.9799 408.57C78.8299 409.31 78.3399 410 78.2399 409.94Z" fill="#263238"/>
<path d="M62.3298 404.64L62.6698 441L107.93 440.81C107.65 436.49 84.1898 427.9 84.1898 427.9L84.9298 404.59L62.3298 404.64Z" fill="#455A64"/>
<path d="M83.4 417C82.6604 417.203 81.8796 417.203 81.14 417C79.8361 416.769 78.5876 416.294 77.46 415.6C77.2054 415.458 76.973 415.279 76.77 415.07C76.6298 414.91 76.5445 414.709 76.5265 414.496C76.5085 414.284 76.5588 414.072 76.67 413.89C76.7824 413.73 76.9324 413.6 77.1067 413.511C77.281 413.422 77.4743 413.377 77.67 413.38C77.9576 413.379 78.2439 413.419 78.52 413.5C79.8286 413.802 81.0374 414.435 82.03 415.34C83.08 416.34 83.45 417.13 83.37 417.17C83.29 417.21 82.76 416.56 81.68 415.76C81.0665 415.296 80.3939 414.916 79.68 414.63C79.255 414.461 78.8168 414.327 78.37 414.23C77.89 414.11 77.49 414.11 77.37 414.32C77.25 414.53 77.37 414.43 77.43 414.57C77.5748 414.726 77.7436 414.857 77.93 414.96C78.3181 415.207 78.7186 415.434 79.13 415.64C79.8356 415.985 80.5722 416.263 81.33 416.47C82.0308 416.601 82.7223 416.778 83.4 417Z" fill="#263238"/>
<path d="M83.1198 417.31C83.0398 417.31 82.5998 416.56 82.5098 415.12C82.4676 414.282 82.569 413.444 82.8098 412.64C82.9541 412.163 83.145 411.7 83.3798 411.26C83.5001 410.96 83.696 410.697 83.9483 410.495C84.2007 410.294 84.5009 410.161 84.8198 410.11C85.0302 410.104 85.2377 410.161 85.4158 410.273C85.5939 410.385 85.7345 410.548 85.8198 410.74C85.9345 411.006 86.0151 411.284 86.0598 411.57C86.1583 412.249 86.1206 412.941 85.9489 413.606C85.7773 414.27 85.475 414.894 85.0598 415.44C84.1798 416.62 83.2598 416.89 83.2398 416.81C83.2198 416.73 83.9298 416.27 84.5998 415.14C84.993 414.492 85.2356 413.764 85.3098 413.01C85.3744 412.576 85.3744 412.134 85.3098 411.7C85.2298 411.22 85.0498 410.83 84.8698 410.88C84.6898 410.93 84.2598 411.24 84.0798 411.63C83.8584 412.023 83.6711 412.435 83.5198 412.86C83.2707 413.589 83.126 414.35 83.0898 415.12C82.9998 416.45 83.2398 417.28 83.1198 417.31Z" fill="#263238"/>
<path d="M66.21 193.91C66.21 193.91 59.86 200.7 56.75 207.21C53.64 213.72 51.64 229.21 51.64 229.21C51.64 229.21 42.88 248.72 44.21 258.7C45.54 268.68 54.46 337 54.46 337C54.46 337 54.02 403.36 60.34 415.19L61.75 421.58L87.27 417L87.11 413.17L93.11 283.05L108.47 194.46L66.21 193.91Z" fill="#263238"/>
<path d="M122.52 213.26C122.52 213.26 137.77 297.26 139.12 311.83C140.47 326.4 88.5298 403.28 88.5298 403.28L64.7898 378.55L98.8698 315.2L87.7898 251.35L103.2 194.94L119.38 195.51L122.52 213.26Z" fill="#263238"/>
<path d="M56.3799 394.52C56.4057 395.143 56.4658 395.764 56.5599 396.38C56.7199 397.6 57.0199 399.38 57.4399 401.7C58.2899 406.32 59.6699 413.02 61.5199 421.39V421.57H61.6999L87.2299 417.09H87.4199V416.89C88.1299 399.38 88.9799 378.45 89.8899 356C90.8299 331.85 91.6999 309.45 92.4199 291.08C94.3299 276.32 95.9099 264.08 97.0199 255.57C97.5499 251.33 97.9699 248 98.2599 245.7C98.3899 244.58 98.4999 243.7 98.5699 243.11C98.6399 242.52 98.6499 242.22 98.6499 242.22C98.6499 242.22 98.5899 242.51 98.4999 243.1C98.4099 243.69 98.2799 244.57 98.1199 245.68C97.7999 247.97 97.3399 251.3 96.7499 255.53C95.6299 264 93.9999 276.23 91.9999 291C91.2599 309.37 90.3499 331.77 89.3699 355.92C88.4899 378.37 87.6699 399.3 86.9899 416.81L87.1899 416.58L61.6899 421.17L61.8999 421.31C59.9999 412.95 58.5699 406.26 57.6599 401.66C57.2099 399.35 56.8799 397.57 56.6599 396.36C56.5499 395.76 56.4899 395.3 56.4499 394.99C56.4347 394.832 56.4114 394.676 56.3799 394.52Z" fill="#455A64"/>
<path d="M26.75 159.15C26.75 159.15 42.55 125.09 46.28 123.28C50.01 121.47 60.73 120.86 62.18 122.9L33.86 163.68L26.75 159.15Z" fill="#455A64"/>
<path d="M27.5699 154.55C26.8721 154.164 26.0537 154.057 25.2799 154.25C20.3699 155.47 2.42989 160.25 0.429891 165.38C-1.89011 171.29 12.2999 248.09 14.1299 250.17C15.9599 252.25 44.1799 248.76 45.0499 245.48C45.9199 242.2 35.8699 159.42 35.8699 159.42L27.5699 154.55Z" fill="#455A64"/>
<path d="M5.29999 206.86C5.29999 206.86 3.69999 206.96 2.10999 210.49C0.519994 214.02 3.31999 242.68 5.42999 245.61C7.53999 248.54 13.7 249.16 13.7 249.16L5.29999 206.86Z" fill="#455A64"/>
<path d="M36.7498 247.05C36.6929 246.995 36.6455 246.931 36.6098 246.86L36.2298 246.27C35.8998 245.75 35.4598 244.96 34.9398 243.91C33.5091 240.934 32.4253 237.804 31.7098 234.58C30.6711 229.807 29.9231 224.974 29.4698 220.11C28.8898 214.63 28.2498 208.61 27.5698 202.29C26.2098 189.65 25.0798 178.19 24.8898 169.84C24.7898 165.67 24.8898 162.3 24.9998 159.97C25.0598 158.81 25.1298 157.9 25.1898 157.29C25.1898 157.01 25.2398 156.79 25.2598 156.6C25.2493 156.52 25.2493 156.44 25.2598 156.36C25.2709 156.44 25.2709 156.52 25.2598 156.6C25.2598 156.79 25.2598 157.02 25.2598 157.3C25.2598 157.95 25.2598 158.85 25.1698 159.98C25.1098 162.3 25.0798 165.67 25.2298 169.83C25.5098 178.15 26.6998 189.6 28.0598 202.24C28.7198 208.55 29.3498 214.57 29.9198 220.05C30.3464 224.904 31.0542 229.729 32.0398 234.5C32.7184 237.711 33.741 240.839 35.0898 243.83C35.5798 244.88 35.9898 245.68 36.2898 246.22L36.6198 246.83C36.7198 247 36.7598 247 36.7498 247.05Z" fill="#263238"/>
<path d="M27.7498 201.5C26.6454 201.771 25.5271 201.981 24.3998 202.13C22.3398 202.48 19.4898 203.03 16.3998 203.8C13.3098 204.57 10.5198 205.41 8.52979 206.06C7.46725 206.458 6.382 206.791 5.27979 207.06C5.52679 206.88 5.79995 206.738 6.08979 206.64C6.62979 206.4 7.41979 206.08 8.40979 205.71C13.5766 203.782 18.9435 202.44 24.4098 201.71C25.4098 201.58 26.2998 201.49 26.8898 201.46C27.1769 201.432 27.4665 201.445 27.7498 201.5Z" fill="#263238"/>
<path d="M4.92998 203.69C4.99363 203.84 5.0341 203.998 5.04998 204.16C5.11998 204.53 5.19998 204.98 5.29998 205.52L6.12998 210.52C6.83998 214.75 7.86998 220.59 9.12998 227.01C10.39 233.43 11.73 239.22 12.71 243.4C13.19 245.4 13.58 247.1 13.88 248.35L14.18 249.7C14.2256 249.856 14.2492 250.018 14.25 250.18C14.1692 250.04 14.1117 249.888 14.08 249.73L13.68 248.4C13.35 247.25 12.89 245.57 12.35 243.49C11.28 239.33 9.90998 233.55 8.61998 227.12C7.32998 220.69 6.35998 214.83 5.73998 210.57C5.42998 208.45 5.19998 206.72 5.06998 205.57C5.00998 205.02 4.95998 204.57 4.91998 204.19C4.90412 204.024 4.90748 203.856 4.92998 203.69Z" fill="#263238"/>
<path d="M25 169.11C24.9569 168.396 25.0107 167.68 25.16 166.98C25.6666 163.583 26.5487 160.253 27.79 157.05C28.0069 156.369 28.3129 155.721 28.7 155.12C28.84 155.18 27.7 158.22 26.7 162.12C25.7 166.02 25.18 169.13 25 169.11Z" fill="#263238"/>
<path d="M124.14 96.19C123.98 93.3 123.62 79.19 123.45 77.09C123.27 74.1632 122.008 71.4079 119.91 69.36C118.875 68.3459 117.565 67.6583 116.143 67.3827C114.72 67.1071 113.248 67.2557 111.91 67.81C111.064 68.0237 110.291 68.4573 109.667 69.0667C109.044 69.6762 108.593 70.4398 108.36 71.28C102.44 92.28 103.36 114.75 100.76 136.51C108.49 137.77 118.89 137.26 126.7 136.85C126.68 119.47 125.21 115 124.14 96.19Z" fill="#263238"/>
<path d="M120.89 125.86C120.844 125.677 120.824 125.489 120.83 125.3C120.83 124.88 120.78 124.3 120.75 123.69C120.75 122.22 120.64 120.2 120.57 117.75C120.46 112.67 120.32 105.75 120.16 98.1601C120.1 94.3301 120.04 90.6901 119.99 87.3701C119.99 85.7101 119.99 84.1401 119.94 82.6601C119.958 81.3213 119.864 79.9833 119.66 78.6601C119.542 77.6946 119.211 76.7673 118.693 75.9444C118.174 75.1215 117.48 74.4234 116.66 73.9001C116.042 73.5607 115.362 73.3498 114.66 73.2801C114.66 73.2801 114.66 73.2801 114.8 73.2801C114.939 73.2647 115.08 73.2647 115.22 73.2801C115.769 73.3308 116.303 73.4906 116.79 73.7501C117.559 74.159 118.224 74.7409 118.73 75.4501C119.402 76.3916 119.857 77.471 120.06 78.6101C120.295 79.9674 120.412 81.3425 120.41 82.7201C120.41 84.2001 120.47 85.7801 120.51 87.4301C120.57 90.7501 120.64 94.4301 120.72 98.2201C120.82 105.84 120.91 112.74 120.98 117.81C120.98 120.27 120.98 122.28 120.98 123.75C120.98 124.41 120.98 124.94 120.98 125.37C120.964 125.536 120.933 125.7 120.89 125.86Z" fill="#455A64"/>
<path d="M113.86 117.88C113.793 117.464 113.763 117.042 113.77 116.62C113.77 115.8 113.72 114.62 113.72 113.16C113.72 110.24 113.78 106.16 113.89 101.75C114 97.3401 114.12 93.3701 114.21 90.3501C114.21 88.9701 114.29 87.8101 114.32 86.9001C114.311 86.4741 114.348 86.0483 114.43 85.6301C114.498 86.05 114.528 86.475 114.52 86.9001C114.52 87.7101 114.52 88.9001 114.52 90.3601C114.52 93.2801 114.46 97.3601 114.35 101.76C114.24 106.16 114.11 110.14 114.03 113.16C113.98 114.54 113.95 115.7 113.92 116.62C113.945 117.041 113.925 117.464 113.86 117.88Z" fill="#455A64"/>
<path d="M62.9398 123.28C61.9398 123.28 43.0798 124.62 38.6998 144.82C34.3198 165.02 33.0598 193.32 33.0598 193.32L53.5098 191.32L62.9398 123.28Z" fill="#FCE494"/>
<path d="M72.1998 118.81L75.5198 112.68L104.52 111.89L106.52 117.11L123.61 123.28L122.18 199L134.84 268.91C134.84 268.91 134.71 279 101 282.2L98.3298 245.66L81.4798 245.26L81.9398 280.95C81.9398 280.95 52.1998 280.47 42.7698 273.74C42.7698 273.74 39.9098 239.74 48.0298 215.25C55.1398 193.81 57.9098 188.25 57.9098 188.25L58.4898 124L72.1998 118.81Z" fill="#FCE494"/>
<g opacity="0.3">
<path d="M63.24 124.15C57.4133 149.09 51.58 174.04 45.74 199L51.67 205.29C54.7084 203.873 57.2826 201.623 59.0934 198.802C60.9042 195.98 61.8774 192.703 61.9 189.35C61.9 185.89 60.8 182.52 60.66 179.06C60.34 171.26 64.66 164.11 66.66 156.56C69.41 145.87 67.4 134.39 63.24 124.15Z" fill="black"/>
</g>
<path d="M119.91 122.31C126.91 123.6 132.3 131 133.91 138.94C134.84 143.59 137.55 166.01 137.55 166.01L139.04 174.23C139.04 174.23 140.29 202.48 134.3 205.64C127.3 209.32 123.3 205.28 120.98 202.32C118.66 199.36 116.19 180.1 116.19 180.1L118.8 134L119.91 122.31Z" fill="#FCE494"/>
<path d="M123.22 133.65C123.218 133.922 123.191 134.193 123.14 134.46C123.06 135.027 122.95 135.797 122.81 136.77C122.49 138.77 122.05 141.7 121.5 145.24C120.95 148.78 120.24 153.09 119.5 157.81C119.11 160.17 118.71 162.65 118.29 165.22C117.87 167.79 117.35 170.44 117.13 173.22C116.995 174.791 116.995 176.37 117.13 177.94C119.3 187.65 121.33 196.22 122.86 202.36C123.63 205.36 124.25 207.84 124.7 209.59C124.91 210.4 125.08 211.04 125.21 211.53C125.288 211.753 125.338 211.985 125.36 212.22C125.257 212.009 125.177 211.788 125.12 211.56L124.52 209.64C124.02 207.96 123.32 205.51 122.52 202.45C120.9 196.33 118.81 187.76 116.63 178.06C116.495 176.463 116.495 174.857 116.63 173.26C116.85 170.48 117.37 167.82 117.8 165.26C118.23 162.7 118.65 160.26 119.04 157.85C119.84 153.14 120.56 148.85 121.16 145.3C121.76 141.75 122.28 138.9 122.64 136.85C122.82 135.9 122.96 135.13 123.07 134.56C123.086 134.252 123.136 133.947 123.22 133.65Z" fill="#263238"/>
<path d="M49 128L54.3 199C54.3 199 64.22 153.77 64.62 142.2C64.9238 135.564 64.25 128.92 62.62 122.48C62.62 122.48 53 120.93 49 128Z" fill="#455A64"/>
<path d="M45.9399 123.5C46.5948 123.703 47.1985 124.044 47.7099 124.5C48.3069 124.977 48.7546 125.616 48.9999 126.34C49.2818 127.196 49.4598 128.082 49.5299 128.98C49.6999 130.86 49.6899 132.56 49.6899 133.79C49.7329 134.458 49.7061 135.128 49.6099 135.79C49.4115 135.142 49.3137 134.468 49.3199 133.79C49.2199 132.57 49.1799 130.87 49.0099 129.02C48.8399 127.17 48.4199 125.51 47.5199 124.74C46.6199 123.97 45.8899 123.58 45.9399 123.5Z" fill="#263238"/>
<path d="M82.72 126.07C82.72 126.07 82.49 125.88 82.12 125.45C81.75 125.02 81.23 124.45 80.58 123.6H80.88C80.16 125.69 79.06 128.72 77.81 132.12L77.63 132.6L77.36 132.19C77.21 131.96 77.03 131.73 76.89 131.49C76.0515 129.986 75.3583 128.406 74.82 126.77C74.29 125.28 73.82 123.94 73.48 122.77C73.14 121.6 72.8 120.77 72.57 120.12C72.4321 119.798 72.325 119.463 72.25 119.12C72.4669 119.395 72.639 119.702 72.76 120.03C73.05 120.63 73.41 121.53 73.83 122.64C74.25 123.75 74.74 125.11 75.27 126.55C75.8266 128.145 76.5156 129.69 77.33 131.17C77.47 131.4 77.63 131.61 77.77 131.82L77.32 131.89C78.59 128.5 79.74 125.49 80.56 123.43L80.67 123.14L80.86 123.39C81.5408 124.24 82.1623 125.135 82.72 126.07Z" fill="#263238"/>
<path d="M105.72 121.19C105.643 121.52 105.526 121.839 105.37 122.14C105.11 122.74 104.71 123.59 104.21 124.64C103.71 125.69 103.09 126.93 102.36 128.3C101.594 129.802 100.718 131.246 99.7399 132.62L99.4099 133.07L99.2799 132.52L99.2299 132.29C98.4099 128.8 97.6999 125.63 97.2299 123.29L97.5499 123.37C96.8532 124.036 96.0852 124.623 95.2599 125.12C94.7199 125.51 94.4699 125.79 94.4399 125.76C94.4099 125.73 94.6099 125.42 95.1299 124.96C95.8935 124.408 96.6093 123.792 97.2699 123.12L97.4999 122.85L97.5999 123.2C98.1799 125.49 98.9499 128.65 99.7699 132.14V132.37L99.3099 132.27C100.268 130.917 101.14 129.504 101.92 128.04L103.86 124.45L105.17 122.02C105.318 121.722 105.503 121.443 105.72 121.19Z" fill="#263238"/>
<path d="M83.22 125.79C83.22 125.79 80.41 162.29 79.68 166.99C78.95 171.69 81.45 245.26 81.45 245.26L97.89 246.32C97.89 246.32 98.06 185.57 97.89 185.15C97.72 184.73 97.97 142.26 97.97 142.26L94.24 125.34L87.88 132.87L83.22 125.79Z" fill="white"/>
<path d="M101.57 160.49C101.57 160.57 100.99 160.7 100.7 161.49C100.616 161.702 100.578 161.93 100.59 162.158C100.602 162.386 100.664 162.608 100.77 162.81C100.923 163.032 101.139 163.203 101.391 163.3C101.643 163.396 101.918 163.414 102.18 163.35C102.447 163.32 102.698 163.207 102.899 163.028C103.099 162.849 103.24 162.612 103.3 162.35C103.329 162.124 103.308 161.894 103.239 161.676C103.17 161.458 103.054 161.258 102.9 161.09C102.582 160.77 102.174 160.554 101.73 160.47C101.73 160.47 101.86 160.37 102.13 160.37C102.507 160.41 102.859 160.576 103.13 160.84C103.348 161.039 103.517 161.287 103.623 161.563C103.729 161.839 103.769 162.136 103.74 162.43C103.659 162.792 103.473 163.121 103.206 163.378C102.939 163.635 102.603 163.808 102.238 163.875C101.874 163.942 101.498 163.901 101.156 163.756C100.815 163.611 100.525 163.369 100.32 163.06C100.186 162.795 100.115 162.502 100.115 162.205C100.115 161.908 100.186 161.615 100.32 161.35C100.484 160.998 100.767 160.714 101.12 160.55C101.41 160.44 101.56 160.46 101.57 160.49Z" fill="#263238"/>
<path d="M101.57 192.35C101.57 192.43 100.99 192.57 100.7 193.35C100.615 193.562 100.578 193.79 100.59 194.018C100.602 194.246 100.664 194.468 100.77 194.67C100.931 194.883 101.149 195.046 101.398 195.143C101.646 195.239 101.917 195.264 102.18 195.215C102.442 195.166 102.686 195.046 102.884 194.866C103.081 194.687 103.226 194.457 103.3 194.2C103.329 193.974 103.309 193.743 103.24 193.526C103.171 193.308 103.055 193.108 102.9 192.94C102.34 192.31 101.72 192.4 101.73 192.31C101.74 192.22 101.86 192.21 102.13 192.22C102.506 192.255 102.859 192.418 103.13 192.68C103.346 192.881 103.514 193.129 103.62 193.404C103.725 193.68 103.767 193.976 103.74 194.27C103.659 194.632 103.473 194.962 103.206 195.218C102.939 195.475 102.602 195.648 102.238 195.715C101.874 195.782 101.497 195.741 101.156 195.596C100.815 195.451 100.524 195.209 100.32 194.9C100.186 194.637 100.115 194.346 100.115 194.05C100.115 193.755 100.186 193.463 100.32 193.2C100.484 192.848 100.767 192.564 101.12 192.4C101.41 192.3 101.56 192.33 101.57 192.35Z" fill="#263238"/>
<path d="M103 230.89C103 230.97 102.42 231.11 102.13 231.89C102.045 232.102 102.008 232.33 102.02 232.558C102.032 232.786 102.094 233.008 102.2 233.21C102.361 233.423 102.579 233.586 102.827 233.683C103.076 233.779 103.347 233.804 103.61 233.755C103.872 233.706 104.116 233.586 104.314 233.406C104.511 233.227 104.656 232.997 104.73 232.74C104.759 232.514 104.739 232.283 104.67 232.066C104.601 231.848 104.485 231.648 104.33 231.48C103.77 230.85 103.15 230.94 103.16 230.85C103.17 230.76 103.29 230.75 103.56 230.76C103.937 230.792 104.29 230.955 104.56 231.22C104.78 231.419 104.951 231.666 105.058 231.942C105.166 232.218 105.208 232.515 105.18 232.81C105.1 233.174 104.915 233.507 104.647 233.766C104.38 234.025 104.041 234.2 103.675 234.267C103.308 234.334 102.93 234.292 102.587 234.145C102.245 233.997 101.953 233.752 101.75 233.44C101.618 233.176 101.549 232.885 101.549 232.59C101.549 232.295 101.618 232.004 101.75 231.74C101.914 231.388 102.197 231.104 102.55 230.94C102.87 230.84 103 230.87 103 230.89Z" fill="#263238"/>
<g opacity="0.3">
<path d="M124.34 160.2C123.98 157.29 123.21 154.44 123.02 151.51C122.78 148.01 123.39 144.51 122.7 141.02C120.32 145.02 119.78 149.79 119.77 154.42C119.76 159.05 120.19 163.7 119.53 168.28C119.08 171.42 118.06 175.19 117.68 178.34C117.3 181.49 118.2 183.22 119.12 187.95C122.29 179 125.5 169.63 124.34 160.2Z" fill="black"/>
</g>
<path d="M118.79 152.76C120.678 158.158 121.29 163.919 120.577 169.593C119.864 175.267 117.845 180.698 114.68 185.46" fill="#FCE494"/>
<path d="M114.68 185.46C114.59 185.4 115.68 183.82 117 181.04C117.761 179.42 118.409 177.749 118.94 176.04C119.568 173.93 120.03 171.773 120.32 169.59C120.576 167.403 120.663 165.2 120.58 163C120.494 161.204 120.284 159.417 119.95 157.65C119.36 154.65 118.69 152.83 118.79 152.79C119.007 153.187 119.182 153.606 119.31 154.04C119.46 154.45 119.63 154.95 119.79 155.54C119.95 156.13 120.17 156.81 120.31 157.54C120.699 159.321 120.95 161.13 121.06 162.95C121.325 167.415 120.762 171.89 119.4 176.15C118.837 177.866 118.145 179.538 117.33 181.15C117 181.86 116.63 182.46 116.33 182.99C116.07 183.451 115.786 183.898 115.48 184.33C115.254 184.734 114.986 185.113 114.68 185.46Z" fill="#263238"/>
<path d="M69.1199 201C68.4178 200.565 67.7728 200.045 67.1999 199.45C64.2777 196.741 61.7136 193.669 59.5699 190.31C59.0809 189.638 58.6809 188.905 58.3799 188.13C58.9336 188.752 59.4321 189.422 59.8699 190.13C60.7599 191.36 62.0099 193.04 63.4899 194.82C64.9699 196.6 66.3999 198.12 67.4899 199.22C68.082 199.767 68.6273 200.362 69.1199 201Z" fill="#263238"/>
<path d="M62.5399 202.05C62.1171 201.475 61.7802 200.842 61.5399 200.17C60.1321 197.022 59.1243 193.709 58.5399 190.31C58.3683 189.614 58.2976 188.897 58.3299 188.18C58.4799 188.18 59.0599 191.35 60.2299 195.18C61.3999 199.01 62.6799 202 62.5399 202.05Z" fill="#263238"/>
<path d="M94.6999 183C94.6999 183.07 94.0899 182.68 93.0999 182.29C91.8076 181.786 90.4193 181.575 89.0357 181.674C87.652 181.772 86.3075 182.178 85.0999 182.86C84.1799 183.39 83.6899 183.86 83.6199 183.78C83.9432 183.271 84.3861 182.849 84.9099 182.55C86.1254 181.739 87.5319 181.26 88.9899 181.16C90.4458 181.048 91.9054 181.324 93.2199 181.96C93.7909 182.18 94.2991 182.537 94.6999 183Z" fill="#263238"/>
<path d="M39.1798 180.63C39.1798 180.63 31.8298 188.63 32.3898 194.21C32.9498 199.79 35.5498 212.07 42.3898 211.7C49.2298 211.33 55.4998 200.26 56.3898 191.48C57.2798 182.7 56.3898 162.04 56.3898 162.04L46.5798 164.25L39.1798 180.63Z" fill="#FFBE9D"/>
<path d="M24.58 129.43C29.66 135.92 42.25 151.57 42.25 151.57L54.1 148.57C54.5232 148.464 54.9045 148.233 55.1937 147.906C55.4828 147.58 55.6663 147.173 55.72 146.74C55.7549 146.457 55.7331 146.169 55.6558 145.895C55.5786 145.62 55.4474 145.364 55.27 145.14L38.66 124.14C38.0402 123.352 37.1856 122.782 36.2201 122.512C35.2546 122.243 34.2283 122.287 33.29 122.64L25.7 125.49C25.3275 125.631 24.9932 125.857 24.7238 126.15C24.4543 126.443 24.2573 126.795 24.1484 127.178C24.0396 127.561 24.0219 127.964 24.0968 128.355C24.1718 128.746 24.3372 129.114 24.58 129.43Z" fill="#263238"/>
<path d="M54.46 145.91C54.0516 145.578 53.6704 145.213 53.32 144.82C52.61 144.08 51.6 143.01 50.39 141.66C47.97 138.95 44.73 135.1 41.39 130.66C40.56 129.55 39.76 128.46 39 127.39C38.3716 126.343 37.5259 125.443 36.52 124.75C36.0313 124.523 35.4989 124.405 34.96 124.405C34.4211 124.405 33.8887 124.523 33.4 124.75L30.6 125.75L26.51 127.1C26.0178 127.291 25.5089 127.435 24.99 127.53C25.4571 127.288 25.9418 127.08 26.44 126.91L30.44 125.4L33.23 124.4C33.7652 124.2 34.3225 124.066 34.89 124C35.5239 123.948 36.1594 124.08 36.72 124.38C37.8023 125.092 38.714 126.035 39.39 127.14L41.78 130.4C45.1 134.83 48.28 138.7 50.63 141.46C51.76 142.79 52.71 143.89 53.43 144.73C53.8043 145.095 54.1487 145.49 54.46 145.91Z" fill="#455A64"/>
<path d="M31.3099 127.25C31.4878 127.162 31.6876 127.13 31.8841 127.156C32.0805 127.182 32.2647 127.266 32.4133 127.398C32.5619 127.529 32.6681 127.701 32.7185 127.893C32.769 128.084 32.7613 128.287 32.6965 128.474C32.6318 128.661 32.5128 128.825 32.3547 128.945C32.1966 129.064 32.0066 129.134 31.8087 129.146C31.6108 129.157 31.4141 129.109 31.2434 129.009C31.0726 128.908 30.9357 128.759 30.85 128.58C30.7359 128.342 30.7203 128.069 30.8064 127.82C30.8925 127.571 31.0735 127.366 31.3099 127.25Z" fill="white"/>
<path d="M41.4699 141.44L35.9899 142.35L33.9899 144.15C33.7071 144.394 33.4896 144.705 33.3569 145.054C33.2243 145.403 33.1806 145.78 33.2299 146.15C33.3856 147.135 33.8153 148.057 34.4699 148.81C35.1758 149.686 35.9737 150.484 36.8499 151.19C36.8499 151.19 34.9299 154.31 37.9099 155.89C37.9099 155.89 37.7099 159.12 40.8399 159.45C40.8399 159.45 41.7499 162.52 44.1099 162.69L46.5399 165.1L45.7999 166.57L56.6699 166.91C56.725 164.01 56.5813 161.11 56.2399 158.23C56.0553 157.058 55.7709 155.904 55.3899 154.78C55.9399 151.72 53.6499 150.44 53.2999 150.66C53.2999 150.66 58.4899 149.3 57.8299 145.73L52.8299 147.01L43.6999 148.91L49.5599 145C49.8503 144.733 50.1057 144.431 50.3199 144.1C50.8199 143.31 51.5599 141.88 50.9299 141.04C50.6599 140.69 43.4599 143.7 43.4599 143.7L38.9999 147.81L37.5999 145.81C37.5999 145.81 42.1899 144.87 41.4699 141.44Z" fill="#FFBE9D"/>
<path d="M53.9998 150.7C53.9998 150.86 52.0698 151.13 49.7598 151.81C47.4498 152.49 45.6498 153.28 45.5798 153.14C46.7798 152.273 48.1391 151.651 49.5798 151.31C50.9974 150.813 52.5005 150.605 53.9998 150.7Z" fill="#EB996E"/>
<path d="M51.4899 160.11C52.1435 159.516 52.7487 158.87 53.2999 158.18L53.4899 157.93L53.6199 158.22C53.7996 158.603 54.1177 158.903 54.5099 159.06C54.716 159.163 54.9457 159.21 55.1757 159.196C55.4057 159.182 55.6279 159.107 55.8199 158.98C55.903 158.916 55.9646 158.828 55.9967 158.728C56.0289 158.628 56.03 158.521 55.9999 158.42L55.8499 157.52C55.7749 156.895 55.6512 156.276 55.4799 155.67C55.3979 155.413 55.2347 155.189 55.0147 155.032C54.7948 154.875 54.53 154.794 54.2599 154.8C53.6948 154.825 53.1359 154.929 52.5999 155.11L49.6699 155.83C48.7783 156.091 47.8644 156.268 46.9399 156.36C47.7922 155.987 48.6756 155.689 49.5799 155.47L52.4599 154.65C53.0437 154.434 53.658 154.313 54.2799 154.29C54.6357 154.298 54.9822 154.405 55.2799 154.6C55.5822 154.826 55.8117 155.135 55.9399 155.49C56.1207 156.129 56.2511 156.781 56.3299 157.44C56.3299 157.75 56.4199 158.06 56.4699 158.36C56.5067 158.547 56.4896 158.74 56.4205 158.917C56.3514 159.094 56.2333 159.248 56.0799 159.36C55.819 159.534 55.5165 159.635 55.2035 159.652C54.8906 159.67 54.5787 159.603 54.2999 159.46C53.8425 159.229 53.4864 158.837 53.2999 158.36H53.6099C53.1914 158.884 52.6997 159.346 52.1499 159.73C51.7399 160 51.5099 160.14 51.4899 160.11Z" fill="#EB996E"/>
<path d="M41.8799 145C41.1563 146.129 40.3402 147.196 39.4399 148.19C38.6805 149.295 37.8274 150.332 36.8899 151.29C37.398 150.047 38.1112 148.897 38.9999 147.89C39.7816 146.764 40.7567 145.786 41.8799 145Z" fill="#EB996E"/>
<path d="M44.1399 148.77C44.1399 148.92 42.9999 149.28 42.1399 150.45C41.6902 151.193 41.3532 151.998 41.1399 152.84C41.0699 152.84 40.9699 152.54 40.9899 152.02C41.0515 151.342 41.2949 150.694 41.6944 150.143C42.094 149.592 42.6348 149.159 43.2599 148.89C43.7999 148.71 44.1199 148.71 44.1399 148.77Z" fill="#EB996E"/>
<path d="M102.8 68.2101C101.96 66.0101 102.29 63.5601 101.96 61.2101C101.24 56.0801 97.11 51.9601 92.33 49.9501C87.88 48.0901 82.45 48.4901 77.09 50.2101C73.3668 51.3346 70.0406 53.4954 67.5 56.4401C65.8809 58.4373 64.7637 60.7931 64.2417 63.3106C63.7198 65.8281 63.8084 68.4339 64.5 70.9101L90.76 67.1201C93.21 69.1201 95.76 71.2301 98.71 72.3701C99.5694 72.753 100.514 72.9047 101.45 72.8101C101.908 72.7473 102.339 72.5562 102.693 72.2589C103.046 71.9616 103.309 71.5703 103.45 71.1301C103.75 70.1401 103.17 69.1701 102.8 68.2101Z" fill="#263238"/>
<path d="M86.4799 48.6401C92.2299 47.6401 97.2799 49.8901 102.12 53.1401C106.953 56.4798 110.649 61.2186 112.71 66.7201C114.92 72.4501 115.48 80.7201 113.71 86.6301C112.947 89.4049 111.524 91.9543 109.564 94.061C107.603 96.1678 105.163 97.7696 102.45 98.7301C94.5499 101.53 85.4499 101.18 78.7299 96.1201C72.0099 91.0601 68.2299 82.6901 67.9199 74.3101C67.6251 68.4933 69.1679 62.7313 72.3299 57.8401C73.9232 55.4213 75.9973 53.3563 78.423 51.7736C80.8487 50.1909 83.5742 49.1242 86.4299 48.6401" fill="#263238"/>
<path d="M77.3499 111.17L77.5599 115.85L87.8799 134.1L102.88 114.9L103.39 66.9002C103.37 65.8275 102.947 64.8016 102.206 64.0256C101.466 63.2497 100.46 62.7802 99.3899 62.7102L76.4799 57.8202C69.1799 57.3302 64.6799 66.4602 64.4799 73.8202C64.2799 81.9502 64.3399 91.8802 65.4799 97.8902C67.8699 109.98 77.2499 111.18 77.2499 111.18" fill="#FFBE9D"/>
<path d="M67.8198 83.8901C67.8277 84.2977 67.9959 84.6858 68.2878 84.9703C68.5798 85.2548 68.9722 85.4128 69.3798 85.4101C69.5793 85.4182 69.7784 85.3863 69.9654 85.3164C70.1523 85.2465 70.3235 85.1399 70.4688 85.003C70.6141 84.8661 70.7306 84.7016 70.8115 84.5191C70.8924 84.3365 70.936 84.1397 70.9398 83.9401C70.9244 83.5359 70.7535 83.1533 70.4629 82.872C70.1723 82.5907 69.7843 82.4324 69.3798 82.4301C69.1808 82.4207 68.982 82.4513 68.7951 82.5201C68.6081 82.5889 68.4369 82.6945 68.2914 82.8306C68.146 82.9667 68.0293 83.1306 67.9483 83.3126C67.8673 83.4946 67.8236 83.691 67.8198 83.8901Z" fill="#263238"/>
<path d="M66.8798 78.5002C67.0798 78.7002 68.2298 77.7802 69.8798 77.7202C71.5298 77.6602 72.8198 78.4502 72.9898 78.2402C73.1598 78.0302 72.8698 77.7902 72.3098 77.4202C71.5678 76.9392 70.6929 76.7048 69.8098 76.7502C68.9378 76.7781 68.0972 77.0828 67.4098 77.6202C66.9398 78.0002 66.7798 78.4102 66.8798 78.5002Z" fill="#263238"/>
<path d="M83.0498 83.6001C83.0603 84.0086 83.2306 84.3967 83.5242 84.6809C83.8178 84.9651 84.2112 85.1228 84.6198 85.1201C84.818 85.1281 85.0157 85.0965 85.2015 85.0271C85.3873 84.9577 85.5573 84.8519 85.7017 84.7159C85.8461 84.5799 85.9618 84.4165 86.0422 84.2352C86.1226 84.0539 86.166 83.8584 86.1698 83.6601C86.1619 83.2525 85.9938 82.8644 85.7018 82.5799C85.4098 82.2954 85.0175 82.1374 84.6098 82.1401C84.4108 82.1307 84.212 82.1613 84.025 82.2301C83.8381 82.2989 83.6668 82.4044 83.5214 82.5405C83.3759 82.6767 83.2593 82.8406 83.1783 83.0226C83.0973 83.2045 83.0536 83.4009 83.0498 83.6001Z" fill="#263238"/>
<path d="M82.8199 78.11C83.0199 78.31 84.1699 77.39 85.8199 77.33C87.4699 77.27 88.8199 78.07 88.9399 77.85C89.0599 77.63 88.8199 77.4 88.2599 77.03C87.5179 76.5491 86.643 76.3146 85.7599 76.36C84.8879 76.3879 84.0473 76.6926 83.3599 77.23C82.8799 77.65 82.7199 78 82.8199 78.11Z" fill="#263238"/>
<path d="M77.76 90.8701C76.8664 90.6266 75.946 90.4956 75.02 90.4801C74.59 90.4801 74.18 90.3801 74.1 90.0901C74.0444 89.6488 74.1283 89.2012 74.34 88.8101L75.48 85.5001C77.07 80.7901 78.2 76.9201 78.01 76.8601C77.82 76.8001 76.38 80.5601 74.79 85.2801L73.7 88.6101C73.4528 89.138 73.3962 89.7352 73.54 90.3001C73.61 90.4476 73.7117 90.5779 73.8379 90.6816C73.9641 90.7854 74.1116 90.8599 74.27 90.9001C74.5092 90.9549 74.7546 90.9784 75 90.9701C75.9203 91.0588 76.8484 91.0251 77.76 90.8701Z" fill="#263238"/>
<path d="M77.3499 111.17C83.0935 110.785 88.6444 108.944 93.4799 105.82C93.4799 105.82 89.6999 114.39 77.4799 113.71L77.3499 111.17Z" fill="#EB996E"/>
<path d="M79.0499 94.48C79.3546 94.1451 79.7389 93.8926 80.1672 93.7457C80.5955 93.5989 81.0539 93.5625 81.4999 93.64C81.8196 93.6701 82.1273 93.7766 82.3971 93.9507C82.6669 94.1247 82.8908 94.3612 83.0499 94.64C83.2808 94.9777 83.4165 95.3713 83.4429 95.7795C83.4693 96.1877 83.3853 96.5954 83.1999 96.96C82.9444 97.2753 82.599 97.5053 82.2096 97.6196C81.8203 97.7339 81.4053 97.7271 81.0199 97.6C80.2934 97.4342 79.6112 97.1136 79.0199 96.66C78.8292 96.4756 78.697 96.2391 78.6399 95.98C78.6 95.7131 78.6206 95.4405 78.7002 95.1826C78.7798 94.9247 78.9165 94.688 79.0999 94.49" fill="#EB996E"/>
<path d="M82.9199 74.18C83.0999 74.63 84.7699 74.35 86.7399 74.52C88.7099 74.69 90.3399 75.16 90.5799 74.74C90.6899 74.54 90.3999 74.12 89.7399 73.74C88.8681 73.2184 87.884 72.9132 86.8699 72.85C85.8468 72.7649 84.8181 72.9261 83.8699 73.32C83.1899 73.59 82.8399 74 82.9199 74.18Z" fill="#263238"/>
<path d="M67.09 71.1401C67.4 71.5101 68.54 71.0701 69.93 71.0001C71.32 70.9301 72.51 71.1601 72.76 70.7501C72.87 70.5601 72.67 70.1801 72.15 69.8401C71.4415 69.4329 70.6282 69.245 69.8129 69.3002C68.9977 69.3554 68.2171 69.6512 67.57 70.1501C67.1 70.5601 67 71.0001 67.09 71.1401Z" fill="#263238"/>
<path d="M107 64.6802C104.63 57.6802 94.2698 48.1702 86.9198 48.8202L75.3098 56.0802C75.7289 58.0771 76.6796 59.9238 78.0613 61.4252C79.443 62.9266 81.2045 64.027 83.1598 64.6102C85.2498 65.2002 87.7498 65.3302 89.0198 67.0902C90.2898 68.8502 89.6298 71.5602 90.8398 73.4202C92.5098 76.0002 96.9498 75.7902 98.2298 78.5902C98.7798 79.8102 98.5298 81.2802 99.1098 82.5002C99.8798 84.1102 104.04 86.1002 105.74 85.5002C107.44 84.9002 107.38 82.0202 107.91 80.5002C108.579 78.7709 108.632 76.864 108.06 75.1002C107.26 71.6902 108.14 68.0002 107 64.6802Z" fill="#263238"/>
<path d="M100.74 87.0601C100.74 86.1501 101.68 83.9801 102.57 83.8001C104.94 83.3401 109.25 83.3701 109.57 89.4401C109.94 97.7301 101.57 96.3801 101.51 96.1501C101.45 95.9201 100.85 90.1901 100.74 87.0601Z" fill="#FFBE9D"/>
<path d="M103.86 92.8902C103.86 92.8902 104.01 92.9902 104.25 93.0902C104.423 93.162 104.608 93.1989 104.795 93.1989C104.982 93.1989 105.167 93.162 105.34 93.0902C106.2 92.7302 106.87 91.3102 106.85 89.8202C106.843 89.1075 106.672 88.4059 106.35 87.7702C106.264 87.514 106.115 87.2832 105.918 87.0983C105.721 86.9134 105.481 86.78 105.22 86.7102C105.052 86.6708 104.875 86.6925 104.721 86.7712C104.567 86.8499 104.446 86.9807 104.38 87.1402C104.28 87.3802 104.38 87.5402 104.3 87.5502C104.22 87.5602 104.11 87.4202 104.17 87.0802C104.201 86.8698 104.308 86.678 104.47 86.5402C104.692 86.3597 104.975 86.2735 105.26 86.3002C105.604 86.3506 105.928 86.4896 106.202 86.7035C106.475 86.9174 106.688 87.1989 106.82 87.5202C107.204 88.2236 107.413 89.009 107.43 89.8102C107.43 91.4802 106.66 93.0802 105.43 93.4802C105.21 93.5547 104.977 93.579 104.747 93.5513C104.517 93.5236 104.296 93.4446 104.1 93.3202C103.88 93.0902 103.83 92.9102 103.86 92.8902Z" fill="#EB996E"/>
<path d="M114.52 75.7201C114.771 74.9151 114.879 74.0724 114.84 73.2301C114.862 69.1304 113.51 65.1414 111 61.9001C110.522 61.2084 109.931 60.6031 109.25 60.1101C109.09 60.2101 111.87 62.9701 113.33 67.4201C114.151 70.109 114.553 72.9087 114.52 75.7201Z" fill="#FCE494"/>
<path d="M77.7298 53.5801C76.9598 56.9501 71.8298 61.2701 69.5698 63.9001C65.2698 68.9001 64.4598 69.6401 64.4898 84.7501C62.2649 80.0597 61.0877 74.9412 61.0398 69.7501C61.1405 65.336 62.8511 61.1109 65.8498 57.8701C67.361 56.2823 69.2217 55.0688 71.2839 54.3258C73.3461 53.5829 75.5532 53.331 77.7298 53.5901" fill="#263238"/>
<path d="M111.23 64.57C110.777 64.7355 110.307 64.8528 109.83 64.92C109.37 65.02 108.83 65.13 108.15 65.21C107.47 65.29 106.74 65.43 105.9 65.47C103.946 65.6131 101.984 65.6131 100.03 65.47C97.6313 65.2966 95.2504 64.9322 92.9098 64.38C90.5768 63.7949 88.2957 63.0189 86.0898 62.06C84.2936 61.2705 82.5588 60.3479 80.8998 59.3C80.1698 58.88 79.5698 58.42 79.0298 58.04C78.5595 57.7305 78.1055 57.3967 77.6698 57.04C77.281 56.7356 76.9165 56.4013 76.5798 56.04C77.0066 56.2695 77.4116 56.5373 77.7898 56.84C78.1598 57.12 78.6198 57.45 79.1798 57.84C79.7398 58.23 80.3498 58.63 81.0798 59.03C82.7468 60.0287 84.481 60.9108 86.2698 61.67C88.4502 62.618 90.7001 63.3969 92.9998 64C95.3026 64.5445 97.6422 64.9188 99.9998 65.12C101.937 65.2651 103.881 65.2818 105.82 65.17C106.65 65.17 107.4 65.04 108.05 64.99C108.7 64.94 109.27 64.85 109.73 64.78C110.223 64.6697 110.725 64.5994 111.23 64.57Z" fill="#455A64"/>
<path d="M112.09 70.52C111.768 70.6393 111.432 70.7166 111.09 70.75C110.207 70.9159 109.316 71.0294 108.42 71.09C102.458 71.5274 96.4887 70.3494 91.14 67.68C90.3322 67.2851 89.5476 66.8443 88.79 66.36C88.4981 66.2001 88.229 66.0017 87.99 65.77C87.99 65.7 89.24 66.43 91.29 67.37C96.6461 69.8321 102.51 70.9871 108.4 70.74C110.69 70.65 112.08 70.43 112.09 70.52Z" fill="#455A64"/>
<path d="M114.19 70.72C114.333 71.1239 114.427 71.5436 114.47 71.97C114.6 72.79 114.73 73.97 114.81 75.44C114.9 77.1621 114.9 78.8878 114.81 80.61C114.731 82.7259 114.447 84.8292 113.96 86.89C112.984 90.677 110.708 94.0005 107.53 96.28C106.565 96.9387 105.533 97.4919 104.45 97.93C104.065 98.1161 103.659 98.2539 103.24 98.34C103.6 98.1122 103.978 97.9148 104.37 97.75C105.402 97.2499 106.39 96.661 107.32 95.99C108.684 94.9811 109.874 93.7547 110.84 92.36C112.057 90.6764 112.949 88.7806 113.47 86.77C113.943 84.7362 114.237 82.665 114.35 80.58C114.47 78.65 114.49 76.91 114.46 75.45C114.43 73.99 114.36 72.81 114.28 72C114.212 71.5769 114.182 71.1485 114.19 70.72Z" fill="#455A64"/>
<path d="M81.1199 97.58C81.5688 97.5843 82.0119 97.4778 82.4099 97.27C82.6047 97.1502 82.7715 96.99 82.8992 96.8002C83.0268 96.6105 83.1123 96.3956 83.1499 96.17C83.1947 95.8936 83.1786 95.6108 83.1026 95.3413C83.0266 95.0718 82.8925 94.8222 82.7099 94.61C82.3211 94.1931 81.7886 93.9394 81.2199 93.9C80.7411 93.8713 80.2636 93.9751 79.8399 94.2C79.0999 94.59 78.8399 95.07 78.7199 95.02C78.5999 94.97 78.8699 94.42 79.6499 93.88C80.1192 93.5652 80.675 93.4044 81.2399 93.42C81.5914 93.428 81.9376 93.5075 82.2573 93.6536C82.5771 93.7998 82.8638 94.0095 83.0999 94.27C83.3359 94.5401 83.5058 94.8614 83.596 95.2086C83.6863 95.5557 83.6944 95.9191 83.6199 96.27C83.565 96.553 83.4465 96.8198 83.2732 97.0503C83.1 97.2807 82.8766 97.4687 82.6199 97.6C81.6799 98 81.0699 97.62 81.1199 97.58Z" fill="#263238"/>
<path d="M132.27 165.86L136.73 156.35C137.47 153.35 140.49 152.35 144.19 152.11L148.1 150.51C148.1 150.51 150.95 146.4 153.59 146.51C153.797 146.517 153.997 146.588 154.161 146.714C154.326 146.839 154.448 147.012 154.51 147.21C154.555 147.344 154.568 147.487 154.549 147.628C154.53 147.768 154.479 147.902 154.4 148.02L151.19 152.96L148.63 154.22C148.63 154.22 151.03 154.8 151.98 153.91C152.93 153.02 156.14 150.48 156.14 150.48C156.14 150.48 158.59 146.07 161.77 146.4C161.865 146.409 161.957 146.441 162.037 146.493C162.117 146.546 162.182 146.617 162.228 146.702C162.274 146.786 162.298 146.88 162.298 146.976C162.298 147.071 162.275 147.165 162.23 147.25L159.79 151.96C159.79 151.96 164.24 145.27 168.48 147.77L163.78 152.88C163.78 152.88 170.6 149.01 173.32 152.25L156.06 159.38L146.11 161.33L142.63 170.77L139.57 169L132.27 165.86Z" fill="#FFBE9D"/>
<path d="M142.61 178.21C142.61 178.21 143.14 195.11 140.02 199.77C136.9 204.43 131.1 210.77 123.92 205.69L119.43 188.69C119.43 188.69 126.74 180.69 128.07 177.39C131.38 169.2 136.73 156.39 136.73 156.39L146.25 160.63L142.61 178.21Z" fill="#FFBE9D"/>
<path d="M129.15 175.84C128.856 176.585 128.494 177.301 128.07 177.98C127.37 179.27 126.43 181.07 125.5 183.11C124.57 185.15 123.82 187.04 123.29 188.42C123.059 189.184 122.754 189.925 122.38 190.63C122.474 189.833 122.665 189.05 122.95 188.3C123.521 186.457 124.212 184.653 125.02 182.9C125.824 181.142 126.736 179.436 127.75 177.79C128.136 177.086 128.606 176.431 129.15 175.84Z" fill="#EB996E"/>
<path d="M151.19 152.91C150.506 153.509 149.716 153.974 148.86 154.28C148.079 154.74 147.216 155.046 146.32 155.18C147.001 154.583 147.788 154.118 148.64 153.81C149.425 153.351 150.29 153.045 151.19 152.91Z" fill="#EB996E"/>
<path d="M152.62 157.38C152.62 157.31 153.07 157.01 153.88 156.66L155.32 156.07L156.15 155.72C156.427 155.615 156.672 155.439 156.86 155.21C157.73 154.21 158.44 153.21 159.01 152.54C159.58 151.87 160.01 151.45 160.06 151.54C160.003 151.657 159.94 151.771 159.87 151.88L159.31 152.76C158.683 153.739 157.992 154.674 157.24 155.56C157.119 155.699 156.985 155.826 156.84 155.94C156.69 156.041 156.529 156.125 156.36 156.19L155.49 156.52C154.94 156.72 154.43 156.87 154.01 157.01C153.563 157.189 153.097 157.314 152.62 157.38Z" fill="#EB996E"/>
</svg>
