<svg width="15" height="15" viewBox="0 0 15 15" fill="none" xmlns="http://www.w3.org/2000/svg">
<g clip-path="url(#clip0_101_561)">
<mask id="mask0_101_561" style="mask-type:luminance" maskUnits="userSpaceOnUse" x="0" y="0" width="15" height="15">
<path d="M15 0H0V15H15V0Z" fill="white"/>
</mask>
<g mask="url(#mask0_101_561)">
<path d="M7.68688 4.46863L0.295898 11.8596C0.408765 12.6755 0.785906 13.4041 1.33883 13.9571L6.60618 9.20635L10.2123 5.08366L10.0999 4.64166L9.58417 4.45557L7.68688 4.46863Z" fill="#FFD469"/>
<path d="M3.43632 15.0003L10.8273 7.60937L10.8404 5.71208L10.5885 5.32571L10.2123 5.08398L1.33887 13.9575C2.29585 14.9144 3.41889 14.9948 3.43632 15.0003Z" fill="#FDB445"/>
<path d="M9.89855 4.77002L7.37305 7.2952L7.68708 7.6093L9.80404 5.79661L10.2125 5.08394L10.1051 4.87382L9.89855 4.77002Z" fill="#FDB445"/>
<path d="M7.68652 7.60937L8.0005 7.92344L10.5261 5.39816L10.4055 5.1848L10.2119 5.08398L7.68652 7.60937Z" fill="#F79743"/>
<path d="M9.58398 4.45582L9.89816 4.77L9.89819 4.76997L10.2121 5.08389L11.005 4.65176L11.1699 4.12614L11.0472 3.70436L10.5418 3.49805L9.58398 4.45582Z" fill="#006385"/>
<path d="M10.84 5.71182L11.7977 4.75404L11.6688 4.22726L11.1697 4.12598L10.2119 5.08375L10.84 5.71182Z" fill="#004F6A"/>
<path d="M11.7969 3.49896L14.2787 1.01709L14.9067 1.64507L12.4249 4.12697L11.7969 3.49896Z" fill="#006385"/>
<path d="M11.1689 2.87105L13.6508 0.38916L14.2788 1.01714L11.7969 3.49904L11.1689 2.87105Z" fill="#006385"/>
<path d="M14.2803 1.01576L13.6522 0.387695L11.1699 2.86994L11.4063 3.35148L11.798 3.49805L12.4943 3.09241L14.2803 1.01576Z" fill="#006385"/>
<path d="M11.7981 3.49792V3.9176L12.4262 4.12599L14.9084 1.64372L14.2803 1.01562L11.7981 3.49792ZM11.17 2.86981L10.542 3.49789L11.17 4.12599L11.6593 3.86208L11.7981 3.49792L11.17 2.86981Z" fill="#004F6A"/>
<path d="M11.168 4.127L11.7959 3.49902L12.4239 4.127L11.7959 4.75498L11.168 4.127Z" fill="#00435A"/>
</g>
</g>
<defs>
<clipPath id="clip0_101_561">
<rect width="15" height="15" fill="white"/>
</clipPath>
</defs>
</svg>
