<svg width="354" height="328" viewBox="0 0 354 328" fill="none" xmlns="http://www.w3.org/2000/svg">
<g clip-path="url(#clip0_244_17893)">
<path d="M52.2295 303.24C121.14 336.08 232.86 336.09 301.77 303.24C370.68 270.39 370.67 217.15 301.77 184.31C232.87 151.47 121.14 151.47 52.2295 184.31C-16.6805 217.15 -16.6705 270.4 52.2295 303.24Z" fill="#F5F5F5"/>
<path d="M301.531 278.97C314.223 278.97 324.511 274.068 324.511 268.02C324.511 261.973 314.223 257.07 301.531 257.07C288.84 257.07 278.551 261.973 278.551 268.02C278.551 274.068 288.84 278.97 301.531 278.97Z" fill="#EBEBEB"/>
<path d="M47 269.589L55.13 264.899C59.6692 261.195 63.1241 256.335 65.13 250.83C67.64 243.91 67.29 238.649 65.49 236.009C63.28 232.759 57.55 233.329 57.32 240.169C56.84 253.649 52.91 262.999 47 269.589Z" fill="#795ADE" fill-opacity="0.870588"/>
<path opacity="0.2" d="M47 269.589L55.13 264.899C59.6692 261.195 63.1241 256.335 65.13 250.83C67.64 243.91 67.29 238.649 65.49 236.009C63.28 232.759 57.55 233.329 57.32 240.169C56.84 253.649 52.91 262.999 47 269.589Z" fill="black"/>
<path d="M46.9997 270.09C46.8938 270.089 46.7911 270.054 46.7063 269.99C46.6215 269.927 46.5591 269.838 46.5279 269.737C46.4968 269.636 46.4986 269.527 46.533 269.427C46.5675 269.327 46.6328 269.241 46.7197 269.18C65.5197 256.18 61.8797 238.05 61.8397 237.87C61.8259 237.804 61.8252 237.737 61.8376 237.671C61.8499 237.605 61.8752 237.542 61.9119 237.486C61.9486 237.43 61.9959 237.381 62.0513 237.343C62.1067 237.305 62.169 237.279 62.2347 237.265C62.3003 237.251 62.3681 237.251 62.434 237.263C62.5 237.275 62.5628 237.301 62.619 237.337C62.6752 237.374 62.7236 237.421 62.7614 237.477C62.7993 237.532 62.8259 237.594 62.8397 237.66C62.8397 237.85 66.6797 256.6 47.3197 270C47.2257 270.064 47.1133 270.096 46.9997 270.09Z" fill="white"/>
<path d="M30.7103 279.001C30.7103 279.001 27.8803 276.701 28.5603 273.581C29.2403 270.461 31.0703 268.221 27.9403 264.201C24.8103 260.181 23.9403 254.821 27.6803 251.921C30.5303 249.671 34.9803 252.851 36.5803 246.921C37.7603 242.581 37.3603 232.971 42.8903 229.771C48.4203 226.571 51.8903 231.391 51.0203 237.911C50.2603 243.741 49.1803 249.351 50.0203 250.911C51.6403 253.911 54.4103 253.501 54.2803 258.981C54.1703 264.081 49.3403 268.301 49.3403 268.301L30.7103 279.001Z" fill="#795ADE" fill-opacity="0.870588"/>
<path d="M39.9997 274.111C39.8774 274.11 39.7597 274.064 39.6679 273.984C39.5762 273.903 39.5165 273.792 39.4997 273.671C38.0697 261.821 41.4997 241.361 44.2997 235.281C44.3233 235.213 44.361 235.152 44.4104 235.1C44.4598 235.049 44.5197 235.008 44.586 234.982C44.6523 234.955 44.7236 234.943 44.7949 234.946C44.8663 234.95 44.9361 234.968 44.9997 235.001C45.0594 235.028 45.1131 235.066 45.1576 235.114C45.2022 235.162 45.2366 235.219 45.259 235.28C45.2814 235.342 45.2912 235.407 45.2879 235.472C45.2846 235.538 45.2682 235.602 45.2397 235.661C42.4697 241.661 39.1597 262.181 40.5297 273.511C40.5437 273.642 40.5054 273.773 40.423 273.876C40.3406 273.979 40.2208 274.046 40.0897 274.061L39.9997 274.111Z" fill="white"/>
<path d="M39.7296 264.88C39.6531 264.884 39.577 264.866 39.5096 264.83C36.0396 263.14 33.8396 257.11 33.7496 256.83C33.7251 256.768 33.7133 256.701 33.715 256.635C33.7166 256.568 33.7316 256.502 33.7591 256.441C33.7867 256.38 33.8261 256.325 33.8752 256.28C33.9242 256.234 33.9819 256.199 34.0448 256.177C34.1076 256.154 34.1744 256.144 34.2412 256.147C34.3079 256.151 34.3733 256.168 34.4334 256.197C34.4936 256.226 34.5472 256.267 34.5912 256.318C34.6352 256.368 34.6687 256.427 34.6896 256.49C34.6896 256.55 36.8396 262.39 39.9496 263.9C40.0517 263.949 40.1339 264.032 40.1828 264.134C40.2317 264.237 40.2444 264.352 40.2188 264.463C40.1932 264.573 40.1309 264.672 40.042 264.742C39.9531 264.812 39.843 264.85 39.7296 264.85V264.88Z" fill="white"/>
<path d="M39.6708 268.881C39.5706 268.881 39.4728 268.85 39.3905 268.793C39.3083 268.736 39.2456 268.655 39.2108 268.561C39.161 268.439 39.1615 268.302 39.212 268.18C39.2626 268.059 39.3592 267.962 39.4808 267.911C45.3208 265.571 48.9608 258.621 49.0008 258.541C49.0618 258.423 49.1672 258.334 49.2938 258.294C49.4203 258.253 49.5578 258.265 49.6758 258.326C49.7938 258.387 49.8828 258.492 49.9231 258.619C49.9634 258.746 49.9518 258.883 49.8908 259.001C49.7308 259.301 46.0408 266.361 39.8908 268.841C39.8223 268.873 39.7464 268.887 39.6708 268.881Z" fill="white"/>
<path d="M243.801 215.08C243.801 215.08 239.431 208 239.001 200.31C238.571 192.62 240.261 189.42 242.581 188.5C244.901 187.58 245.081 190.41 246.271 192.08C247.461 193.75 249.891 192.8 250.791 187.59C251.691 182.38 254.971 173.59 261.791 171.88C269.291 170.02 265.271 178.82 263.381 182.25C261.491 185.68 260.031 190.36 261.271 191.63C262.511 192.9 264.441 190.55 266.271 192.73C268.501 195.36 261.571 204.83 257.591 207.12L243.801 215.08Z" fill="#795ADE" fill-opacity="0.870588"/>
<path d="M249.789 212.111C249.723 212.108 249.659 212.093 249.599 212.065C249.539 212.038 249.486 211.999 249.441 211.95C249.397 211.902 249.362 211.846 249.339 211.784C249.317 211.722 249.306 211.657 249.309 211.591C249.986 199.221 253.844 187.234 260.509 176.791C260.547 176.737 260.595 176.69 260.651 176.655C260.707 176.62 260.77 176.597 260.835 176.586C260.901 176.576 260.968 176.579 261.032 176.595C261.096 176.612 261.156 176.641 261.209 176.681C261.314 176.759 261.384 176.875 261.405 177.004C261.425 177.132 261.394 177.264 261.319 177.371C254.773 187.661 250.985 199.463 250.319 211.641C250.315 211.707 250.298 211.771 250.27 211.83C250.241 211.889 250.201 211.942 250.152 211.986C250.102 212.03 250.045 212.063 249.983 212.085C249.921 212.106 249.855 212.115 249.789 212.111Z" fill="white"/>
<path d="M250.36 206.199C250.276 206.198 250.194 206.178 250.12 206.139C247.32 204.589 245.771 199.989 245.711 199.799C245.689 199.737 245.679 199.671 245.683 199.605C245.687 199.539 245.703 199.474 245.731 199.414C245.76 199.355 245.802 199.302 245.851 199.258C245.901 199.214 245.958 199.18 246.021 199.159C246.147 199.118 246.283 199.129 246.401 199.189C246.519 199.249 246.609 199.353 246.65 199.479C246.65 199.479 248.15 203.909 250.65 205.259C250.763 205.326 250.847 205.434 250.883 205.561C250.918 205.688 250.902 205.823 250.84 205.939C250.795 206.025 250.725 206.096 250.64 206.142C250.554 206.188 250.457 206.208 250.36 206.199Z" fill="white"/>
<path d="M250.849 203.17C250.738 203.169 250.631 203.131 250.544 203.062C250.457 202.993 250.396 202.897 250.369 202.79C250.353 202.727 250.349 202.661 250.358 202.597C250.368 202.532 250.39 202.47 250.423 202.414C250.457 202.358 250.501 202.31 250.553 202.271C250.606 202.233 250.666 202.205 250.729 202.19C257.949 200.36 260.449 196.58 260.469 196.54C260.505 196.484 260.551 196.436 260.605 196.398C260.659 196.36 260.72 196.333 260.784 196.318C260.849 196.304 260.916 196.303 260.981 196.314C261.046 196.325 261.108 196.349 261.164 196.385C261.22 196.42 261.268 196.466 261.306 196.521C261.344 196.575 261.371 196.636 261.386 196.7C261.4 196.765 261.401 196.832 261.39 196.897C261.379 196.962 261.355 197.024 261.319 197.08C261.209 197.25 258.609 201.22 250.979 203.16L250.849 203.17Z" fill="white"/>
<path d="M135.001 199.539C135.001 199.539 125.411 197.199 124.911 179.239C124.381 159.859 127.261 137.239 115.911 135.409C104.561 133.579 98.2607 147.409 98.4007 163.559C98.5307 177.699 104.231 208.399 134.961 214.419L135.001 199.539Z" fill="#795ADE" fill-opacity="0.870588"/>
<path opacity="0.2" d="M135.001 199.539C135.001 199.539 125.411 197.199 124.911 179.239C124.381 159.859 127.261 137.239 115.911 135.409C104.561 133.579 98.2607 147.409 98.4007 163.559C98.5307 177.699 104.231 208.399 134.961 214.419L135.001 199.539Z" fill="black"/>
<path d="M135.001 212.58H134.911C128.001 211.32 122.371 207.51 118.181 201.27C105.761 182.74 109.671 148.14 110.961 142.1C110.99 141.971 111.068 141.859 111.178 141.786C111.288 141.713 111.421 141.686 111.551 141.71C111.681 141.741 111.793 141.821 111.866 141.932C111.938 142.044 111.965 142.179 111.941 142.31C110.671 148.31 106.781 182.47 119.011 200.71C120.791 203.539 123.14 205.966 125.908 207.839C128.676 209.712 131.803 210.99 135.091 211.59C135.156 211.602 135.219 211.627 135.274 211.663C135.33 211.699 135.377 211.746 135.415 211.801C135.452 211.856 135.478 211.918 135.491 211.983C135.504 212.048 135.504 212.115 135.491 212.18C135.47 212.294 135.409 212.397 135.319 212.47C135.23 212.543 135.117 212.582 135.001 212.58Z" fill="white"/>
<path d="M135 258.671C125.09 260.011 109 259.991 99.7101 252.671C90.4201 245.351 92.3601 239.051 95.9301 236.421C99.5001 233.791 102.6 230.791 96.4601 224.951C90.3201 219.111 80.4601 209.731 77.2601 195.661C74.0601 181.591 75.6401 172.791 81.9201 169.861C88.0101 167.021 89.6201 171.541 93.3501 180.861C97.0801 190.181 105.47 182.191 112.65 185.101C119.83 188.011 119.54 193.771 119.99 198.721C120.44 203.671 122.81 205.041 126.88 205.041C130.95 205.041 135 207.381 135 212.041V258.671Z" fill="#795ADE" fill-opacity="0.870588"/>
<path d="M135 242.33C134.957 242.34 134.913 242.34 134.87 242.33C134.44 242.21 124.19 239.23 109.26 225.52C93.3599 210.92 85.8599 189.02 85.7799 188.8C85.7416 188.674 85.7535 188.538 85.8132 188.421C85.8728 188.303 85.9756 188.213 86.0999 188.17C86.2246 188.129 86.3606 188.138 86.4785 188.196C86.5964 188.254 86.6867 188.356 86.7299 188.48C86.7999 188.7 94.2299 210.36 109.94 224.78C124.66 238.31 135.03 241.34 135.14 241.37C135.203 241.388 135.262 241.419 135.313 241.46C135.364 241.501 135.407 241.552 135.439 241.61C135.47 241.667 135.49 241.73 135.497 241.796C135.504 241.861 135.499 241.927 135.48 241.99C135.448 242.091 135.383 242.179 135.297 242.24C135.21 242.301 135.106 242.333 135 242.33Z" fill="white"/>
<path d="M113.431 228.999C113.331 229.001 113.232 228.971 113.15 228.913C113.067 228.856 113.005 228.774 112.971 228.679C109.761 220.439 109.031 202.809 108.971 202.059C108.968 201.927 109.017 201.799 109.106 201.702C109.196 201.605 109.319 201.547 109.451 201.539C109.582 201.541 109.707 201.591 109.803 201.68C109.899 201.768 109.959 201.889 109.971 202.019C109.971 202.199 110.721 220.229 113.871 228.319C113.895 228.381 113.907 228.447 113.905 228.513C113.904 228.579 113.889 228.644 113.862 228.705C113.835 228.765 113.796 228.82 113.748 228.865C113.7 228.91 113.643 228.946 113.581 228.969C113.533 228.986 113.482 228.996 113.431 228.999Z" fill="white"/>
<path d="M113.35 240.85C112.428 240.857 111.507 240.811 110.59 240.71C110.524 240.702 110.461 240.681 110.403 240.649C110.346 240.617 110.295 240.573 110.254 240.521C110.213 240.469 110.183 240.41 110.165 240.346C110.147 240.282 110.142 240.216 110.15 240.15C110.158 240.084 110.179 240.021 110.211 239.963C110.243 239.906 110.287 239.855 110.339 239.814C110.391 239.773 110.45 239.743 110.514 239.725C110.578 239.707 110.644 239.702 110.71 239.71C110.8 239.71 120.11 240.77 124.38 236.42C124.425 236.367 124.479 236.325 124.541 236.294C124.603 236.264 124.67 236.246 124.739 236.243C124.808 236.24 124.877 236.251 124.941 236.276C125.005 236.301 125.064 236.338 125.113 236.387C125.162 236.435 125.201 236.493 125.226 236.557C125.252 236.621 125.264 236.689 125.262 236.758C125.26 236.827 125.243 236.895 125.214 236.957C125.184 237.019 125.142 237.075 125.09 237.12C122 240.31 116.61 240.85 113.35 240.85Z" fill="white"/>
<path d="M106.149 51.4891L105.069 45.2591L99.5094 48.9191C99.0013 47.9191 98.2813 47.0421 97.3994 46.3491L100.059 39.1491L95.0594 38.0391L91.3994 45.0391C90.0752 45.2625 88.7913 45.6803 87.5894 46.2791L85.9994 40.9991L80.0594 45.6691L80.4494 51.8691C79.2397 53.2241 78.1428 54.6756 77.1694 56.2091L72.2694 55.9591L68.8294 63.6691L73.0394 65.4691C72.5998 67.0638 72.3218 68.6987 72.2094 70.3491L66.8594 75.2691L67.9294 81.5091L73.4994 77.8491C74.0045 78.8481 74.7252 79.7225 75.6094 80.4091L72.9994 87.6191L77.9994 88.7191L83.2394 83.6191C84.4494 83.4291 84.1494 81.1491 85.4694 80.4991L87.0594 85.7591L92.9894 81.0991L92.8394 78.6591C94.0394 77.3191 98.5794 74.3691 99.5594 72.8291L100.789 70.8291L104.229 63.1191L102.629 60.2191L100.849 56.4391L106.149 51.4891ZM87.9994 71.9991C83.4394 75.5791 81.9994 76.3691 81.2294 71.5791C80.4594 66.7891 83.0694 59.5091 87.6294 55.9191C92.1894 52.3291 93.9294 52.0791 94.7494 56.8591C95.5694 61.6391 92.5694 68.4591 87.9994 71.9991Z" fill="#E0E0E0"/>
<path d="M95.0994 38.0391L101.59 41.7791L97.9295 48.7591L91.4395 45.0191L95.0994 38.0391Z" fill="#F5F5F5"/>
<path d="M111.56 48.9998L106 52.6598L99.5098 48.9198L105.07 45.2598L111.56 48.9998Z" fill="#F5F5F5"/>
<path d="M110.671 66.8288L106.461 65.0388L99.9707 61.2988L104.181 63.0888L110.671 66.8288Z" fill="#E0E0E0"/>
<path d="M72.9902 87.6202L79.4802 91.3502L82.1402 84.1502L75.6502 80.4102L72.9902 87.6202Z" fill="#E0E0E0"/>
<path d="M93.4899 89.5L87.0099 85.76L85.4199 80.5L91.9099 84.24L93.4899 89.5Z" fill="#E0E0E0"/>
<path d="M112.631 55.2293L111.561 48.9993L106.001 52.6593C105.489 51.6589 104.766 50.7819 103.881 50.0893L106.541 42.8893L101.591 41.7793L97.9206 48.7793C96.5964 49.0027 95.3126 49.4205 94.1106 50.0193L92.5306 44.7593L86.5906 49.4293L86.9806 55.6293C85.7696 56.9938 84.6726 58.4554 83.7006 59.9993L78.7906 59.7493L75.3506 67.4593L79.5606 69.2593C79.1251 70.8583 78.8471 72.4961 78.7306 74.1493L73.3906 78.9993L74.4606 85.2393L80.0206 81.5793C80.5325 82.5768 81.256 83.4505 82.1406 84.1393L79.4806 91.3393L84.4806 92.4493L88.1406 85.4493C89.4699 85.2284 90.7579 84.8069 91.9606 84.1993L93.5406 89.4593L99.4806 84.7993L99.0906 78.5993C100.301 77.2443 101.397 75.7928 102.371 74.2593L107.281 74.4993L110.721 66.7893L106.451 64.9993C106.894 63.4014 107.175 61.7633 107.291 60.1093L112.631 55.2293ZM94.5006 75.7793C89.9506 79.3593 85.5906 78.3893 84.7606 73.6093C83.9306 68.8293 86.9606 62.0393 91.5206 58.4593C96.0806 54.8793 100.431 55.8593 101.261 60.6393C102.091 65.4193 99.0606 72.1993 94.5006 75.7793Z" fill="#EBEBEB"/>
<path d="M92.5296 44.74L86.0396 41L80.0996 45.67L86.5896 49.41L92.5296 44.74Z" fill="#F5F5F5"/>
<path d="M80.0996 45.6699L80.4896 51.8699L86.9796 55.6099L86.5896 49.4099L80.0996 45.6699Z" fill="#E0E0E0"/>
<path d="M83.7006 59.9507L77.2105 56.2107L72.3105 55.9707L78.7906 59.7107L83.7006 59.9507Z" fill="#F5F5F5"/>
<path d="M72.3091 55.9707L68.8691 63.6707L75.3491 67.4107L78.7891 59.7107L72.3091 55.9707Z" fill="#E0E0E0"/>
<path d="M78.7304 74.0895L72.2504 70.3496L66.9004 75.2696L73.3804 79.0095L78.7304 74.0895Z" fill="#F5F5F5"/>
<path d="M74.4604 85.2495L67.9704 81.5095L66.9004 75.2695L73.3804 79.0095L74.4604 85.2495Z" fill="#E0E0E0"/>
<path d="M101.59 41.7791L95.0996 38.0391L100.06 39.1491L106.54 42.8891L101.59 41.7791Z" fill="#F5F5F5"/>
<path d="M77.0905 23.2109V13.9009L69.6805 17.2409C69.288 15.6613 68.6102 14.1668 67.6805 12.8309L72.3505 3.42086L66.6505 0.130859L60.8305 8.88086C59.2086 8.73917 57.5744 8.89851 56.0105 9.35086L55.1905 1.26087L47.1305 5.92086L46.3205 14.9209C44.5663 16.4752 42.9534 18.1819 41.5005 20.0209L35.6805 18.0209L29.9805 27.9009L34.6405 31.9009C33.7794 34.0784 33.1102 36.3269 32.6405 38.6209L25.2305 43.8309V53.1509L32.6405 49.8109C33.033 51.3904 33.7108 52.885 34.6405 54.2209L30.0005 63.6409L35.7005 66.9309L41.5205 58.1809C43.1424 58.3221 44.7764 58.1628 46.3405 57.7109L47.1505 65.8009L55.2105 61.1409L56.0305 52.1409C58.5461 51.223 60.7747 49.6569 62.4905 47.6009L66.6705 49.0709L72.3705 39.2009L68.8705 36.2009C69.6303 33.6992 69.9118 31.0768 69.7005 28.4709L77.0905 23.2109ZM51.1605 46.4709C44.9805 50.0409 41.1605 47.4709 41.1605 40.3609C41.1605 33.2509 46.2705 24.4609 52.4605 20.8909C58.6505 17.3209 62.3905 19.8909 62.3905 27.0609C62.3905 34.2309 57.3505 42.8909 51.1605 46.4709Z" fill="#E0E0E0"/>
<path d="M73.1301 3.86087L66.6501 0.130859L60.8301 8.88086L67.3101 12.6209L73.1301 3.86087Z" fill="#F5F5F5"/>
<path d="M83.5797 17.6404L77.0897 13.9004L69.6797 17.2404L76.1697 20.9804L83.5797 17.6404Z" fill="#F5F5F5"/>
<path d="M53.6103 69.5408L47.1303 65.8009L46.3203 57.7109L52.8003 61.4509L53.6103 69.5408Z" fill="#E0E0E0"/>
<path d="M29.9707 63.6405L36.4607 67.3805L41.1307 57.9705L34.6407 54.2305L29.9707 63.6405Z" fill="#E0E0E0"/>
<path d="M83.5807 26.9989V17.6889L76.1707 20.9989C75.7823 19.4179 75.1042 17.9226 74.1707 16.5889L78.8407 7.17892L73.1407 3.87891L67.3207 12.6389C65.6988 12.4923 64.0637 12.6517 62.5007 13.1089L61.6807 4.99892L53.6207 9.65892L52.8007 18.6589C51.0491 20.2158 49.4363 21.9222 47.9807 23.7589L42.1607 21.7589L36.4607 31.6389L41.1307 35.6389C40.2651 37.8148 39.5957 40.0638 39.1307 42.3589L31.7207 47.5689V56.8889L39.1307 53.5489C39.5188 55.1299 40.197 56.6253 41.1307 57.9589L36.4607 67.3689L42.1607 70.6589L47.9807 61.9089C49.6026 62.0506 51.2367 61.8912 52.8007 61.4389L53.6207 69.5289L61.6807 64.8689L62.4907 55.8689C64.2448 54.3146 65.8578 52.6079 67.3107 50.7689L73.1307 52.7689L78.8307 42.8989L74.1607 38.8989C75.026 36.7229 75.6953 34.4739 76.1607 32.1789L83.5807 26.9989ZM57.6507 50.2589C51.4607 53.8289 46.4407 50.9289 46.4407 43.7889C46.4407 36.6489 51.4407 27.9589 57.6507 24.3789C63.8607 20.7989 68.8507 23.7089 68.8507 30.8489C68.8507 37.9889 63.8307 46.6289 57.6507 50.2089V50.2589Z" fill="#EBEBEB"/>
<path d="M41.4997 20.04L47.9797 23.78L42.1597 21.75L35.6797 18L41.4997 20.04Z" fill="#F0F0F0"/>
<path d="M35.68 18.0098L29.9785 27.8932L36.4663 31.6359L42.1679 21.7526L35.68 18.0098Z" fill="#F5F5F5"/>
<path d="M29.9707 27.8809L36.4607 31.6209L41.1307 35.6409L34.6407 31.9109L29.9707 27.8809Z" fill="#E0E0E0"/>
<path d="M32.6405 38.6309L39.1305 42.3709L31.7205 47.5809L25.2305 43.8409L32.6405 38.6309Z" fill="#F5F5F5"/>
<path d="M25.2305 43.8398L31.7205 47.5798V56.8998L25.2305 53.1599V43.8398Z" fill="#E0E0E0"/>
<path d="M61.6809 4.99976L55.1909 1.25977L47.1309 5.91976L53.6109 9.65977L61.6809 4.99976Z" fill="#F5F5F5"/>
<path d="M144.879 272.049L238.879 217.769C239.086 217.696 239.265 217.561 239.392 217.382C239.519 217.202 239.587 216.988 239.587 216.769C239.587 216.549 239.519 216.335 239.392 216.156C239.265 215.977 239.086 215.842 238.879 215.769L230.189 210.769C229.651 210.498 229.056 210.357 228.454 210.357C227.851 210.357 227.257 210.498 226.719 210.769L132.689 264.999C132.482 265.072 132.302 265.207 132.175 265.386C132.049 265.565 131.98 265.779 131.98 265.999C131.98 266.218 132.049 266.432 132.175 266.612C132.302 266.791 132.482 266.926 132.689 266.999L141.409 271.999C141.943 272.277 142.535 272.427 143.138 272.436C143.741 272.444 144.337 272.312 144.879 272.049Z" fill="#E0E0E0"/>
<path d="M236.301 8.2002L151.541 57.1402C150.281 57.9624 149.232 59.0699 148.48 60.3729C147.728 61.676 147.293 63.1378 147.211 64.6402V265.71C147.211 268.47 149.151 269.59 151.541 268.21L236.301 219.27C237.563 218.449 238.612 217.342 239.365 216.039C240.117 214.736 240.551 213.273 240.631 211.77V10.7002C240.631 7.9402 238.701 6.8202 236.301 8.2002Z" fill="#455A64"/>
<path d="M151.539 57.1397L236.299 8.19967C238.439 6.95967 240.209 7.72967 240.569 9.87967C240.369 8.52791 239.885 7.23381 239.149 6.08247C238.413 4.93113 237.442 3.94865 236.299 3.19967L232.779 1.19967C231.437 0.518862 229.953 0.164062 228.449 0.164062C226.944 0.164062 225.461 0.518862 224.119 1.19967L139.349 50.0997C138.072 50.9003 137.019 52.0116 136.289 53.3297L148.479 60.3297C149.209 59.022 150.263 57.9236 151.539 57.1397Z" fill="#37474F"/>
<path d="M135 258.669C135.082 260.171 135.517 261.633 136.269 262.936C137.021 264.239 138.07 265.347 139.33 266.169L142.86 268.169C144.082 268.78 145.419 269.126 146.784 269.185C148.149 269.243 149.51 269.013 150.78 268.509C148.78 269.289 147.19 268.139 147.19 265.669V64.6391C147.24 63.1304 147.677 61.6599 148.46 60.3691L136.27 53.3691C135.498 54.6501 135.062 56.1048 135 57.5991V258.669Z" fill="#263238"/>
<path d="M153.871 83.93L234.001 37.68C235.441 36.86 236.601 37.53 236.601 39.18V188C236.553 188.902 236.292 189.78 235.84 190.562C235.388 191.344 234.758 192.008 234.001 192.5L153.901 238.75C152.461 239.58 151.301 238.91 151.301 237.25V88.43C151.346 87.5309 151.603 86.6552 152.049 85.8734C152.496 85.0917 153.12 84.426 153.871 83.93Z" fill="white"/>
<path d="M193.92 40.2892C193.478 40.5796 193.11 40.9697 192.846 41.4282C192.582 41.8868 192.429 42.4009 192.4 42.9292C192.4 43.9292 193.08 44.2992 193.92 43.8092C194.364 43.5206 194.733 43.1309 194.997 42.672C195.262 42.2131 195.413 41.698 195.44 41.1692C195.44 40.1992 194.76 39.8092 193.92 40.2892Z" fill="#37474F"/>
<path d="M193.92 222.74C192.172 223.883 190.718 225.423 189.675 227.233C188.633 229.043 188.031 231.074 187.92 233.16C187.92 236.99 190.61 238.55 193.92 236.63C195.668 235.486 197.121 233.946 198.164 232.136C199.206 230.326 199.808 228.296 199.92 226.21C199.94 222.38 197.24 220.82 193.92 222.74Z" fill="#37474F"/>
<path d="M179.529 55.7702C178.65 56.3536 177.921 57.1354 177.399 58.0525C176.878 58.9697 176.58 59.9965 176.529 61.0502C176.529 62.9902 177.889 63.7801 179.529 62.8101C180.417 62.2323 181.156 61.4529 181.686 60.5354C182.216 59.6179 182.522 58.5882 182.579 57.5301C182.579 55.5901 181.219 54.8002 179.529 55.7702Z" fill="#37474F"/>
<path d="M187 55.1096C187 56.4096 188 56.8996 189.17 56.2096L209.17 44.6396C209.79 44.2527 210.309 43.725 210.686 43.0994C211.063 42.4739 211.287 41.7681 211.34 41.0396C211.34 39.7496 210.34 39.2596 209.17 39.9496L189.17 51.5196C188.552 51.9055 188.033 52.4317 187.656 53.0554C187.279 53.6791 187.054 54.3828 187 55.1096Z" fill="#37474F"/>
<path d="M141.76 90.3694C142.469 90.8316 143.06 91.4546 143.484 92.1878C143.908 92.921 144.153 93.7438 144.2 94.5894C144.2 96.1494 143.11 96.7794 141.76 95.9994C141.053 95.5355 140.464 94.9119 140.042 94.1789C139.62 93.4459 139.376 92.624 139.33 91.7794C139.33 90.2294 140.42 89.5994 141.76 90.3694Z" fill="#37474F"/>
<path d="M141.76 109.151C142.469 109.613 143.06 110.236 143.484 110.969C143.908 111.703 144.153 112.525 144.2 113.371C144.2 114.921 143.11 115.551 141.76 114.781C141.053 114.317 140.464 113.693 140.042 112.96C139.62 112.227 139.376 111.406 139.33 110.561C139.33 109.001 140.42 108.371 141.76 109.151Z" fill="#37474F"/>
<path d="M141.001 90.7491C141.71 91.2113 142.301 91.8343 142.725 92.5675C143.149 93.3007 143.394 94.1234 143.441 94.9691C143.441 96.5191 142.351 97.1491 141.001 96.3791C140.291 95.9168 139.7 95.2939 139.276 94.5607C138.853 93.8275 138.607 93.0047 138.561 92.1591C138.571 90.5991 139.661 89.9991 141.001 90.7491Z" fill="#455A64"/>
<path d="M141.001 109.52C141.712 109.983 142.303 110.608 142.727 111.343C143.151 112.078 143.396 112.902 143.441 113.75C143.441 115.3 142.351 115.93 141.001 115.15C140.289 114.689 139.697 114.067 139.273 113.333C138.849 112.6 138.605 111.776 138.561 110.93C138.571 109.38 139.661 108.75 141.001 109.52Z" fill="#455A64"/>
<path d="M252.82 43.8893C252.82 42.2293 251.66 41.5593 250.22 42.3893L240.63 47.9193L170.12 88.6393C169.362 89.1314 168.732 89.7955 168.28 90.5776C167.828 91.3596 167.568 92.2374 167.52 93.1393V241.919C167.52 243.579 168.68 244.249 170.12 243.419L240.66 202.689L250.22 197.169C250.977 196.677 251.607 196.013 252.059 195.231C252.511 194.448 252.772 193.571 252.82 192.669V43.8893Z" fill="white"/>
<path d="M253.821 43.89C253.884 43.3885 253.797 42.8796 253.573 42.427C253.348 41.9743 252.995 41.5979 252.557 41.345C252.12 41.0921 251.617 40.9737 251.113 41.0049C250.608 41.036 250.124 41.2152 249.721 41.52L240.571 46.81L169.621 87.81C168.707 88.3866 167.948 89.1767 167.408 90.1123C166.868 91.0478 166.563 92.1006 166.521 93.18V241.92C166.481 242.419 166.577 242.92 166.799 243.369C167.02 243.818 167.36 244.199 167.781 244.47C168.139 244.678 168.547 244.785 168.961 244.78C169.547 244.762 170.119 244.593 170.621 244.29L241.621 203.29L250.751 198.02C251.659 197.438 252.415 196.646 252.954 195.712C253.493 194.778 253.801 193.728 253.851 192.65L253.821 43.89ZM240.591 201.58L239.771 202.06L169.661 242.54C169.543 242.631 169.407 242.694 169.261 242.725C169.116 242.756 168.965 242.754 168.821 242.72C168.691 242.64 168.561 242.36 168.561 241.9V93.14C168.613 92.4139 168.829 91.7091 169.192 91.0786C169.556 90.448 170.058 89.9083 170.661 89.5L240.701 49L250.701 43.21C250.819 43.1195 250.955 43.0564 251.101 43.0252C251.246 42.9941 251.396 42.9957 251.541 43.03C251.671 43.11 251.801 43.39 251.801 43.85V192.67C251.749 193.396 251.533 194.101 251.169 194.732C250.806 195.362 250.304 195.902 249.701 196.31L240.571 201.58H240.591Z" fill="#795ADE" fill-opacity="0.870588"/>
<path d="M210.17 78.4602C219.17 73.2802 226.42 77.4602 226.42 87.8502C226.42 98.2402 219.14 110.85 210.17 115.99C201.2 121.13 193.92 116.99 193.92 106.61C193.92 96.2302 201.2 83.6502 210.17 78.4602Z" fill="#795ADE" fill-opacity="0.870588"/>
<path d="M210.17 86.6194C213.08 84.9394 215.44 86.2994 215.44 89.6194C215.341 91.4484 214.812 93.2282 213.897 94.8146C212.981 96.4009 211.704 97.749 210.17 98.7494C207.26 100.429 204.9 99.0694 204.9 95.7494C204.999 93.9204 205.527 92.1406 206.443 90.5542C207.359 88.9679 208.636 87.6198 210.17 86.6194Z" fill="#795ADE" fill-opacity="0.870588"/>
<path d="M220.439 104.539C220.439 99.0191 216.569 96.7791 211.779 99.5391L208.779 101.269C203.999 104.029 200.119 110.749 200.119 116.269V117.759C202.889 118.669 206.369 118.179 210.119 115.989C214.273 113.426 217.786 109.948 220.389 105.819L220.439 104.539Z" fill="#795ADE" fill-opacity="0.870588"/>
<path opacity="0.7" d="M210.17 86.6194C213.08 84.9394 215.44 86.2994 215.44 89.6194C215.341 91.4484 214.812 93.2282 213.897 94.8146C212.981 96.4009 211.704 97.749 210.17 98.7494C207.26 100.429 204.9 99.0694 204.9 95.7494C204.999 93.9204 205.527 92.1406 206.443 90.5542C207.359 88.9679 208.636 87.6198 210.17 86.6194Z" fill="white"/>
<path opacity="0.7" d="M220.439 104.539C220.439 99.0191 216.569 96.7791 211.779 99.5391L208.779 101.269C203.999 104.029 200.119 110.749 200.119 116.269V117.759C202.889 118.669 206.369 118.179 210.119 115.989C214.273 113.426 217.786 109.948 220.389 105.819L220.439 104.539Z" fill="white"/>
<path d="M178.73 138.84L199.64 126.77C200.64 126.22 201.37 126.66 201.37 127.77V128.46C201.338 129.061 201.165 129.646 200.865 130.167C200.564 130.689 200.144 131.132 199.64 131.46L178.73 143.53C177.78 144.08 177 143.63 177 142.53V141.84C177.032 141.239 177.206 140.654 177.507 140.133C177.807 139.612 178.226 139.169 178.73 138.84Z" fill="#795ADE" fill-opacity="0.870588"/>
<path opacity="0.1" d="M178.73 138.84L199.64 126.77C200.64 126.22 201.37 126.66 201.37 127.77V128.46C201.338 129.061 201.165 129.646 200.865 130.167C200.564 130.689 200.144 131.132 199.64 131.46L178.73 143.53C177.78 144.08 177 143.63 177 142.53V141.84C177.032 141.239 177.206 140.654 177.507 140.133C177.807 139.612 178.226 139.169 178.73 138.84Z" fill="black"/>
<path d="M177.87 153.411L241.13 116.891C241.6 116.611 241.99 116.831 241.99 117.391V124.771C241.972 125.07 241.886 125.362 241.736 125.622C241.587 125.882 241.38 126.104 241.13 126.271L177.87 162.791C177.39 163.071 177 162.841 177 162.291V154.911C177.017 154.61 177.105 154.318 177.256 154.057C177.407 153.797 177.617 153.575 177.87 153.411Z" fill="#795ADE" fill-opacity="0.870588"/>
<path opacity="0.2" d="M177.87 153.411L241.13 116.891C241.6 116.611 241.99 116.831 241.99 117.391V124.771C241.972 125.07 241.886 125.362 241.736 125.622C241.587 125.882 241.38 126.104 241.13 126.271L177.87 162.791C177.39 163.071 177 162.841 177 162.291V154.911C177.017 154.61 177.105 154.318 177.256 154.057C177.407 153.797 177.617 153.575 177.87 153.411Z" fill="white"/>
<path d="M178.73 171.67L199.64 159.6C200.64 159.05 201.37 159.5 201.37 160.6V161.29C201.339 161.891 201.166 162.476 200.866 162.998C200.565 163.519 200.145 163.962 199.64 164.29L178.73 176.36C177.78 176.92 177 176.47 177 175.36V174.67C177.034 174.07 177.208 173.485 177.509 172.964C177.809 172.444 178.227 172 178.73 171.67Z" fill="#795ADE" fill-opacity="0.870588"/>
<path opacity="0.1" d="M178.73 171.67L199.64 159.6C200.64 159.05 201.37 159.5 201.37 160.6V161.29C201.339 161.891 201.166 162.476 200.866 162.998C200.565 163.519 200.145 163.962 199.64 164.29L178.73 176.36C177.78 176.92 177 176.47 177 175.36V174.67C177.034 174.07 177.208 173.485 177.509 172.964C177.809 172.444 178.227 172 178.73 171.67Z" fill="black"/>
<path d="M177.87 186.239L241.13 149.719C241.6 149.439 241.99 149.669 241.99 150.219V157.599C241.972 157.898 241.886 158.19 241.736 158.45C241.587 158.71 241.38 158.932 241.13 159.099L177.87 195.619C177.39 195.899 177 195.679 177 195.119V187.739C177.017 187.438 177.105 187.146 177.256 186.885C177.407 186.625 177.617 186.403 177.87 186.239Z" fill="#795ADE" fill-opacity="0.870588"/>
<path opacity="0.2" d="M177.87 186.239L241.13 149.719C241.6 149.439 241.99 149.669 241.99 150.219V157.599C241.972 157.898 241.886 158.19 241.736 158.45C241.587 158.71 241.38 158.932 241.13 159.099L177.87 195.619C177.39 195.899 177 195.679 177 195.119V187.739C177.017 187.438 177.105 187.146 177.256 186.885C177.407 186.625 177.617 186.403 177.87 186.239Z" fill="white"/>
<path d="M203.099 190.43L228.099 176.02C229.099 175.46 229.839 175.91 229.839 177.02V184.74C229.806 185.342 229.631 185.927 229.329 186.449C229.027 186.97 228.605 187.413 228.099 187.74L203.099 202.16C202.099 202.71 201.369 202.26 201.369 201.16V193.43C201.404 192.83 201.578 192.246 201.879 191.725C202.179 191.204 202.597 190.761 203.099 190.43Z" fill="#795ADE" fill-opacity="0.870588"/>
<path opacity="0.1" d="M203.099 190.43L228.099 176.02C229.099 175.46 229.839 175.91 229.839 177.02V184.74C229.806 185.342 229.631 185.927 229.329 186.449C229.027 186.97 228.605 187.413 228.099 187.74L203.099 202.16C202.099 202.71 201.369 202.26 201.369 201.16V193.43C201.404 192.83 201.578 192.246 201.879 191.725C202.179 191.204 202.597 190.761 203.099 190.43Z" fill="black"/>
<path d="M262.299 157.851C262.299 157.851 250.019 140.911 249.299 138.851C248.729 137.331 249.299 135.071 249.479 134.021C249.659 132.971 249.819 130.631 249.999 130.021C250.299 128.881 248.829 129.111 247.999 130.151C247.169 131.191 246.889 133.271 246.459 133.611C246.029 133.951 242.759 129.181 241.049 126.981C239.339 124.781 238.269 123.441 237.219 124.261C236.469 124.851 237.029 126.131 238.269 128.011C238.993 129.023 239.661 130.075 240.269 131.161C240.459 131.571 239.439 131.601 238.889 132.451C238.459 133.111 238.889 134.181 238.289 134.691C237.92 134.972 237.667 135.379 237.578 135.834C237.49 136.29 237.572 136.762 237.809 137.161C238.922 138.909 240.358 140.429 242.039 141.641C243.879 142.911 244.619 143.361 245.709 145.091C246.799 146.821 256.579 164.491 257.239 165.551C257.899 166.611 259.169 168.771 261.099 168.831C263.029 168.891 278.829 155.291 279.639 154.611C282.239 152.441 283.069 152.131 283.509 154.081C283.661 154.774 283.774 155.475 283.849 156.181C284.159 158.661 285.849 167.521 285.849 167.521C285.849 167.521 293.849 171.391 300.419 169.521C306.989 167.651 309.209 164.861 309.209 164.861L305.919 159.501C306.809 157.291 310.919 148.331 312.249 142.061L291.649 138.731C291.229 138.641 290.549 138.471 289.649 138.241C288.519 137.941 285.649 136.951 283.479 138.851C276.399 145.021 262.319 157.851 262.319 157.851" fill="#FFA8A7"/>
<path d="M303.139 261.791L299.449 266.921C301.126 267.704 302.958 268.097 304.809 268.071C308.119 268.191 309.029 267.071 309.149 266.851C309.709 265.651 308.839 263.491 308.599 261.631L303.139 261.791Z" fill="#37474F"/>
<path d="M299.659 264.46C299.659 264.46 295.179 264.17 292.089 263.79C288.999 263.41 286.549 264.91 287.269 266.18C287.989 267.45 289.699 268.51 292.359 269.4C294.629 270.17 297.359 270.72 299.719 271.4C302.079 272.08 303.719 272.97 305.089 272.49C306.619 271.96 307.279 271.35 307.149 270.23C306.815 268.637 306.401 267.062 305.909 265.51L299.659 264.46Z" fill="#37474F"/>
<path d="M309.15 256.64C309.15 256.64 308.59 261.3 308.55 262.3C308.51 263.3 304 263.62 303.14 261.79L303 256.09L309.15 256.64Z" fill="#F28F8F"/>
<path d="M304.611 259.5L306.221 266.58C306.221 266.58 306.371 267.44 302.691 267.99C299.011 268.54 293.231 266.06 292.241 265.56C291.251 265.06 291.141 264.05 294.761 264.25C298.381 264.45 299.661 264.46 299.661 264.46L298.481 261.33L304.611 259.5Z" fill="#FFA8A7"/>
<path d="M312.189 141.999L314.739 141.289C314.739 141.289 320.069 158.159 320.659 159.789C321.249 161.419 321.919 163.139 320.769 165.149C319.399 167.539 312.189 177.149 312.189 177.149L307.609 172.669L312.809 163.149L308.209 153.849L312.189 141.999Z" fill="#F28F8F"/>
<path d="M286 120.089C285.402 118.967 285.099 117.711 285.118 116.44C285.137 115.168 285.479 113.923 286.11 112.819C288.65 108.109 294.31 105.819 301.05 106.689C304.17 107.099 307.85 109.689 309.86 113.559C312.08 117.849 312.29 126.489 312.86 129.759L286 120.089Z" fill="#37474F"/>
<path d="M285.82 121.939C285.82 121.939 284.22 124.989 284.5 125.269C284.915 125.511 285.368 125.68 285.84 125.769L285.82 121.939Z" fill="#FFA8A7"/>
<path d="M290.68 112.3C288.94 113.43 285.94 115.51 285.81 122.36C285.67 129.36 286.67 131.67 287.71 132.48C288.41 133.03 292.52 132.75 294.28 132.34C296.04 131.93 301.11 129.42 302.94 125.61C305.09 121.13 304.65 114.61 301.46 112.61C299.836 111.65 297.996 111.118 296.11 111.063C294.225 111.009 292.356 111.435 290.68 112.3Z" fill="#FFA8A7"/>
<path d="M309.15 164.82C312.23 169.62 315.15 173.82 315.79 179.24C317.11 190.63 312.79 203.65 311.86 212.08C313.609 214.478 314.617 217.335 314.76 220.3C314.76 223.79 309.15 256.64 309.15 256.64C309.15 256.64 305.07 257.88 303 256.09L299.15 195.66L301.15 188.3L309.15 164.82Z" fill="#795ADE" fill-opacity="0.870588"/>
<path opacity="0.2" d="M309.15 164.82C312.23 169.62 315.15 173.82 315.79 179.24C317.11 190.63 312.79 203.65 311.86 212.08C313.609 214.478 314.617 217.335 314.76 220.3C314.76 223.79 309.15 256.64 309.15 256.64C309.15 256.64 305.07 257.88 303 256.09L299.15 195.66L301.15 188.3L309.15 164.82Z" fill="black"/>
<path d="M299.15 195.66L301.15 188.3C304.979 187.292 308.673 185.825 312.15 183.93C312.15 183.93 310.07 187.72 304.09 189.8L301 199.25L300.74 220.9L299.15 195.66Z" fill="#795ADE" fill-opacity="0.870588"/>
<path opacity="0.3" d="M299.15 195.66L301.15 188.3C304.979 187.292 308.673 185.825 312.15 183.93C312.15 183.93 310.07 187.72 304.09 189.8L301 199.25L300.74 220.9L299.15 195.66Z" fill="black"/>
<path d="M309.149 164.82C310.799 167.52 314.739 172.12 313.899 176.55C312.899 181.91 309.999 185.68 301.179 188.3L292.899 218.3C292.899 218.3 297.209 222.3 298.529 226.17C299.849 230.04 304.609 259.52 304.609 259.52C304.609 259.52 303.129 261.93 298.479 261.35C298.479 261.35 282.269 224.35 281.129 221.94C279.745 219.499 279.261 216.651 279.759 213.89C280.269 210.01 285.759 167.54 285.759 167.54L309.149 164.82Z" fill="#795ADE" fill-opacity="0.870588"/>
<path opacity="0.2" d="M309.149 164.82C310.799 167.52 314.739 172.12 313.899 176.55C312.899 181.91 309.999 185.68 301.179 188.3L292.899 218.3C292.899 218.3 297.209 222.3 298.529 226.17C299.849 230.04 304.609 259.52 304.609 259.52C304.609 259.52 303.129 261.93 298.479 261.35C298.479 261.35 282.269 224.35 281.129 221.94C279.745 219.499 279.261 216.651 279.759 213.89C280.269 210.01 285.759 167.54 285.759 167.54L309.149 164.82Z" fill="black"/>
<path d="M312.19 142L291.59 138.67C291.17 138.58 290.49 138.41 289.59 138.18C289.59 138.18 288.71 151.1 283.42 154.06C283.55 154.68 283.66 155.37 283.76 156.16C284.07 158.64 285.76 167.5 285.76 167.5C285.76 167.5 293.76 171.37 300.33 169.5C306.9 167.63 309.12 164.84 309.12 164.84L305.83 159.48C306.75 157.25 310.89 148.29 312.19 142Z" fill="#795ADE" fill-opacity="0.870588"/>
<path opacity="0.7" d="M312.19 142L291.59 138.67C291.17 138.58 290.49 138.41 289.59 138.18C289.59 138.18 288.71 151.1 283.42 154.06C283.55 154.68 283.66 155.37 283.76 156.16C284.07 158.64 285.76 167.5 285.76 167.5C285.76 167.5 293.76 171.37 300.33 169.5C306.9 167.63 309.12 164.84 309.12 164.84L305.83 159.48C306.75 157.25 310.89 148.29 312.19 142Z" fill="white"/>
<path d="M306.759 157.35C304.023 158.993 301.157 160.407 298.189 161.58C300.883 161.526 303.52 160.797 305.859 159.46L306.759 157.35Z" fill="#795ADE" fill-opacity="0.870588"/>
<path d="M290.169 112.64C290.169 112.64 289.169 119.14 291.529 122.96C291.529 122.96 292.409 120.37 294.599 120.86C296.789 121.35 296.909 124.24 295.369 125.86C294.977 126.314 294.466 126.649 293.893 126.826C293.32 127.003 292.708 127.015 292.129 126.86C292.129 126.86 291.779 131.56 291.589 135.5C291.399 139.44 290.359 148.03 294.789 151.5C299.219 154.97 310.339 156.19 315.549 148.91C318.449 144.86 314.599 137.7 312.809 129.67C311.159 122.29 310.229 111.35 302.399 109.59C294.569 107.83 290.169 112.64 290.169 112.64Z" fill="#37474F"/>
<path d="M318.9 23.8306L317.25 24.8306C317.389 24.2435 317.466 23.6436 317.48 23.0406C317.48 19.6906 315.13 18.3406 312.23 20.0406C311.348 20.5729 310.56 21.2489 309.9 22.0406C309.9 17.5406 306.74 15.7106 302.84 17.9606C300.785 19.3008 299.075 21.1067 297.848 23.2316C296.621 25.3565 295.913 27.7406 295.78 30.1906C295.78 30.4206 295.78 30.6406 295.78 30.8606C294.775 30.7342 293.759 30.968 292.91 31.5206C291.382 32.5163 290.11 33.8583 289.198 35.4377C288.286 37.0171 287.759 38.7894 287.66 40.6106C287.66 41.0339 287.703 41.4562 287.79 41.8706L286.91 42.3806C284.52 43.7606 282.58 46.4506 282.58 48.3806C282.58 50.3106 284.52 50.7706 286.91 49.3806L318.91 30.9306C321.3 29.5506 323.24 26.8606 323.24 24.9306C323.24 23.0006 321.29 22.4406 318.9 23.8306Z" fill="#EBEBEB"/>
</g>
<defs>
<clipPath id="clip0_244_17893">
<rect width="354" height="328" fill="white"/>
</clipPath>
</defs>
</svg>
