<svg width="421" height="446" viewBox="0 0 421 446" fill="none" xmlns="http://www.w3.org/2000/svg">
<g clip-path="url(#clip0_244_18098)">
<path d="M377.827 67.6843C352.08 3.58888 290.279 -20.5443 241.518 22.491C222.476 39.2803 210.596 66.0008 187.281 76.7229C165.405 86.7784 137.692 83.8183 114.035 89.2641C63.6591 100.788 -4.16452 144.513 1.0097 211.885C3.27601 241.396 21.5099 274.172 30.5234 301.785C40.8718 333.556 47.0809 373.304 74.4732 392.296C121.434 424.903 178.082 398.25 220.386 371.959C243.153 357.825 255.685 349.137 280.2 353.984C302.894 358.503 323.332 374.321 345.509 355.554C362.16 341.465 363.536 312.914 377.517 296.147C393.267 277.257 409.235 275.89 417.42 247.497C427.345 213.048 412.722 191.525 402.839 160.748C392.957 129.972 389.956 97.8395 377.827 67.6843Z" fill="#795ADE"/>
<g opacity="0.7">
<path d="M377.827 67.6843C352.08 3.58888 290.279 -20.5443 241.518 22.491C222.476 39.2803 210.596 66.0008 187.281 76.7229C165.405 86.7784 137.692 83.8183 114.035 89.2641C63.6591 100.788 -4.16452 144.513 1.0097 211.885C3.27601 241.396 21.5099 274.172 30.5234 301.785C40.8718 333.556 47.0809 373.304 74.4732 392.296C121.434 424.903 178.082 398.25 220.386 371.959C243.153 357.825 255.685 349.137 280.2 353.984C302.894 358.503 323.332 374.321 345.509 355.554C362.16 341.465 363.536 312.914 377.517 296.147C393.267 277.257 409.235 275.89 417.42 247.497C427.345 213.048 412.722 191.525 402.839 160.748C392.957 129.972 389.956 97.8395 377.827 67.6843Z" fill="white"/>
</g>
<path d="M181.91 445.815C270.256 445.815 341.876 440.944 341.876 434.935C341.876 428.926 270.256 424.055 181.91 424.055C93.5627 424.055 21.9434 428.926 21.9434 434.935C21.9434 440.944 93.5627 445.815 181.91 445.815Z" fill="#795ADE"/>
<path opacity="0.8" d="M181.91 445.815C270.256 445.815 341.876 440.944 341.876 434.935C341.876 428.926 270.256 424.055 181.91 424.055C93.5627 424.055 21.9434 428.926 21.9434 434.935C21.9434 440.944 93.5627 445.815 181.91 445.815Z" fill="white"/>
<path d="M302.117 21.2031H141.271C130.166 21.2031 121.164 31.0316 121.164 43.1557V413.899C121.164 426.023 130.166 435.851 141.271 435.851H302.117C313.222 435.851 322.224 426.023 322.224 413.899V43.1557C322.224 31.0316 313.222 21.2031 302.117 21.2031Z" fill="#263238"/>
<path d="M313.284 66.7344H130.096V390.318H313.284V66.7344Z" fill="white" stroke="#263238" stroke-width="1.33739" stroke-miterlimit="10"/>
<path d="M249.773 197.763C265.28 180.833 265.28 153.385 249.773 136.455C234.266 119.525 209.125 119.525 193.619 136.455C178.112 153.385 178.112 180.834 193.619 197.763C209.125 214.693 234.266 214.693 249.773 197.763Z" fill="#795ADE"/>
<path d="M273.826 369.972H169.575C169.341 369.973 169.108 369.924 168.891 369.827C168.674 369.73 168.477 369.587 168.31 369.407C168.144 369.226 168.012 369.011 167.922 368.775C167.832 368.538 167.785 368.285 167.785 368.028C167.784 367.771 167.829 367.516 167.919 367.279C168.008 367.041 168.14 366.825 168.306 366.643C168.473 366.461 168.671 366.317 168.889 366.219C169.107 366.122 169.34 366.072 169.575 366.074H273.826C274.06 366.074 274.293 366.124 274.509 366.223C274.726 366.321 274.923 366.465 275.088 366.647C275.253 366.829 275.384 367.044 275.473 367.281C275.562 367.518 275.607 367.772 275.606 368.028C275.606 368.544 275.418 369.038 275.084 369.403C274.75 369.767 274.298 369.972 273.826 369.972Z" fill="#795ADE"/>
<path d="M277.22 234.832H166.171C163.879 234.832 162.021 236.86 162.021 239.362V253.655C162.021 256.157 163.879 258.185 166.171 258.185H277.22C279.512 258.185 281.37 256.157 281.37 253.655V239.362C281.37 236.86 279.512 234.832 277.22 234.832Z" fill="#795ADE"/>
<path d="M277.22 278.512H166.171C163.879 278.512 162.021 280.54 162.021 283.042V297.335C162.021 299.837 163.879 301.865 166.171 301.865H277.22C279.512 301.865 281.37 299.837 281.37 297.335V283.042C281.37 280.54 279.512 278.512 277.22 278.512Z" fill="#795ADE"/>
<path d="M241.467 188.735L229.783 181.392V175.324C231.475 173.09 232.7 170.48 233.374 167.675C233.776 167.831 234.2 167.912 234.626 167.913C236.075 167.913 236.996 163.009 237.151 159.507C238.838 155.609 236.541 153.327 236.541 153.327C236.541 153.327 237.493 152.287 238.124 148.118C238.755 143.949 235.899 145.689 233.674 141.87C231.449 138.051 229.856 133.893 222.55 133.893C220.537 133.821 218.55 134.412 216.849 135.588C215.147 136.765 213.809 138.474 213.009 140.492C211.19 140.499 209.378 140.73 207.607 141.181C205.371 141.87 204.74 149.858 206.644 152.988C207.497 154.698 207.951 156.611 207.969 158.558C207.462 157.88 206.934 157.699 206.644 159.236C206.013 162.704 208.559 167.562 208.559 167.562L209.873 167.156C210.535 170.152 211.812 172.946 213.609 175.324V181.392L201.925 188.735C200.561 189.596 199.428 190.832 198.639 192.322C197.851 193.811 197.435 195.5 197.434 197.22V201.423C204.383 207.284 212.915 210.463 221.696 210.463C230.477 210.463 239.009 207.284 245.958 201.423V197.22C245.959 195.5 245.544 193.81 244.755 192.32C243.967 190.83 242.833 189.594 241.467 188.735Z" fill="#263238"/>
<path d="M177.14 296.058C176.872 296.054 176.616 295.937 176.426 295.731C176.324 295.631 176.243 295.509 176.187 295.373C176.132 295.237 176.104 295.089 176.105 294.94C176.108 294.736 176.162 294.537 176.26 294.364L178.123 291.11L174.491 291.234C174.354 291.243 174.217 291.221 174.088 291.168C173.96 291.116 173.843 291.034 173.746 290.929C173.577 290.722 173.484 290.455 173.484 290.177C173.484 289.9 173.577 289.633 173.746 289.426C173.841 289.317 173.957 289.232 174.086 289.177C174.215 289.123 174.353 289.1 174.491 289.11L178.071 289.257L176.229 286.014C176.129 285.838 176.075 285.634 176.074 285.427C176.073 285.277 176.101 285.13 176.156 284.993C176.212 284.857 176.293 284.735 176.395 284.636C176.585 284.43 176.841 284.312 177.109 284.308C177.285 284.309 177.458 284.365 177.606 284.469C177.754 284.573 177.873 284.721 177.947 284.896L179.717 288.387L181.466 284.918C181.549 284.733 181.676 284.576 181.835 284.465C181.994 284.353 182.177 284.291 182.366 284.285C182.497 284.286 182.626 284.317 182.745 284.375C182.865 284.434 182.972 284.518 183.059 284.624C183.249 284.839 183.353 285.128 183.349 285.427C183.348 285.621 183.302 285.811 183.214 285.98L181.341 289.257L184.974 289.11C185.112 289.1 185.25 289.123 185.379 289.177C185.507 289.232 185.623 289.317 185.719 289.426C185.895 289.626 185.992 289.894 185.988 290.172C185.987 290.452 185.891 290.722 185.719 290.929C185.621 291.034 185.505 291.116 185.376 291.168C185.248 291.221 185.111 291.243 184.974 291.234L181.321 291.11L183.142 294.33C183.244 294.509 183.298 294.717 183.297 294.928C183.297 295.228 183.188 295.515 182.994 295.727C182.8 295.939 182.537 296.058 182.262 296.058C182.085 296.056 181.912 295.997 181.765 295.888C181.618 295.78 181.503 295.627 181.435 295.448L179.706 292.059L177.988 295.448C177.912 295.625 177.793 295.776 177.643 295.884C177.493 295.991 177.319 296.052 177.14 296.058Z" fill="#263238"/>
<path d="M193.925 296.058C193.657 296.054 193.401 295.937 193.211 295.731C193.109 295.631 193.028 295.509 192.973 295.373C192.917 295.237 192.889 295.089 192.89 294.94C192.893 294.736 192.947 294.537 193.046 294.364L194.908 291.11L191.286 291.234C191.148 291.241 191.01 291.217 190.88 291.165C190.751 291.113 190.632 291.032 190.531 290.929C190.394 290.774 190.302 290.578 190.268 290.366C190.234 290.153 190.26 289.935 190.341 289.739C190.423 289.542 190.557 289.377 190.725 289.265C190.894 289.153 191.089 289.099 191.286 289.11L194.857 289.257L193.014 286.014C192.914 285.838 192.861 285.634 192.859 285.427C192.858 285.277 192.886 285.13 192.942 284.993C192.997 284.857 193.078 284.735 193.18 284.636C193.37 284.43 193.626 284.312 193.894 284.308C194.07 284.309 194.243 284.365 194.391 284.469C194.54 284.573 194.658 284.721 194.732 284.896L196.502 288.387L198.251 284.918C198.334 284.733 198.461 284.576 198.62 284.465C198.779 284.353 198.962 284.291 199.151 284.285C199.282 284.285 199.412 284.315 199.531 284.373C199.651 284.432 199.758 284.517 199.844 284.624C199.94 284.73 200.016 284.855 200.068 284.993C200.119 285.13 200.145 285.278 200.145 285.427C200.141 285.622 200.091 285.812 200 285.98L198.127 289.257L201.769 289.132C201.906 289.122 202.042 289.146 202.169 289.2C202.296 289.255 202.411 289.34 202.504 289.449C202.68 289.649 202.777 289.917 202.773 290.194C202.772 290.474 202.677 290.744 202.504 290.951C202.409 291.056 202.294 291.138 202.167 291.191C202.04 291.243 201.905 291.266 201.769 291.257L198.106 291.132L199.927 294.352C200.029 294.532 200.083 294.74 200.082 294.951C200.082 295.251 199.973 295.538 199.779 295.75C199.585 295.962 199.322 296.081 199.048 296.081C198.87 296.078 198.697 296.019 198.55 295.911C198.403 295.802 198.288 295.649 198.22 295.471L196.492 292.081L194.774 295.471C194.695 295.644 194.574 295.79 194.424 295.893C194.275 295.997 194.102 296.054 193.925 296.058Z" fill="#263238"/>
<path d="M210.721 296.058C210.449 296.057 210.189 295.939 209.996 295.731C209.895 295.631 209.813 295.509 209.758 295.373C209.703 295.237 209.675 295.089 209.676 294.94C209.679 294.736 209.732 294.537 209.831 294.364L211.694 291.11L208.072 291.234C207.877 291.242 207.684 291.187 207.517 291.076C207.351 290.964 207.219 290.801 207.138 290.607C207.057 290.413 207.031 290.197 207.062 289.987C207.094 289.777 207.182 289.581 207.316 289.426C207.414 289.317 207.532 289.233 207.662 289.178C207.793 289.124 207.932 289.1 208.072 289.11L211.642 289.257L209.8 286.014C209.7 285.838 209.646 285.634 209.645 285.427C209.648 285.278 209.678 285.132 209.733 284.996C209.788 284.861 209.867 284.738 209.965 284.636C210.158 284.427 210.418 284.309 210.69 284.308C210.864 284.311 211.035 284.368 211.181 284.472C211.327 284.576 211.444 284.723 211.518 284.896L213.287 288.387L215.036 284.918C215.119 284.733 215.247 284.576 215.406 284.465C215.564 284.353 215.748 284.291 215.936 284.285C216.067 284.285 216.197 284.315 216.317 284.373C216.436 284.432 216.543 284.517 216.63 284.624C216.726 284.73 216.802 284.855 216.853 284.993C216.905 285.13 216.931 285.278 216.93 285.427C216.926 285.622 216.876 285.812 216.785 285.98L214.912 289.257L218.555 289.11C218.689 289.095 218.824 289.112 218.951 289.159C219.079 289.207 219.195 289.283 219.293 289.384C219.391 289.484 219.469 289.607 219.52 289.743C219.571 289.879 219.595 290.025 219.589 290.172C219.592 290.45 219.499 290.72 219.331 290.929C219.233 291.034 219.116 291.116 218.988 291.168C218.86 291.221 218.723 291.243 218.586 291.234L214.933 291.11L216.744 294.33C216.846 294.509 216.899 294.717 216.899 294.928C216.896 295.077 216.866 295.223 216.811 295.359C216.755 295.494 216.676 295.617 216.578 295.719C216.488 295.825 216.379 295.91 216.258 295.968C216.137 296.026 216.007 296.057 215.874 296.058C215.698 296.055 215.527 295.995 215.382 295.887C215.237 295.779 215.124 295.626 215.057 295.448L213.318 292.059L211.6 295.448C211.523 295.631 211.399 295.786 211.243 295.894C211.087 296.003 210.906 296.06 210.721 296.058Z" fill="#263238"/>
<path d="M227.507 296.058C227.235 296.057 226.975 295.939 226.782 295.731C226.587 295.522 226.476 295.238 226.472 294.94C226.469 294.737 226.519 294.537 226.617 294.364L228.479 291.11L224.858 291.234C224.719 291.241 224.581 291.217 224.452 291.165C224.322 291.113 224.203 291.032 224.102 290.929C223.933 290.722 223.84 290.455 223.84 290.178C223.84 289.9 223.933 289.633 224.102 289.426C224.202 289.321 224.321 289.238 224.45 289.184C224.58 289.13 224.719 289.104 224.858 289.11L228.438 289.257L226.606 286.014C226.506 285.838 226.452 285.634 226.451 285.427C226.454 285.278 226.484 285.132 226.54 284.996C226.595 284.861 226.674 284.738 226.772 284.636C226.965 284.427 227.225 284.309 227.496 284.308C227.673 284.309 227.845 284.365 227.993 284.469C228.142 284.573 228.26 284.721 228.335 284.896L230.094 288.387L231.843 284.918C231.926 284.733 232.053 284.576 232.212 284.465C232.371 284.353 232.554 284.291 232.743 284.285C232.874 284.285 233.004 284.315 233.123 284.373C233.243 284.432 233.35 284.517 233.436 284.624C233.532 284.73 233.608 284.855 233.66 284.993C233.711 285.13 233.737 285.278 233.737 285.427C233.733 285.622 233.683 285.812 233.592 285.98L231.719 289.257L235.361 289.11C235.495 289.095 235.63 289.112 235.758 289.159C235.885 289.207 236.002 289.283 236.1 289.384C236.198 289.484 236.275 289.607 236.326 289.743C236.377 289.879 236.401 290.025 236.396 290.172C236.398 290.45 236.306 290.72 236.137 290.929C236.04 291.034 235.923 291.116 235.795 291.168C235.666 291.221 235.529 291.243 235.392 291.234L231.739 291.11L233.55 294.33C233.652 294.509 233.706 294.717 233.705 294.928C233.706 295.078 233.678 295.225 233.623 295.362C233.568 295.498 233.486 295.62 233.385 295.719C233.295 295.825 233.186 295.91 233.065 295.968C232.944 296.026 232.813 296.057 232.681 296.058C232.505 296.055 232.334 295.995 232.188 295.887C232.043 295.779 231.93 295.626 231.863 295.448L230.125 292.059L228.407 295.448C228.328 295.635 228.201 295.792 228.041 295.901C227.881 296.009 227.695 296.064 227.507 296.058Z" fill="#263238"/>
<path d="M244.29 296.058C244.018 296.057 243.758 295.939 243.566 295.731C243.405 295.553 243.303 295.323 243.275 295.076C243.247 294.829 243.294 294.578 243.41 294.364L245.263 291.11L241.641 291.234C241.502 291.241 241.364 291.217 241.235 291.165C241.105 291.113 240.986 291.032 240.885 290.929C240.716 290.722 240.623 290.455 240.623 290.178C240.623 289.9 240.716 289.633 240.885 289.426C240.985 289.321 241.104 289.238 241.233 289.184C241.363 289.13 241.502 289.104 241.641 289.11L245.221 289.257L243.379 286.014C243.279 285.838 243.225 285.634 243.224 285.427C243.228 285.129 243.339 284.844 243.534 284.636C243.727 284.427 243.987 284.309 244.259 284.308C244.435 284.309 244.608 284.365 244.756 284.469C244.904 284.573 245.023 284.721 245.097 284.896L246.856 288.387L248.605 284.918C248.688 284.733 248.816 284.576 248.975 284.465C249.133 284.353 249.317 284.291 249.505 284.285C249.638 284.285 249.769 284.315 249.89 284.373C250.012 284.431 250.12 284.517 250.209 284.624C250.399 284.839 250.503 285.128 250.499 285.427C250.495 285.622 250.445 285.812 250.354 285.98L248.481 289.257L252.124 289.11C252.258 289.095 252.393 289.112 252.52 289.159C252.648 289.207 252.764 289.283 252.862 289.384C252.961 289.484 253.038 289.607 253.089 289.743C253.14 289.879 253.164 290.025 253.158 290.172C253.161 290.45 253.069 290.72 252.9 290.929C252.802 291.034 252.686 291.116 252.557 291.168C252.429 291.221 252.292 291.243 252.155 291.234L248.502 291.11L250.313 294.33C250.415 294.509 250.469 294.717 250.468 294.928C250.469 295.078 250.441 295.225 250.386 295.362C250.33 295.498 250.249 295.62 250.147 295.719C250.057 295.825 249.948 295.91 249.827 295.968C249.706 296.026 249.576 296.057 249.443 296.058C249.267 296.055 249.096 295.995 248.951 295.887C248.806 295.779 248.693 295.626 248.626 295.448L246.887 292.059L245.17 295.448C245.092 295.631 244.968 295.786 244.812 295.894C244.656 296.003 244.475 296.06 244.29 296.058Z" fill="#263238"/>
<path d="M261.077 296.058C260.809 296.054 260.553 295.937 260.363 295.731C260.261 295.631 260.18 295.509 260.125 295.373C260.069 295.237 260.041 295.089 260.042 294.94C260.046 294.736 260.099 294.537 260.198 294.364L262.05 291.11L258.428 291.234C258.295 291.245 258.161 291.225 258.035 291.177C257.909 291.128 257.794 291.052 257.696 290.952C257.599 290.852 257.522 290.731 257.47 290.597C257.417 290.462 257.391 290.318 257.393 290.172C257.393 290.034 257.417 289.897 257.465 289.769C257.513 289.641 257.583 289.524 257.673 289.426C257.768 289.317 257.884 289.232 258.013 289.177C258.142 289.123 258.28 289.1 258.418 289.11L261.998 289.257L260.156 286.014C260.056 285.838 260.002 285.634 260.001 285.427C260.005 285.129 260.116 284.844 260.311 284.636C260.504 284.427 260.764 284.309 261.036 284.308C261.212 284.309 261.385 284.365 261.533 284.469C261.681 284.573 261.8 284.721 261.874 284.896L263.633 288.387L265.393 284.918C265.475 284.735 265.601 284.579 265.757 284.468C265.914 284.356 266.096 284.293 266.282 284.285C266.415 284.285 266.546 284.315 266.667 284.373C266.789 284.431 266.897 284.517 266.986 284.624C267.176 284.839 267.28 285.128 267.276 285.427C267.275 285.621 267.229 285.811 267.141 285.98L265.268 289.257L268.901 289.11C269.038 289.1 269.177 289.123 269.305 289.177C269.434 289.232 269.55 289.317 269.646 289.426C269.822 289.626 269.919 289.894 269.915 290.172C269.914 290.452 269.818 290.722 269.646 290.929C269.548 291.034 269.431 291.116 269.303 291.168C269.175 291.221 269.038 291.243 268.901 291.234L265.248 291.11L267.059 294.33C267.161 294.509 267.214 294.717 267.214 294.928C267.21 295.226 267.098 295.511 266.903 295.719C266.715 295.929 266.459 296.051 266.189 296.058C266.013 296.055 265.842 295.995 265.697 295.887C265.552 295.779 265.439 295.626 265.372 295.448L263.633 292.059L261.915 295.448C261.841 295.625 261.723 295.775 261.575 295.883C261.427 295.99 261.255 296.051 261.077 296.058Z" fill="#263238"/>
<g style="mix-blend-mode:multiply">
<path d="M313.284 67.1641H130.096V79.6939H313.284V67.1641Z" fill="#795ADE"/>
</g>
<path d="M241.612 44.0805H201.77C201.051 44.0805 200.362 43.7687 199.853 43.2135C199.345 42.6584 199.059 41.9055 199.059 41.1204C199.059 40.3353 199.345 39.5824 199.853 39.0272C200.362 38.4721 201.051 38.1602 201.77 38.1602H241.612C242.331 38.1602 243.021 38.4721 243.529 39.0272C244.038 39.5824 244.323 40.3353 244.323 41.1204C244.323 41.9055 244.038 42.6584 243.529 43.2135C243.021 43.7687 242.331 44.0805 241.612 44.0805Z" fill="#795ADE" stroke="#263238" stroke-width="1.33739" stroke-linecap="round" stroke-linejoin="round"/>
<path d="M232.557 408.601C232.559 406.253 231.923 403.958 230.73 402.006C229.537 400.053 227.84 398.531 225.854 397.631C223.868 396.732 221.682 396.496 219.574 396.954C217.465 397.411 215.528 398.541 214.008 400.201C212.487 401.861 211.452 403.975 211.033 406.278C210.614 408.58 210.83 410.966 211.654 413.134C212.478 415.303 213.872 417.155 215.661 418.458C217.449 419.761 219.551 420.455 221.701 420.453C224.579 420.45 227.339 419.2 229.374 416.978C231.409 414.756 232.554 411.743 232.557 408.601Z" fill="#795ADE"/>
<path d="M227.206 402.59H216.195V414.612H227.206V402.59Z" fill="#795ADE" stroke="#263238" stroke-width="1.33739" stroke-linecap="round" stroke-linejoin="round"/>
<path d="M352.856 272.186C352.856 272.186 338.431 232.167 351.273 227.41C364.643 222.451 364.053 248.877 363.536 261.757C362.449 289.28 359.666 294.398 357.585 287.676L352.856 272.186ZM348.52 303.403C352.484 309.052 353.601 303.2 346.451 276.773C343.098 264.345 335.812 239.206 324.636 248.64C313.905 257.679 339.445 290.444 339.445 290.444L348.52 303.403ZM340.862 326.339C344.64 329.999 344.712 325.378 335.74 306.295C331.528 297.358 322.618 279.27 315.322 288.218C308.317 296.85 332.19 317.831 332.19 317.831L340.862 326.339ZM332.584 353.613C336.361 357.285 336.433 352.652 327.461 333.581C323.249 324.644 314.339 306.544 307.044 315.504C300.079 324.158 323.881 345.139 323.881 345.139L332.584 353.613ZM356.489 298.093C350.445 300.669 355.247 303.471 380.487 303.392C392.325 303.392 416.499 302.804 411.346 288.444C406.409 274.649 370.459 292.218 370.459 292.218L356.489 298.093ZM349.607 316.441C343.211 317.65 347.413 321.446 372.166 326.847C383.767 329.389 407.558 334.078 405.126 318.938C402.798 304.341 364.364 313.764 364.364 313.764L349.607 316.441ZM341.908 338.846C336.464 339.705 339.941 343.015 360.752 348.212C370.511 350.653 390.535 355.228 388.796 342.314C387.141 329.886 354.44 336.914 354.44 336.914L341.908 338.846ZM336.061 359.601C330.731 361.081 334.508 363.973 355.723 366.73C365.657 368.018 386.013 370.255 383.043 357.612C380.176 345.478 348.344 356.223 348.344 356.223L336.061 359.601ZM367.251 275.575C364.146 283.168 370.593 282.015 392.511 261.136C402.777 251.34 423.371 230.845 407.061 220.643C391.404 210.836 374.567 258.153 374.567 258.153L367.251 275.575ZM336.868 386.638C333.587 388.728 336.806 389.541 351.852 386.265C358.91 384.74 373.263 381.35 368.41 374.662C363.712 368.222 344.464 381.779 344.464 381.779L336.868 386.638Z" fill="#795ADE"/>
<path opacity="0.3" d="M352.856 272.186C352.856 272.186 338.431 232.167 351.273 227.41C364.643 222.451 364.053 248.877 363.536 261.757C362.449 289.28 359.666 294.398 357.585 287.676L352.856 272.186ZM348.52 303.403C352.484 309.052 353.601 303.2 346.451 276.773C343.098 264.345 335.812 239.206 324.636 248.64C313.905 257.679 339.445 290.444 339.445 290.444L348.52 303.403ZM340.862 326.339C344.64 329.999 344.712 325.378 335.74 306.295C331.528 297.358 322.618 279.27 315.322 288.218C308.317 296.85 332.19 317.831 332.19 317.831L340.862 326.339ZM332.584 353.613C336.361 357.285 336.433 352.652 327.461 333.581C323.249 324.644 314.339 306.544 307.044 315.504C300.079 324.158 323.881 345.139 323.881 345.139L332.584 353.613ZM356.489 298.093C350.445 300.669 355.247 303.471 380.487 303.392C392.325 303.392 416.499 302.804 411.346 288.444C406.409 274.649 370.459 292.218 370.459 292.218L356.489 298.093ZM349.607 316.441C343.211 317.65 347.413 321.446 372.166 326.847C383.767 329.389 407.558 334.078 405.126 318.938C402.798 304.341 364.364 313.764 364.364 313.764L349.607 316.441ZM341.908 338.846C336.464 339.705 339.941 343.015 360.752 348.212C370.511 350.653 390.535 355.228 388.796 342.314C387.141 329.886 354.44 336.914 354.44 336.914L341.908 338.846ZM336.061 359.601C330.731 361.081 334.508 363.973 355.723 366.73C365.657 368.018 386.013 370.255 383.043 357.612C380.176 345.478 348.344 356.223 348.344 356.223L336.061 359.601ZM367.251 275.575C364.146 283.168 370.593 282.015 392.511 261.136C402.777 251.34 423.371 230.845 407.061 220.643C391.404 210.836 374.567 258.153 374.567 258.153L367.251 275.575ZM336.868 386.638C333.587 388.728 336.806 389.541 351.852 386.265C358.91 384.74 373.263 381.35 368.41 374.662C363.712 368.222 344.464 381.779 344.464 381.779L336.868 386.638Z" fill="white"/>
<path d="M328.258 413.031C328.429 413.016 328.588 412.928 328.701 412.787C328.813 412.645 328.87 412.461 328.858 412.274C327.234 385.632 336.671 341.998 351.811 306.182C361.487 283.292 399.414 238.302 399.818 237.85C399.94 237.717 400.008 237.536 400.008 237.347C400.008 237.159 399.94 236.978 399.818 236.844C399.758 236.779 399.687 236.727 399.609 236.691C399.531 236.656 399.447 236.637 399.362 236.637C399.278 236.637 399.194 236.656 399.116 236.691C399.037 236.727 398.967 236.779 398.907 236.844C398.524 237.296 360.442 282.456 350.683 305.55C335.264 342.235 325.95 385.078 327.606 412.364C327.619 412.544 327.693 412.712 327.814 412.835C327.934 412.959 328.093 413.028 328.258 413.031ZM359.21 291.517C359.381 291.505 359.541 291.421 359.656 291.281C359.77 291.141 359.829 290.958 359.821 290.771L357.348 245.07C357.344 244.977 357.323 244.885 357.286 244.801C357.249 244.717 357.198 244.642 357.134 244.58C357.071 244.518 356.996 244.47 356.916 244.44C356.835 244.409 356.75 244.397 356.665 244.403C356.493 244.415 356.333 244.5 356.219 244.639C356.105 244.779 356.045 244.962 356.054 245.149L358.569 290.828C358.577 291.008 358.648 291.177 358.767 291.301C358.887 291.426 359.045 291.495 359.21 291.494V291.517ZM351.49 306.533C351.645 306.456 351.767 306.316 351.829 306.143C351.891 305.97 351.888 305.777 351.821 305.606L335.916 266.322C335.847 266.151 335.719 266.017 335.56 265.949C335.401 265.881 335.224 265.885 335.067 265.96C334.911 266.035 334.788 266.175 334.726 266.349C334.664 266.522 334.668 266.716 334.736 266.887L350.631 306.171C350.681 306.297 350.764 306.405 350.868 306.481C350.973 306.557 351.095 306.599 351.221 306.6C351.328 306.606 351.435 306.583 351.532 306.533H351.49ZM354.243 301.109L392.315 295.166C392.407 295.164 392.497 295.141 392.58 295.098C392.664 295.055 392.737 294.993 392.797 294.917C392.857 294.841 392.901 294.751 392.927 294.655C392.953 294.559 392.96 294.458 392.947 294.358C392.935 294.259 392.903 294.163 392.855 294.078C392.806 293.993 392.741 293.92 392.665 293.864C392.589 293.808 392.502 293.77 392.412 293.753C392.321 293.736 392.228 293.74 392.139 293.765L354.067 299.708C353.897 299.72 353.738 299.806 353.626 299.945C353.513 300.085 353.456 300.268 353.467 300.454C353.478 300.64 353.556 300.813 353.684 300.936C353.812 301.059 353.98 301.121 354.15 301.109H354.243ZM343.387 327.627C343.523 327.511 343.61 327.341 343.632 327.155C343.653 326.969 343.606 326.781 343.501 326.632L322.867 297.686C322.761 297.536 322.605 297.438 322.433 297.414C322.262 297.39 322.088 297.441 321.951 297.556C321.813 297.671 321.724 297.842 321.701 298.029C321.679 298.217 321.726 298.406 321.832 298.556L342.508 327.547C342.568 327.632 342.645 327.7 342.733 327.747C342.821 327.794 342.917 327.819 343.015 327.819C343.169 327.81 343.316 327.742 343.429 327.627H343.387ZM375.633 319.797C375.639 319.61 375.577 319.428 375.461 319.291C375.344 319.153 375.183 319.071 375.012 319.062L346.647 317.492C346.488 317.504 346.338 317.579 346.226 317.704C346.114 317.829 346.048 317.994 346.041 318.168C346.033 318.342 346.084 318.513 346.185 318.649C346.285 318.785 346.428 318.876 346.585 318.904L375.002 320.475C375.173 320.481 375.34 320.413 375.466 320.286C375.591 320.159 375.667 319.984 375.675 319.797H375.633ZM362.253 342.778C362.263 342.685 362.256 342.59 362.232 342.501C362.208 342.411 362.168 342.327 362.114 342.254C362.06 342.182 361.993 342.121 361.917 342.077C361.842 342.033 361.759 342.006 361.673 341.998L339.941 339.659C339.857 339.65 339.772 339.659 339.691 339.686C339.61 339.712 339.534 339.757 339.469 339.815C339.403 339.874 339.349 339.947 339.31 340.028C339.27 340.11 339.246 340.2 339.238 340.292C339.223 340.477 339.276 340.661 339.384 340.805C339.492 340.949 339.648 341.04 339.817 341.06L361.549 343.41H361.611C361.778 343.423 361.943 343.364 362.07 343.246C362.198 343.127 362.278 342.959 362.294 342.778H362.253ZM334.985 355.025C335.128 354.921 335.228 354.76 335.263 354.575C335.298 354.391 335.265 354.199 335.171 354.042L324.429 336.315C324.331 336.162 324.182 336.057 324.014 336.021C323.847 335.985 323.673 336.022 323.529 336.123C323.385 336.227 323.285 336.388 323.25 336.572C323.215 336.757 323.248 336.948 323.343 337.106L334.084 354.833C334.146 354.93 334.228 355.009 334.323 355.064C334.419 355.119 334.525 355.148 334.633 355.149C334.773 355.158 334.911 355.114 335.026 355.025H334.985ZM359.635 360.957C359.632 360.771 359.564 360.593 359.444 360.46C359.325 360.328 359.163 360.251 358.993 360.245L333.443 359.985C333.272 359.985 333.109 360.059 332.989 360.19C332.869 360.321 332.801 360.5 332.801 360.685C332.798 360.779 332.813 360.872 332.844 360.959C332.875 361.046 332.922 361.125 332.982 361.192C333.042 361.258 333.114 361.311 333.193 361.346C333.272 361.381 333.357 361.399 333.443 361.397L358.993 361.657C359.08 361.662 359.168 361.647 359.25 361.614C359.332 361.581 359.407 361.53 359.47 361.465C359.534 361.4 359.585 361.321 359.62 361.234C359.656 361.146 359.675 361.052 359.676 360.957H359.635ZM325.35 402.67C325.402 402.546 329.759 389.44 342.86 386.31C343.028 386.269 343.176 386.157 343.269 385.999C343.362 385.84 343.393 385.647 343.356 385.463C343.315 385.282 343.211 385.126 343.066 385.027C342.921 384.928 342.747 384.894 342.58 384.932C328.765 388.231 324.181 402.071 324.129 402.207C324.076 402.385 324.088 402.579 324.163 402.748C324.239 402.916 324.371 403.047 324.533 403.111H324.74C324.877 403.124 325.015 403.088 325.132 403.008C325.25 402.929 325.341 402.81 325.392 402.67H325.35ZM328.258 413.031C328.429 413.016 328.588 412.928 328.701 412.787C328.813 412.645 328.87 412.461 328.858 412.274C327.234 385.632 336.671 341.998 351.811 306.182C361.487 283.292 399.414 238.302 399.818 237.85C399.94 237.717 400.008 237.536 400.008 237.347C400.008 237.159 399.94 236.978 399.818 236.844C399.758 236.779 399.687 236.727 399.609 236.691C399.531 236.656 399.447 236.637 399.362 236.637C399.278 236.637 399.194 236.656 399.116 236.691C399.037 236.727 398.967 236.779 398.907 236.844C398.524 237.296 360.442 282.456 350.683 305.55C335.264 342.235 325.95 385.078 327.606 412.364C327.619 412.544 327.693 412.712 327.814 412.835C327.934 412.959 328.093 413.028 328.258 413.031ZM359.21 291.517C359.381 291.505 359.541 291.421 359.656 291.281C359.77 291.141 359.829 290.958 359.821 290.771L357.348 245.07C357.344 244.977 357.323 244.885 357.286 244.801C357.249 244.717 357.198 244.642 357.134 244.58C357.071 244.518 356.996 244.47 356.916 244.44C356.835 244.409 356.75 244.397 356.665 244.403C356.493 244.415 356.333 244.5 356.219 244.639C356.105 244.779 356.045 244.962 356.054 245.149L358.569 290.828C358.577 291.008 358.648 291.177 358.767 291.301C358.887 291.426 359.045 291.495 359.21 291.494V291.517ZM351.49 306.533C351.645 306.456 351.767 306.316 351.829 306.143C351.891 305.97 351.888 305.777 351.821 305.606L335.916 266.322C335.847 266.151 335.719 266.017 335.56 265.949C335.401 265.881 335.224 265.885 335.067 265.96C334.911 266.035 334.788 266.175 334.726 266.349C334.664 266.522 334.668 266.716 334.736 266.887L350.631 306.171C350.681 306.297 350.764 306.405 350.868 306.481C350.973 306.557 351.095 306.599 351.221 306.6C351.328 306.606 351.435 306.583 351.532 306.533H351.49ZM354.243 301.109L392.315 295.166C392.407 295.164 392.497 295.141 392.58 295.098C392.664 295.055 392.737 294.993 392.797 294.917C392.857 294.841 392.901 294.751 392.927 294.655C392.953 294.559 392.96 294.458 392.947 294.358C392.935 294.259 392.903 294.163 392.855 294.078C392.806 293.993 392.741 293.92 392.665 293.864C392.589 293.808 392.502 293.77 392.412 293.753C392.321 293.736 392.228 293.74 392.139 293.765L354.067 299.708C353.897 299.72 353.738 299.806 353.626 299.945C353.513 300.085 353.456 300.268 353.467 300.454C353.478 300.64 353.556 300.813 353.684 300.936C353.812 301.059 353.98 301.121 354.15 301.109H354.243ZM343.387 327.627C343.523 327.511 343.61 327.341 343.632 327.155C343.653 326.969 343.606 326.781 343.501 326.632L322.867 297.686C322.814 297.612 322.749 297.55 322.675 297.503C322.6 297.456 322.518 297.426 322.433 297.414C322.348 297.402 322.262 297.408 322.179 297.433C322.096 297.457 322.019 297.499 321.951 297.556C321.883 297.613 321.826 297.684 321.783 297.765C321.74 297.847 321.713 297.936 321.701 298.029C321.69 298.122 321.696 298.216 321.719 298.307C321.741 298.397 321.779 298.482 321.832 298.556L342.508 327.547C342.568 327.632 342.645 327.7 342.733 327.747C342.821 327.794 342.917 327.819 343.015 327.819C343.169 327.81 343.316 327.742 343.429 327.627H343.387ZM375.633 319.797C375.639 319.61 375.577 319.428 375.461 319.291C375.344 319.153 375.183 319.071 375.012 319.062L346.647 317.492C346.488 317.504 346.338 317.579 346.226 317.704C346.114 317.829 346.048 317.994 346.041 318.168C346.033 318.342 346.084 318.513 346.185 318.649C346.285 318.785 346.428 318.876 346.585 318.904L375.002 320.475C375.173 320.481 375.34 320.413 375.466 320.286C375.591 320.159 375.667 319.984 375.675 319.797H375.633ZM362.253 342.778C362.263 342.685 362.256 342.59 362.232 342.501C362.208 342.411 362.168 342.327 362.114 342.254C362.06 342.182 361.993 342.121 361.917 342.077C361.842 342.033 361.759 342.006 361.673 341.998L339.941 339.659C339.857 339.65 339.772 339.659 339.691 339.686C339.61 339.712 339.534 339.757 339.469 339.815C339.403 339.874 339.349 339.947 339.31 340.028C339.27 340.11 339.246 340.2 339.238 340.292C339.223 340.477 339.276 340.661 339.384 340.805C339.492 340.949 339.648 341.04 339.817 341.06L361.549 343.41H361.611C361.778 343.423 361.943 343.364 362.07 343.246C362.198 343.127 362.278 342.959 362.294 342.778H362.253ZM334.985 355.025C335.128 354.921 335.228 354.76 335.263 354.575C335.298 354.391 335.265 354.199 335.171 354.042L324.429 336.315C324.331 336.162 324.182 336.057 324.014 336.021C323.847 335.985 323.673 336.022 323.529 336.123C323.385 336.227 323.285 336.388 323.25 336.572C323.215 336.757 323.248 336.948 323.343 337.106L334.084 354.833C334.146 354.93 334.228 355.009 334.323 355.064C334.419 355.119 334.525 355.148 334.633 355.149C334.773 355.158 334.911 355.114 335.026 355.025H334.985ZM359.635 360.957C359.632 360.771 359.564 360.593 359.444 360.46C359.325 360.328 359.163 360.251 358.993 360.245L333.443 359.985C333.272 359.985 333.109 360.059 332.989 360.19C332.869 360.321 332.801 360.5 332.801 360.685C332.798 360.779 332.813 360.872 332.844 360.959C332.875 361.046 332.922 361.125 332.982 361.192C333.042 361.258 333.114 361.311 333.193 361.346C333.272 361.381 333.357 361.399 333.443 361.397L358.993 361.657C359.08 361.662 359.168 361.647 359.25 361.614C359.332 361.581 359.407 361.53 359.47 361.465C359.534 361.4 359.585 361.321 359.62 361.234C359.656 361.146 359.675 361.052 359.676 360.957H359.635ZM325.35 402.67C325.402 402.546 329.759 389.44 342.86 386.31C343.028 386.269 343.176 386.157 343.269 385.999C343.362 385.84 343.393 385.647 343.356 385.463C343.315 385.282 343.211 385.126 343.066 385.027C342.921 384.928 342.747 384.894 342.58 384.932C328.765 388.231 324.181 402.071 324.129 402.207C324.076 402.385 324.088 402.579 324.163 402.748C324.239 402.916 324.371 403.047 324.533 403.111H324.74C324.877 403.124 325.015 403.088 325.132 403.008C325.25 402.929 325.341 402.81 325.392 402.67H325.35Z" fill="#795ADE"/>
<path opacity="0.2" d="M328.258 413.031C328.429 413.016 328.588 412.928 328.701 412.787C328.813 412.645 328.87 412.461 328.858 412.274C327.234 385.632 336.671 341.998 351.811 306.182C361.487 283.292 399.414 238.302 399.818 237.85C399.94 237.717 400.008 237.536 400.008 237.347C400.008 237.159 399.94 236.978 399.818 236.844C399.758 236.779 399.687 236.727 399.609 236.691C399.531 236.656 399.447 236.637 399.362 236.637C399.278 236.637 399.194 236.656 399.116 236.691C399.037 236.727 398.967 236.779 398.907 236.844C398.524 237.296 360.442 282.456 350.683 305.55C335.264 342.235 325.95 385.078 327.606 412.364C327.619 412.544 327.693 412.712 327.814 412.835C327.934 412.959 328.093 413.028 328.258 413.031ZM359.21 291.517C359.381 291.505 359.541 291.421 359.656 291.281C359.77 291.141 359.829 290.958 359.821 290.771L357.348 245.07C357.344 244.977 357.323 244.885 357.286 244.801C357.249 244.717 357.198 244.642 357.134 244.58C357.071 244.518 356.996 244.47 356.916 244.44C356.835 244.409 356.75 244.397 356.665 244.403C356.493 244.415 356.333 244.5 356.219 244.639C356.105 244.779 356.045 244.962 356.054 245.149L358.569 290.828C358.577 291.008 358.648 291.177 358.767 291.301C358.887 291.426 359.045 291.495 359.21 291.494V291.517ZM351.49 306.533C351.645 306.456 351.767 306.316 351.829 306.143C351.891 305.97 351.888 305.777 351.821 305.606L335.916 266.322C335.847 266.151 335.719 266.017 335.56 265.949C335.401 265.881 335.224 265.885 335.067 265.96C334.911 266.035 334.788 266.175 334.726 266.349C334.664 266.522 334.668 266.716 334.736 266.887L350.631 306.171C350.681 306.297 350.764 306.405 350.868 306.481C350.973 306.557 351.095 306.599 351.221 306.6C351.328 306.606 351.435 306.583 351.532 306.533H351.49ZM354.243 301.109L392.315 295.166C392.407 295.164 392.497 295.141 392.58 295.098C392.664 295.055 392.737 294.993 392.797 294.917C392.857 294.841 392.901 294.751 392.927 294.655C392.953 294.559 392.96 294.458 392.947 294.358C392.935 294.259 392.903 294.163 392.855 294.078C392.806 293.993 392.741 293.92 392.665 293.864C392.589 293.808 392.502 293.77 392.412 293.753C392.321 293.736 392.228 293.74 392.139 293.765L354.067 299.708C353.897 299.72 353.738 299.806 353.626 299.945C353.513 300.085 353.456 300.268 353.467 300.454C353.478 300.64 353.556 300.813 353.684 300.936C353.812 301.059 353.98 301.121 354.15 301.109H354.243ZM343.387 327.627C343.523 327.511 343.61 327.341 343.632 327.155C343.653 326.969 343.606 326.781 343.501 326.632L322.867 297.686C322.761 297.536 322.605 297.438 322.433 297.414C322.262 297.39 322.088 297.441 321.951 297.556C321.813 297.671 321.724 297.842 321.701 298.029C321.679 298.217 321.726 298.406 321.832 298.556L342.508 327.547C342.568 327.632 342.645 327.7 342.733 327.747C342.821 327.794 342.917 327.819 343.015 327.819C343.169 327.81 343.316 327.742 343.429 327.627H343.387ZM375.633 319.797C375.639 319.61 375.577 319.428 375.461 319.291C375.344 319.153 375.183 319.071 375.012 319.062L346.647 317.492C346.488 317.504 346.338 317.579 346.226 317.704C346.114 317.829 346.048 317.994 346.041 318.168C346.033 318.342 346.084 318.513 346.185 318.649C346.285 318.785 346.428 318.876 346.585 318.904L375.002 320.475C375.173 320.481 375.34 320.413 375.466 320.286C375.591 320.159 375.667 319.984 375.675 319.797H375.633ZM362.253 342.778C362.263 342.685 362.256 342.59 362.232 342.501C362.208 342.411 362.168 342.327 362.114 342.254C362.06 342.182 361.993 342.121 361.917 342.077C361.842 342.033 361.759 342.006 361.673 341.998L339.941 339.659C339.857 339.65 339.772 339.659 339.691 339.686C339.61 339.712 339.534 339.757 339.469 339.815C339.403 339.874 339.349 339.947 339.31 340.028C339.27 340.11 339.246 340.2 339.238 340.292C339.223 340.477 339.276 340.661 339.384 340.805C339.492 340.949 339.648 341.04 339.817 341.06L361.549 343.41H361.611C361.778 343.423 361.943 343.364 362.07 343.246C362.198 343.127 362.278 342.959 362.294 342.778H362.253ZM334.985 355.025C335.128 354.921 335.228 354.76 335.263 354.575C335.298 354.391 335.265 354.199 335.171 354.042L324.429 336.315C324.331 336.162 324.182 336.057 324.014 336.021C323.847 335.985 323.673 336.022 323.529 336.123C323.385 336.227 323.285 336.388 323.25 336.572C323.215 336.757 323.248 336.948 323.343 337.106L334.084 354.833C334.146 354.93 334.228 355.009 334.323 355.064C334.419 355.119 334.525 355.148 334.633 355.149C334.773 355.158 334.911 355.114 335.026 355.025H334.985ZM359.635 360.957C359.632 360.771 359.564 360.593 359.444 360.46C359.325 360.328 359.163 360.251 358.993 360.245L333.443 359.985C333.272 359.985 333.109 360.059 332.989 360.19C332.869 360.321 332.801 360.5 332.801 360.685C332.798 360.779 332.813 360.872 332.844 360.959C332.875 361.046 332.922 361.125 332.982 361.192C333.042 361.258 333.114 361.311 333.193 361.346C333.272 361.381 333.357 361.399 333.443 361.397L358.993 361.657C359.08 361.662 359.168 361.647 359.25 361.614C359.332 361.581 359.407 361.53 359.47 361.465C359.534 361.4 359.585 361.321 359.62 361.234C359.656 361.146 359.675 361.052 359.676 360.957H359.635ZM325.35 402.67C325.402 402.546 329.759 389.44 342.86 386.31C343.028 386.269 343.176 386.157 343.269 385.999C343.362 385.84 343.393 385.647 343.356 385.463C343.315 385.282 343.211 385.126 343.066 385.027C342.921 384.928 342.747 384.894 342.58 384.932C328.765 388.231 324.181 402.071 324.129 402.207C324.076 402.385 324.088 402.579 324.163 402.748C324.239 402.916 324.371 403.047 324.533 403.111H324.74C324.877 403.124 325.015 403.088 325.132 403.008C325.25 402.929 325.341 402.81 325.392 402.67H325.35ZM328.258 413.031C328.429 413.016 328.588 412.928 328.701 412.787C328.813 412.645 328.87 412.461 328.858 412.274C327.234 385.632 336.671 341.998 351.811 306.182C361.487 283.292 399.414 238.302 399.818 237.85C399.94 237.717 400.008 237.536 400.008 237.347C400.008 237.159 399.94 236.978 399.818 236.844C399.758 236.779 399.687 236.727 399.609 236.691C399.531 236.656 399.447 236.637 399.362 236.637C399.278 236.637 399.194 236.656 399.116 236.691C399.037 236.727 398.967 236.779 398.907 236.844C398.524 237.296 360.442 282.456 350.683 305.55C335.264 342.235 325.95 385.078 327.606 412.364C327.619 412.544 327.693 412.712 327.814 412.835C327.934 412.959 328.093 413.028 328.258 413.031ZM359.21 291.517C359.381 291.505 359.541 291.421 359.656 291.281C359.77 291.141 359.829 290.958 359.821 290.771L357.348 245.07C357.344 244.977 357.323 244.885 357.286 244.801C357.249 244.717 357.198 244.642 357.134 244.58C357.071 244.518 356.996 244.47 356.916 244.44C356.835 244.409 356.75 244.397 356.665 244.403C356.493 244.415 356.333 244.5 356.219 244.639C356.105 244.779 356.045 244.962 356.054 245.149L358.569 290.828C358.577 291.008 358.648 291.177 358.767 291.301C358.887 291.426 359.045 291.495 359.21 291.494V291.517ZM351.49 306.533C351.645 306.456 351.767 306.316 351.829 306.143C351.891 305.97 351.888 305.777 351.821 305.606L335.916 266.322C335.847 266.151 335.719 266.017 335.56 265.949C335.401 265.881 335.224 265.885 335.067 265.96C334.911 266.035 334.788 266.175 334.726 266.349C334.664 266.522 334.668 266.716 334.736 266.887L350.631 306.171C350.681 306.297 350.764 306.405 350.868 306.481C350.973 306.557 351.095 306.599 351.221 306.6C351.328 306.606 351.435 306.583 351.532 306.533H351.49ZM354.243 301.109L392.315 295.166C392.407 295.164 392.497 295.141 392.58 295.098C392.664 295.055 392.737 294.993 392.797 294.917C392.857 294.841 392.901 294.751 392.927 294.655C392.953 294.559 392.96 294.458 392.947 294.358C392.935 294.259 392.903 294.163 392.855 294.078C392.806 293.993 392.741 293.92 392.665 293.864C392.589 293.808 392.502 293.77 392.412 293.753C392.321 293.736 392.228 293.74 392.139 293.765L354.067 299.708C353.897 299.72 353.738 299.806 353.626 299.945C353.513 300.085 353.456 300.268 353.467 300.454C353.478 300.64 353.556 300.813 353.684 300.936C353.812 301.059 353.98 301.121 354.15 301.109H354.243ZM343.387 327.627C343.523 327.511 343.61 327.341 343.632 327.155C343.653 326.969 343.606 326.781 343.501 326.632L322.867 297.686C322.814 297.612 322.749 297.55 322.675 297.503C322.6 297.456 322.518 297.426 322.433 297.414C322.348 297.402 322.262 297.408 322.179 297.433C322.096 297.457 322.019 297.499 321.951 297.556C321.883 297.613 321.826 297.684 321.783 297.765C321.74 297.847 321.713 297.936 321.701 298.029C321.69 298.122 321.696 298.216 321.719 298.307C321.741 298.397 321.779 298.482 321.832 298.556L342.508 327.547C342.568 327.632 342.645 327.7 342.733 327.747C342.821 327.794 342.917 327.819 343.015 327.819C343.169 327.81 343.316 327.742 343.429 327.627H343.387ZM375.633 319.797C375.639 319.61 375.577 319.428 375.461 319.291C375.344 319.153 375.183 319.071 375.012 319.062L346.647 317.492C346.488 317.504 346.338 317.579 346.226 317.704C346.114 317.829 346.048 317.994 346.041 318.168C346.033 318.342 346.084 318.513 346.185 318.649C346.285 318.785 346.428 318.876 346.585 318.904L375.002 320.475C375.173 320.481 375.34 320.413 375.466 320.286C375.591 320.159 375.667 319.984 375.675 319.797H375.633ZM362.253 342.778C362.263 342.685 362.256 342.59 362.232 342.501C362.208 342.411 362.168 342.327 362.114 342.254C362.06 342.182 361.993 342.121 361.917 342.077C361.842 342.033 361.759 342.006 361.673 341.998L339.941 339.659C339.857 339.65 339.772 339.659 339.691 339.686C339.61 339.712 339.534 339.757 339.469 339.815C339.403 339.874 339.349 339.947 339.31 340.028C339.27 340.11 339.246 340.2 339.238 340.292C339.223 340.477 339.276 340.661 339.384 340.805C339.492 340.949 339.648 341.04 339.817 341.06L361.549 343.41H361.611C361.778 343.423 361.943 343.364 362.07 343.246C362.198 343.127 362.278 342.959 362.294 342.778H362.253ZM334.985 355.025C335.128 354.921 335.228 354.76 335.263 354.575C335.298 354.391 335.265 354.199 335.171 354.042L324.429 336.315C324.331 336.162 324.182 336.057 324.014 336.021C323.847 335.985 323.673 336.022 323.529 336.123C323.385 336.227 323.285 336.388 323.25 336.572C323.215 336.757 323.248 336.948 323.343 337.106L334.084 354.833C334.146 354.93 334.228 355.009 334.323 355.064C334.419 355.119 334.525 355.148 334.633 355.149C334.773 355.158 334.911 355.114 335.026 355.025H334.985ZM359.635 360.957C359.632 360.771 359.564 360.593 359.444 360.46C359.325 360.328 359.163 360.251 358.993 360.245L333.443 359.985C333.272 359.985 333.109 360.059 332.989 360.19C332.869 360.321 332.801 360.5 332.801 360.685C332.798 360.779 332.813 360.872 332.844 360.959C332.875 361.046 332.922 361.125 332.982 361.192C333.042 361.258 333.114 361.311 333.193 361.346C333.272 361.381 333.357 361.399 333.443 361.397L358.993 361.657C359.08 361.662 359.168 361.647 359.25 361.614C359.332 361.581 359.407 361.53 359.47 361.465C359.534 361.4 359.585 361.321 359.62 361.234C359.656 361.146 359.675 361.052 359.676 360.957H359.635ZM325.35 402.67C325.402 402.546 329.759 389.44 342.86 386.31C343.028 386.269 343.176 386.157 343.269 385.999C343.362 385.84 343.393 385.647 343.356 385.463C343.315 385.282 343.211 385.126 343.066 385.027C342.921 384.928 342.747 384.894 342.58 384.932C328.765 388.231 324.181 402.071 324.129 402.207C324.076 402.385 324.088 402.579 324.163 402.748C324.239 402.916 324.371 403.047 324.533 403.111H324.74C324.877 403.124 325.015 403.088 325.132 403.008C325.25 402.929 325.341 402.81 325.392 402.67H325.35Z" fill="black"/>
<path d="M345.157 393.109H315.861V399.729H318.417L323.705 435.85H337.313L342.601 399.729H345.157V393.109Z" fill="#795ADE"/>
<path opacity="0.3" d="M345.157 393.109H315.861V399.729H318.417L323.705 435.85H337.313L342.601 399.729H345.157V393.109Z" fill="white"/>
<path d="M81.3965 192.902L47.319 180.756L44.287 172.011L37.3638 171.774L24.8008 169.176L26.3117 172.011L42.1241 184.541L46.0255 186.665L81.6655 206.991L81.3965 192.902Z" fill="white" stroke="#263238" stroke-width="1.00396" stroke-miterlimit="10"/>
<path d="M44.2867 172.015L41.0373 169.891L34.5488 172.489L35.6251 173.902L44.2867 172.015Z" fill="white" stroke="#263238" stroke-width="1.00396" stroke-linejoin="round"/>
<path d="M81.3965 192.902L47.319 180.756L44.287 172.011L37.3638 171.774L24.8008 169.176L26.3117 172.011L42.1241 184.541L46.0255 186.665L81.6655 206.991L81.3965 192.902Z" fill="white"/>
<mask id="mask0_244_18098" style="mask-type:luminance" maskUnits="userSpaceOnUse" x="24" y="169" width="58" height="38">
<path d="M81.3965 192.902L47.319 180.756L44.287 172.011L37.3638 171.774L24.8008 169.176L26.3117 172.011L42.1241 184.541L46.0255 186.665L81.6655 206.991L81.3965 192.902Z" fill="white"/>
</mask>
<g mask="url(#mask0_244_18098)">
<path opacity="0.5" d="M81.3965 192.902L47.319 180.756L44.287 172.011L37.3638 171.774L24.8008 169.176L26.3117 172.011L42.1241 184.541L46.0255 186.665L81.6655 206.991L81.3965 192.902Z" fill="#795ADE" stroke="#263238" stroke-width="1.00396" stroke-miterlimit="10"/>
</g>
<path d="M81.3965 192.902L47.319 180.756L44.287 172.011L37.3638 171.774L24.8008 169.176L26.3117 172.011L42.1241 184.541L46.0255 186.665L81.6655 206.991L81.3965 192.902Z" stroke="#263238" stroke-width="1.00396" stroke-miterlimit="10"/>
<path d="M44.2867 172.015L41.0373 169.891L34.5488 172.489L35.6251 173.902L44.2867 172.015Z" fill="white"/>
<mask id="mask1_244_18098" style="mask-type:luminance" maskUnits="userSpaceOnUse" x="34" y="169" width="11" height="5">
<path d="M44.2867 172.015L41.0373 169.891L34.5488 172.489L35.6251 173.902L44.2867 172.015Z" fill="white"/>
</mask>
<g mask="url(#mask1_244_18098)">
<path opacity="0.5" d="M44.2867 172.015L41.0373 169.891L34.5488 172.489L35.6251 173.902L44.2867 172.015Z" fill="#795ADE" stroke="#263238" stroke-width="1.00396" stroke-linejoin="round"/>
</g>
<path d="M44.2867 172.015L41.0373 169.891L34.5488 172.489L35.6251 173.902L44.2867 172.015Z" stroke="#263238" stroke-width="1.00396" stroke-linejoin="round"/>
<path d="M88.6303 114.074C88.6303 114.074 88.1026 119.158 89.4168 122.423C90.7311 125.689 98.0267 136.75 98.0267 136.75L84.4082 148.669C84.4082 148.669 78.7579 136.241 77.6817 134.23C76.6054 132.219 75.3119 123.565 78.82 117.362C82.3281 111.159 87.3782 109.487 88.6303 114.074Z" fill="white"/>
<mask id="mask2_244_18098" style="mask-type:luminance" maskUnits="userSpaceOnUse" x="76" y="111" width="23" height="38">
<path d="M88.6303 114.074C88.6303 114.074 88.1026 119.158 89.4168 122.423C90.7311 125.689 98.0267 136.75 98.0267 136.75L84.4082 148.669C84.4082 148.669 78.7579 136.241 77.6817 134.23C76.6054 132.219 75.3119 123.565 78.82 117.362C82.3281 111.159 87.3782 109.487 88.6303 114.074Z" fill="white"/>
</mask>
<g mask="url(#mask2_244_18098)">
<g style="mix-blend-mode:multiply" opacity="0.5">
<path d="M81.636 130.41L87.5449 143.788L84.399 148.68L78.459 137.099L81.636 130.41Z" fill="#795ADE"/>
</g>
</g>
<path d="M88.6303 114.074C88.6303 114.074 88.1026 119.158 89.4168 122.423C90.7311 125.689 98.0267 136.75 98.0267 136.75L84.4082 148.669C84.4082 148.669 78.7579 136.241 77.6817 134.23C76.6054 132.219 75.3119 123.565 78.82 117.362C82.3281 111.159 87.3782 109.487 88.6303 114.074Z" stroke="#263238" stroke-width="1.00396" stroke-miterlimit="10"/>
<path d="M92.8512 104.766C92.0129 99.1168 86.0833 87.6264 76.6765 88.067C70.571 88.3608 67.7148 89.7053 65.0656 91.3435C62.9061 92.7326 60.8933 94.377 59.0635 96.247C54.4688 102.269 52.8544 103.919 53.7444 108.528C53.6714 110.367 53.9353 112.203 54.5205 113.929C55.9279 118.03 56.8903 120.708 58.1114 122.663C57.7389 124.572 56.7661 129.611 56.7144 130.763C56.6627 131.916 59.8189 131.114 61.4126 130.673C64.3722 137.904 69.7948 142.92 71.4816 143.497C74.4206 144.502 79.067 139.226 81.53 135.136C83.9929 131.046 82.1302 126.447 82.1405 124.617C82.1509 122.787 87.6769 118.765 89.7259 117.488C91.7749 116.211 93.679 110.404 92.8512 104.766Z" fill="white"/>
<mask id="mask3_244_18098" style="mask-type:luminance" maskUnits="userSpaceOnUse" x="53" y="88" width="41" height="56">
<path d="M92.8512 104.766C92.0129 99.1168 86.0833 87.6264 76.6765 88.067C70.571 88.3608 67.7148 89.7053 65.0656 91.3435C62.9061 92.7326 60.8933 94.377 59.0635 96.247C54.4688 102.269 52.8544 103.919 53.7444 108.528C53.6714 110.367 53.9353 112.203 54.5205 113.929C55.9279 118.03 56.8903 120.708 58.1114 122.663C57.7389 124.572 56.7661 129.611 56.7144 130.763C56.6627 131.916 59.8189 131.114 61.4126 130.673C64.3722 137.904 69.7948 142.92 71.4816 143.497C74.4206 144.502 79.067 139.226 81.53 135.136C83.9929 131.046 82.1302 126.447 82.1405 124.617C82.1509 122.787 87.6769 118.765 89.7259 117.488C91.7749 116.211 93.679 110.404 92.8512 104.766Z" fill="white"/>
</mask>
<g mask="url(#mask3_244_18098)">
<g style="mix-blend-mode:multiply" opacity="0.5">
<path d="M53.7864 108.53C53.7133 110.368 53.9772 112.204 54.5625 113.93C55.9699 118.031 56.9323 120.709 58.1534 122.664C57.7809 124.573 56.8081 129.612 56.7564 130.765C56.7046 131.917 59.8609 131.115 61.4545 130.674C64.4142 137.905 69.8368 142.922 71.5236 143.498C74.4625 144.503 79.109 139.227 81.5719 135.137C82.1872 134.116 82.5867 132.958 82.7413 131.748C82.6068 131.217 82.5136 130.889 82.5136 130.889C82.5136 130.889 81.1269 136.708 78.3742 135.951C75.6216 135.194 71.4097 129.172 69.0607 127.093C66.7116 125.014 67.674 122.28 67.2083 119.184C66.7426 116.088 59.7884 113.365 59.3228 111.591C58.8571 109.818 60.4818 102.474 60.4818 102.474C60.4818 102.474 63.1206 98.6326 62.5515 100.214C62.1492 101.585 62.0033 103.031 62.1224 104.465C62.2415 105.9 62.6232 107.293 63.2448 108.563C63.681 109.566 64.373 110.409 65.2377 110.992C66.1023 111.576 67.1028 111.874 68.1189 111.851L70.644 98.192L65.3145 93.3789L59.1054 96.2035C54.4693 102.27 52.886 103.92 53.7864 108.53Z" fill="#795ADE"/>
</g>
</g>
<path d="M92.8512 104.766C92.0129 99.1168 86.0833 87.6264 76.6765 88.067C70.571 88.3608 67.7148 89.7053 65.0656 91.3435C62.9061 92.7326 60.8933 94.377 59.0635 96.247C54.4688 102.269 52.8544 103.919 53.7444 108.528C53.6714 110.367 53.9353 112.203 54.5205 113.929C55.9279 118.03 56.8903 120.708 58.1114 122.663C57.7389 124.572 56.7661 129.611 56.7144 130.763C56.6627 131.916 59.8189 131.114 61.4126 130.673C64.3722 137.904 69.7948 142.92 71.4816 143.497C74.4206 144.502 79.067 139.226 81.53 135.136C83.9929 131.046 82.1302 126.447 82.1405 124.617C82.1509 122.787 87.6769 118.765 89.7259 117.488C91.7749 116.211 93.679 110.404 92.8512 104.766Z" stroke="#263238" stroke-miterlimit="10"/>
<path d="M59.3945 119.25L60.4293 122.481C60.4293 122.481 62.6542 123.283 65.3655 120.052" stroke="#263238" stroke-miterlimit="10" stroke-linecap="round"/>
<path d="M67.043 134.346C67.043 134.346 69.5059 134.075 70.4994 130.301" stroke="#263238" stroke-miterlimit="10" stroke-linecap="round"/>
<path d="M57.668 116.55C57.668 116.55 58.4027 114.121 62.8422 114.121" stroke="#263238" stroke-miterlimit="10" stroke-linecap="round"/>
<path d="M80.4233 83.5681C77.1974 83.0616 73.9443 82.7898 70.6854 82.7546C70.6854 82.7546 60.9371 76.6196 51.5718 83.1613C42.2065 89.703 46.708 101.16 46.708 104.018C46.708 106.877 43.707 106.888 45.5801 110.571C47.4531 114.255 53.7864 112.221 53.7864 112.221C53.8533 110.832 54.1896 109.474 54.7729 108.237C55.3562 107 56.1734 105.913 57.1703 105.046C60.5439 102.188 63.2345 101.566 64.3521 102.391C64.3521 102.391 63.607 108.526 64.7247 110.978C64.7247 110.978 68.4708 113.023 69.5988 113.023C70.7268 113.023 68.8641 114.752 72.5998 116.288C73.2804 116.555 74.0085 116.646 74.7267 116.554C75.4449 116.462 76.1338 116.189 76.7392 115.757C77.2877 113.272 78.4881 109.532 80.7234 110.402C84.0038 111.678 86.9945 120.491 82.555 123.497C87.8948 124.559 94.3626 114.243 94.7455 104.843C95.1284 95.4426 85.97 84.6301 80.4233 83.5681Z" fill="#263238"/>
<path d="M64.5176 98.3576C64.5176 98.3576 67.2703 96.7419 70.6439 100.199C74.0175 103.657 80.5784 108.278 89.2711 105.736" stroke="white" stroke-width="0.5" stroke-linecap="round" stroke-linejoin="round"/>
<path d="M64.1348 95.5907C64.1348 95.5907 66.0285 92.3594 69.1952 92.3594C72.3618 92.3594 79.7609 97.2064 85.6699 97.2064" stroke="white" stroke-width="0.5" stroke-linecap="round" stroke-linejoin="round"/>
<path d="M61.9817 101.815C61.9817 101.815 58.3908 96.98 55.0172 100.9C51.6436 104.821 53.7857 108.526 53.7857 108.526" stroke="white" stroke-width="0.5" stroke-linecap="round" stroke-linejoin="round"/>
<path d="M47.6289 105.046C49.6866 103.02 50.9658 100.219 51.2094 97.2049C51.6337 92.132 57.9773 87.7482 61.9821 91.906" stroke="white" stroke-width="0.5" stroke-linecap="round" stroke-linejoin="round"/>
<path d="M54.1699 86.5955C54.1699 86.5955 60.5135 79.9069 65.7912 88.4371" stroke="white" stroke-width="0.5" stroke-linecap="round" stroke-linejoin="round"/>
<path d="M105.798 415.457C105.798 415.457 109.699 422.077 109.264 426.337L108.84 430.596C108.84 430.596 94.5282 434.878 91.4961 434.878C88.464 434.878 72.4135 433.217 72.4135 433.217L71.7202 430.212C71.6717 429.99 71.6945 429.757 71.785 429.551C71.8754 429.345 72.0279 429.18 72.2169 429.082L86.5288 421.795L91.0407 416.406L105.798 415.457Z" fill="white" stroke="#263238" stroke-width="1.00396" stroke-miterlimit="10"/>
<path d="M93.6704 431.546C97.5511 431.874 104.919 429.287 109.193 427.637L108.893 430.597C108.893 430.597 94.5293 434.879 91.4972 434.879C88.4652 434.879 72.4147 433.219 72.4147 433.219L71.918 431.072C74.4844 431.083 88.5376 431.117 93.6704 431.546Z" fill="#795ADE" stroke="#263238" stroke-width="1.00396" stroke-miterlimit="10"/>
<path d="M86.5502 421.795L65.7188 431.692C65.7188 431.692 63.9389 436.562 65.7188 437.534C67.4988 438.505 106.306 437.534 106.306 437.534C106.306 437.534 108.985 429.839 104.753 424.676C100.52 419.513 86.5502 421.795 86.5502 421.795Z" fill="white" stroke="#263238" stroke-width="1.00396" stroke-miterlimit="10"/>
<path d="M106.305 437.535C106.305 437.535 67.4984 438.507 65.7184 437.535C64.8595 437.061 64.8285 435.694 65.0251 434.395H106.988C106.851 435.463 106.622 436.514 106.305 437.535Z" fill="#795ADE" stroke="#263238" stroke-width="1.00396" stroke-miterlimit="10"/>
<path d="M76.6976 249.825C76.6976 249.825 71.2543 276.161 69.1949 292.634C67.1356 309.107 65.9248 342.11 66.3595 345.895C66.7941 349.68 88.4637 413.097 88.4637 413.097L90.6266 418.746L105.798 415.436C105.798 415.436 98.8639 391.303 96.2665 378.05C93.669 364.797 87.9877 343.025 87.9877 339.24C87.9877 335.455 101.441 263.168 102.403 258.423C103.366 253.678 107.733 246.39 107.733 246.39L78.6845 245.746L76.6976 249.825Z" fill="#795ADE" stroke="#263238" stroke-width="1.00396" stroke-miterlimit="10"/>
<path d="M76.6987 249.824C76.6987 249.824 73.5114 273.878 74.8256 290.6C76.1399 307.321 78.965 342.922 78.965 348.221C78.965 353.52 86.7988 385.167 87.2438 395.109C87.9371 409.469 86.9644 416.576 86.9644 416.576L86.4987 421.785C86.4987 421.785 95.6364 423.208 97.6336 423.83C99.9404 424.478 102.321 424.76 104.702 424.666C104.702 424.666 108.024 408.701 108.024 395.098C108.024 381.495 105.261 353.497 103.884 342.154C102.508 330.81 106.844 287.052 109.307 278.883C111.77 270.715 117.151 253.417 113.529 244.582C109.907 235.746 76.6987 249.824 76.6987 249.824Z" fill="#795ADE" stroke="#263238" stroke-width="1.00396" stroke-miterlimit="10"/>
<path d="M117.554 240.152L117.223 250.908C117.223 250.908 111.324 252.185 103.376 253.687C96.8155 254.93 80.3408 253.36 74.794 252.772C74.2885 252.723 73.8212 252.458 73.4937 252.035C73.1661 251.612 73.0049 251.065 73.0451 250.512L73.5832 240.796L117.554 240.152Z" fill="#263238"/>
<path d="M94.4969 132.934C94.4969 132.934 85.1833 143.927 81.6752 150.763C78.1671 157.598 76.7804 168.072 75.4661 176.319C74.1519 184.567 77.7118 203.933 76.708 212.824L73.5311 240.833C73.5311 240.833 72.848 242.731 75.135 244.81C77.422 246.889 88.588 247.646 98.6777 248.199C102.362 248.403 113.362 245.815 115.163 245.691C117.336 245.544 117.409 242.528 117.502 240.155C117.936 229.004 119.778 199.278 120.989 186.33C123.483 159.926 109.834 134.437 94.4969 132.934Z" fill="white" stroke="#263238" stroke-width="1.00396" stroke-miterlimit="10"/>
<g style="mix-blend-mode:multiply">
<path d="M119.851 201.342C120.265 195.478 120.679 190.156 121.041 186.326C121.145 185.197 121.207 184.067 121.258 182.937L96.5155 187.456L75.2598 179.547C75.2621 184.349 75.5109 189.147 76.0049 193.919L96.857 200.291L119.851 201.342Z" fill="#795ADE"/>
</g>
<g style="mix-blend-mode:multiply">
<path d="M93.5758 134.039C92.1685 135.745 89.3744 139.214 86.7148 142.897L102.424 160.33L107.598 158.071L93.5758 134.039Z" fill="#795ADE"/>
</g>
<path d="M94.4966 132.934C94.4966 132.934 85.183 143.927 81.6749 150.763C80.6346 152.84 79.792 155.028 79.1602 157.293L97.8909 133.668C96.7843 133.302 95.6474 133.056 94.4966 132.934Z" fill="#263238"/>
<g style="mix-blend-mode:multiply">
<path d="M76.1914 171.867L96.5157 179.165L121.197 176.07C120.81 169.357 119.445 162.755 117.151 156.512L97.2505 165.223L79.4615 156.422C78.0069 161.47 76.9136 166.634 76.1914 171.867Z" fill="#795ADE"/>
</g>
<g style="mix-blend-mode:multiply">
<path d="M111.179 229C100.871 230.89 90.2938 229.947 80.4031 226.255L75.4462 224.402L73.9043 237.96L79.5546 239.689C90.2959 242.968 101.522 243.912 112.597 242.468L117.16 241.869C117.398 241.32 117.532 240.725 117.554 240.118C117.678 237.101 117.895 232.718 118.174 227.69L111.179 229Z" fill="#795ADE"/>
</g>
<g style="mix-blend-mode:multiply">
<path d="M113.942 210.54C103.633 212.437 93.0536 211.489 83.1659 207.783L76.8533 205.422C77.0099 207.883 76.9788 210.355 76.7602 212.811L76.0254 219.33L82.3173 221.251C93.0545 224.533 104.277 225.481 115.349 224.041L118.454 223.635C118.712 219.115 119.013 214.302 119.333 209.546L113.942 210.54Z" fill="#795ADE"/>
</g>
<path d="M16.8535 162.762L36.8626 180.326L37.725 179.155L17.7159 161.59L16.8535 162.762Z" fill="#263238"/>
<path d="M104.13 145.121C104.13 145.121 111.468 150.578 111.633 163.469C111.706 169.118 111.167 174.395 109.977 183.648C108.787 192.901 101.398 223.034 95.645 226.694C89.8913 230.355 80.9606 223.441 80.9606 223.441L37.7662 192.133L27.3246 182.925L22.1504 172.259L23.7751 168.87L36.5141 179.535L29.653 172.609L30.9983 170.745L33.482 172.632L40.7259 175.592L42.3092 186.89L44.5444 188.563L85.8658 205.047C85.8658 205.047 85.3484 180.767 85.7312 176.123C86.1141 171.48 86.6419 159.808 91.1952 151.346" fill="white"/>
<mask id="mask4_244_18098" style="mask-type:luminance" maskUnits="userSpaceOnUse" x="22" y="145" width="90" height="83">
<path d="M104.13 145.121C104.13 145.121 111.468 150.578 111.633 163.469C111.706 169.118 111.167 174.395 109.977 183.648C108.787 192.901 101.398 223.034 95.645 226.694C89.8913 230.355 80.9606 223.441 80.9606 223.441L37.7662 192.133L27.3246 182.925L22.1504 172.259L23.7751 168.87L36.5141 179.535L29.653 172.609L30.9983 170.745L33.482 172.632L40.7259 175.592L42.3092 186.89L44.5444 188.563L85.8658 205.047C85.8658 205.047 85.3484 180.767 85.7312 176.123C86.1141 171.48 86.6419 159.808 91.1952 151.346" fill="white"/>
</mask>
<g mask="url(#mask4_244_18098)">
<g style="mix-blend-mode:multiply" opacity="0.5">
<path d="M85.5752 186.699C85.5752 195.083 85.8339 205.048 85.8339 205.048L44.554 188.631L42.3187 186.959L40.7354 175.661L33.4915 172.701L31.0183 170.78L29.673 172.644L36.5133 179.536L23.7743 168.871L22.2324 172.204L27.4067 182.869L37.8482 192.134L40.4767 194.043L97.5484 214.12L85.5752 186.699Z" fill="#795ADE"/>
</g>
</g>
<path d="M104.13 145.121C104.13 145.121 111.468 150.578 111.633 163.469C111.706 169.118 111.167 174.395 109.977 183.648C108.787 192.901 101.398 223.034 95.645 226.694C89.8913 230.355 80.9606 223.441 80.9606 223.441L37.7662 192.133L27.3246 182.925L22.1504 172.259L23.7751 168.87L36.5141 179.535L29.653 172.609L30.9983 170.745L33.482 172.632L40.7259 175.592L42.3092 186.89L44.5444 188.563L85.8658 205.047C85.8658 205.047 85.3484 180.767 85.7312 176.123C86.1141 171.48 86.6419 159.808 91.1952 151.346" stroke="#263238" stroke-width="1.00396" stroke-miterlimit="10"/>
<path d="M85.867 205.049L101.639 217.477L105.726 209.568C105.726 209.568 108.551 207.139 108.965 205.309C109.379 203.478 108.851 200.507 109.276 198.677C109.7 196.846 111.811 195.129 112.008 190.7C112.204 186.271 112.008 182.577 112.008 182.577C112.008 182.577 115.423 167.245 115.05 160.579C114.678 153.913 108.789 142.129 104.07 141.869C99.3511 141.609 93.2144 142.388 88.4542 150.252C83.6939 158.116 84.6666 181.074 83.9215 182.509C83.1765 183.944 84.2113 191.028 84.2113 191.028C83.7977 191.364 83.4546 191.794 83.2048 192.286C82.955 192.779 82.8042 193.325 82.7625 193.886C82.6797 195.728 84.5011 200.258 84.5011 200.258L85.867 205.049Z" fill="white" stroke="#263238" stroke-width="1.00396" stroke-miterlimit="10"/>
<g style="mix-blend-mode:multiply">
<path d="M84.3352 176.609C84.3677 178.581 84.2326 180.551 83.9316 182.496C83.2693 183.784 84.0247 189.602 84.1903 190.788C93.0608 193.797 102.441 194.569 111.624 193.048C111.821 192.262 111.939 191.455 111.976 190.642C112.183 186.224 111.976 182.518 111.976 182.518C111.976 182.518 112.276 181.151 112.69 179.072C103.179 179.732 93.6307 178.903 84.3352 176.609Z" fill="#795ADE"/>
</g>
<g style="mix-blend-mode:multiply">
<path d="M87.8111 151.508C86.3312 154.751 85.5033 159.62 85.0273 164.558C94.4217 168.472 104.551 169.818 114.531 168.478C114.929 165.865 115.106 163.218 115.058 160.569C114.879 158.476 114.426 156.421 113.713 154.468C104.999 154.69 96.2943 153.696 87.8111 151.508Z" fill="#795ADE"/>
</g>
<path d="M84.5 200.383L85.8349 205.049L101.605 217.477L105.693 209.568C105.693 209.568 108.518 207.139 108.932 205.309C109.006 204.991 109.051 204.665 109.067 204.337C100.756 204.181 92.4987 202.851 84.5 200.383Z" fill="#263238"/>
<path d="M95.9143 423.685C95.9143 423.685 96.2661 413.9 97.9839 399.597C99.7018 385.293 95.5728 364.979 94.8794 361.589C94.1861 358.2 95.2313 350.675 94.5379 348.031C93.8446 345.387 90.4917 334.112 92.4682 321.028C94.4448 307.945 96.0487 273.36 96.0487 273.36C96.0487 273.36 91.0712 268.943 89.612 263.192C88.1529 257.441 89.2705 255.633 89.2705 255.633" stroke="#263238" stroke-width="1.00396" stroke-miterlimit="10"/>
<path d="M98.2231 256.16L96.3086 267.73" stroke="#263238" stroke-width="1.00396" stroke-miterlimit="10"/>
</g>
<defs>
<clipPath id="clip0_244_18098">
<rect width="421" height="446" fill="white"/>
</clipPath>
</defs>
</svg>
