<svg width="22" height="22" viewBox="0 0 22 22" fill="none" xmlns="http://www.w3.org/2000/svg">
<path d="M22 6.28571V3.92857C22 3.30342 21.7517 2.70387 21.3096 2.26182C20.8676 1.81977 20.268 1.57143 19.6429 1.57143H16.5V0.785714C16.5 0.57733 16.4172 0.37748 16.2699 0.23013C16.1225 0.0827803 15.9227 0 15.7143 0C15.5059 0 15.3061 0.0827803 15.1587 0.23013C15.0114 0.37748 14.9286 0.57733 14.9286 0.785714V1.57143H7.07143V0.785714C7.07143 0.57733 6.98865 0.37748 6.8413 0.23013C6.69395 0.0827803 6.4941 0 6.28571 0C6.07733 0 5.87748 0.0827803 5.73013 0.23013C5.58278 0.37748 5.5 0.57733 5.5 0.785714V1.57143H2.35714C1.73199 1.57143 1.13244 1.81977 0.690391 2.26182C0.248341 2.70387 0 3.30342 0 3.92857V6.28571H22ZM0 7.85714V19.6429C0 20.268 0.248341 20.8676 0.690391 21.3096C1.13244 21.7517 1.73199 22 2.35714 22H19.6429C20.268 22 20.8676 21.7517 21.3096 21.3096C21.7517 20.8676 22 20.268 22 19.6429V7.85714H0ZM15.4393 12.3821L9.93929 17.0964C9.78895 17.2249 9.59567 17.292 9.39803 17.2843C9.20038 17.2766 9.01292 17.1946 8.87307 17.0547L6.51593 14.6976C6.3728 14.5494 6.29361 14.3509 6.2954 14.1449C6.29719 13.9389 6.37982 13.7418 6.5255 13.5961C6.67118 13.4505 6.86824 13.3678 7.07426 13.366C7.28027 13.3643 7.47874 13.4434 7.62693 13.5866L9.47021 15.4299L14.4202 11.187C14.4981 11.1168 14.5893 11.0629 14.6884 11.0284C14.7874 10.994 14.8924 10.9798 14.9971 10.9866C15.1017 10.9933 15.204 11.021 15.2978 11.0679C15.3916 11.1148 15.475 11.1801 15.5432 11.2597C15.6114 11.3394 15.663 11.432 15.6948 11.5319C15.7267 11.6318 15.7382 11.7371 15.7288 11.8415C15.7193 11.946 15.689 12.0475 15.6397 12.1401C15.5904 12.2326 15.5231 12.3144 15.4416 12.3805L15.4393 12.3821Z" fill="#795ADE"/>
</svg>
