<svg width="18" height="18" viewBox="0 0 18 18" fill="none" xmlns="http://www.w3.org/2000/svg">
<g clip-path="url(#clip0_105_2)">
<mask id="mask0_105_2" style="mask-type:luminance" maskUnits="userSpaceOnUse" x="0" y="0" width="18" height="18">
<path d="M18 0H0V18H18V0Z" fill="white"/>
</mask>
<g mask="url(#mask0_105_2)">
<path d="M17.7325 8.36325L9.63257 0.263249C9.28157 -0.0877502 8.71004 -0.0877502 8.36357 0.263249L0.263564 8.36325C-0.087436 8.71425 -0.087436 9.28575 0.263564 9.63675L8.36357 17.7322V17.7367C8.71457 18.0877 9.28607 18.0877 9.63707 17.7367L17.7371 9.63675C18.088 9.28125 18.088 8.71425 17.7325 8.36325ZM10.798 11.2477V8.99775H7.19804V11.6978H5.39804V8.09775C5.39762 7.97946 5.4206 7.86224 5.4657 7.75286C5.5108 7.64347 5.57704 7.54412 5.66071 7.46045C5.74438 7.37679 5.84373 7.31051 5.95311 7.26544C6.0625 7.22035 6.17972 7.19736 6.29801 7.19778H10.798V4.94775L13.948 8.09775L10.798 11.2477Z" fill="#49D900"/>
</g>
</g>
<defs>
<clipPath id="clip0_105_2">
<rect width="18" height="18" fill="white"/>
</clipPath>
</defs>
</svg>
