<svg width="22" height="22" viewBox="0 0 22 22" fill="none" xmlns="http://www.w3.org/2000/svg">
<path d="M21.4064 9.56893L21.4049 9.56742L12.4307 0.593527C12.0481 0.210762 11.5395 0 10.9986 0C10.4576 0 9.94906 0.210633 9.56638 0.593355L0.59678 9.5627C0.593772 9.5657 0.590764 9.56888 0.587757 9.57193C-0.197798 10.362 -0.196423 11.6438 0.591624 12.4318C0.951616 12.7921 1.42715 13.0007 1.93556 13.0225C1.95618 13.0245 1.97702 13.0255 1.99799 13.0255H2.35566V19.6298C2.35566 20.9367 3.41897 22 4.72616 22H8.23714C8.59301 22 8.88167 21.7115 8.88167 21.3555V16.1777C8.88167 15.5814 9.36679 15.0963 9.96315 15.0963H12.034C12.6304 15.0963 13.1155 15.5814 13.1155 16.1777V21.3555C13.1155 21.7115 13.404 22 13.76 22H17.271C18.5782 22 19.6415 20.9367 19.6415 19.6298V13.0255H19.9732C20.514 13.0255 21.0226 12.8149 21.4054 12.4322C22.1943 11.6429 22.1946 10.3588 21.4064 9.56893Z" fill="#795ADE"/>
</svg>
