<svg width="18" height="18" viewBox="0 0 18 18" fill="none" xmlns="http://www.w3.org/2000/svg">
<path d="M14.9309 4.51855H14.536V7.58773C14.536 9.86164 12.6861 11.7116 10.4122 11.7116H4.51867V12.1065C4.51867 13.7989 5.89553 15.1756 7.58784 15.1756H13.8926L17.1351 17.8777C17.2299 17.9567 17.3494 17.9999 17.4728 17.9999C17.7627 17.9999 18 17.7647 18 17.4725V7.58773C18 5.89285 16.6288 4.51855 14.9309 4.51855Z" fill="#795ADE"/>
<path d="M13.4813 7.58784V3.06918C13.4813 1.37123 12.1072 0 10.4122 0H3.06918C1.37123 0 0 1.37412 0 3.06914V12.954C0 13.246 0.237305 13.4814 0.527203 13.4814C0.648316 13.4814 0.768375 13.4396 0.864914 13.359L4.10738 10.6571H10.4122C12.1045 10.6571 13.4813 9.28034 13.4813 7.58788L13.4813 7.58784ZM6.74065 8.39767C6.44955 8.39767 6.2133 8.16145 6.2133 7.87032C6.2133 7.5792 6.44955 7.34298 6.74065 7.34298C7.03167 7.34298 7.26799 7.5792 7.26799 7.87032C7.26799 8.16145 7.03167 8.39767 6.74065 8.39767ZM7.26799 6.0654V6.17583C7.26799 6.46696 7.03181 6.70317 6.74065 6.70317C6.44938 6.70317 6.2133 6.46696 6.2133 6.17583V5.61101C6.2133 5.3197 6.44938 5.08366 6.74065 5.08366C7.22844 5.08366 7.62532 4.68664 7.62532 4.19885C7.62532 3.71088 7.22844 3.31404 6.74065 3.31404C6.50391 3.31404 6.28186 3.40604 6.11487 3.57304C5.94788 3.74003 5.85584 3.96207 5.85584 4.19815C5.85584 4.48942 5.6198 4.72591 5.32849 4.72591C5.03719 4.72591 4.80115 4.48998 4.80115 4.19885V4.19815C4.80115 3.68044 5.00291 3.19345 5.36903 2.82734C5.73528 2.46108 6.22209 2.25935 6.73998 2.25935C7.81003 2.25935 8.68001 3.12947 8.68001 4.19885C8.68001 5.08556 8.08196 5.83523 7.26799 6.0654Z" fill="#795ADE"/>
</svg>
