<svg width="22" height="19" viewBox="0 0 22 19" fill="none" xmlns="http://www.w3.org/2000/svg">
<path d="M19.5 5.49951H10.5C9.8372 5.5003 9.20177 5.76395 8.7331 6.23262C8.26443 6.70129 8.00079 7.33671 7.99999 7.99951V13.9995C8.00079 14.6623 8.26443 15.2977 8.7331 15.7664C9.20177 16.2351 9.8372 16.4987 10.5 16.4995H15.543L17.7195 18.6765C17.8244 18.7815 17.958 18.853 18.1036 18.8819C18.2491 18.9109 18.4 18.896 18.537 18.8392C18.6741 18.7824 18.7913 18.6863 18.8737 18.5629C18.9561 18.4395 19.0001 18.2944 19 18.146V16.4995H19.5C20.1628 16.4987 20.7982 16.2351 21.2669 15.7664C21.7355 15.2977 21.9992 14.6623 22 13.9995V7.99951C21.9992 7.33671 21.7355 6.70129 21.2669 6.23262C20.7982 5.76395 20.1628 5.5003 19.5 5.49951ZM17.5 10.2495H17.2205C17.1049 11.2819 16.6347 12.2422 15.89 12.9665C16.3197 13.1514 16.7822 13.2477 17.25 13.2495C17.3845 13.2488 17.514 13.3007 17.6107 13.3941C17.7075 13.4875 17.7639 13.6151 17.768 13.7495C17.77 13.8142 17.759 13.8787 17.7357 13.9391C17.7124 13.9996 17.6772 14.0547 17.6322 14.1013C17.5873 14.1479 17.5334 14.185 17.4739 14.2105C17.4143 14.2359 17.3503 14.2492 17.2855 14.2495C16.4862 14.2473 15.7015 14.0352 15.01 13.6345C14.3248 14.0369 13.5446 14.2492 12.75 14.2495C12.6155 14.2502 12.486 14.1983 12.3892 14.1049C12.2925 14.0115 12.236 13.884 12.232 13.7495C12.23 13.6848 12.241 13.6203 12.2643 13.5599C12.2876 13.4995 12.3228 13.4443 12.3678 13.3977C12.4127 13.3511 12.4666 13.314 12.5261 13.2885C12.5857 13.2631 12.6497 13.2498 12.7145 13.2495C13.1976 13.2501 13.6758 13.1524 14.12 12.9625C13.7323 12.5938 13.4147 12.158 13.1825 11.676C13.1519 11.6164 13.1336 11.5513 13.1286 11.4845C13.1237 11.4177 13.1322 11.3506 13.1537 11.2872C13.1752 11.2237 13.2092 11.1653 13.2538 11.1152C13.2983 11.0652 13.3524 11.0246 13.4129 10.9959C13.4734 10.9672 13.5391 10.9509 13.606 10.9481C13.6729 10.9452 13.7397 10.9559 13.8025 10.9793C13.8652 11.0028 13.9226 11.0386 13.9712 11.0847C14.0198 11.1308 14.0587 11.1861 14.0855 11.2475C14.3012 11.7005 14.6121 12.1016 14.997 12.4235C15.6556 11.8732 16.0876 11.099 16.21 10.2495H12.5C12.3674 10.2495 12.2402 10.1968 12.1464 10.1031C12.0527 10.0093 12 9.88212 12 9.74951C12 9.6169 12.0527 9.48972 12.1464 9.39595C12.2402 9.30219 12.3674 9.24951 12.5 9.24951H14.5V8.24951C14.5 8.1169 14.5527 7.98972 14.6464 7.89595C14.7402 7.80219 14.8674 7.74951 15 7.74951C15.1326 7.74951 15.2598 7.80219 15.3535 7.89595C15.4473 7.98972 15.5 8.1169 15.5 8.24951V9.24951H17.5C17.6326 9.24951 17.7598 9.30219 17.8535 9.39595C17.9473 9.48972 18 9.6169 18 9.74951C18 9.88212 17.9473 10.0093 17.8535 10.1031C17.7598 10.1968 17.6326 10.2495 17.5 10.2495ZM6.99999 4.20801L6.18549 5.99951H7.63199C7.66799 5.94951 7.70649 5.89951 7.74549 5.84951L6.99999 4.20801Z" fill="#795ADE"/>
<path d="M11.5 0H2.5C1.8372 0.000793929 1.20178 0.264441 0.73311 0.73311C0.264441 1.20178 0.000793929 1.8372 0 2.5V8.5C0.000793929 9.1628 0.264441 9.79822 0.73311 10.2669C1.20178 10.7356 1.8372 10.9992 2.5 11H3V12.6465C2.99993 12.7949 3.04388 12.94 3.12629 13.0634C3.2087 13.1868 3.32585 13.2829 3.46294 13.3397C3.60003 13.3965 3.75088 13.4114 3.89641 13.3824C4.04194 13.3534 4.17561 13.282 4.2805 13.177L6.457 11H7V8C7.00102 7.66114 7.05155 7.32425 7.15 7H5.731L4.955 8.707C4.89823 8.82469 4.79765 8.91548 4.67479 8.95994C4.55192 9.00441 4.41653 8.99901 4.2976 8.9449C4.17866 8.89079 4.08563 8.79227 4.03842 8.67043C3.99121 8.5486 3.99358 8.41312 4.045 8.293L6.545 2.793C6.58477 2.70571 6.64882 2.6317 6.72949 2.5798C6.81017 2.5279 6.90407 2.5003 7 2.5003C7.09593 2.5003 7.18983 2.5279 7.27051 2.5798C7.35118 2.6317 7.41523 2.70571 7.455 2.793L8.5135 5.1215C9.09664 4.71629 9.7899 4.49939 10.5 4.5H14V2.5C13.9992 1.8372 13.7356 1.20178 13.2669 0.73311C12.7982 0.264441 12.1628 0.000793929 11.5 0Z" fill="#795ADE"/>
</svg>
