<svg width="23" height="23" viewBox="0 0 23 23" fill="none" xmlns="http://www.w3.org/2000/svg">
<path d="M15.8685 13.0492C15.6471 13.031 15.4277 13.1013 15.2581 13.2447C15.0886 13.3881 14.9828 13.5929 14.964 13.8142C14.8899 14.689 14.7981 15.45 14.7178 15.8499V15.8547C14.4807 17.0774 13.3225 18.2859 12.1348 18.5516C12.0319 18.5728 11.9286 18.5931 11.8258 18.6125C11.9141 17.4768 11.9798 16.0246 11.971 14.9048C11.9842 13.194 11.8205 10.5598 11.6753 9.51153C11.4144 7.58134 10.2275 5.44061 8.91439 4.53091L8.90644 4.52561C7.99344 3.90882 7.01496 3.395 5.98887 2.99356C5.80584 2.92264 5.62502 2.85643 5.44641 2.79493C6.42046 2.64433 7.40484 2.57054 8.39046 2.57424C9.73228 2.57424 10.9571 2.6965 12.1348 2.94103C13.3225 3.20586 14.4807 4.41526 14.7178 5.63791V5.64276C14.7976 6.04001 14.8895 6.80096 14.9636 7.67315C14.9825 7.89481 15.0886 8.0999 15.2586 8.24331C15.4287 8.38672 15.6488 8.4567 15.8704 8.43785C16.0921 8.419 16.2972 8.31287 16.4406 8.14281C16.584 7.97275 16.654 7.75268 16.6351 7.53102C16.5548 6.58689 16.4559 5.77959 16.3632 5.31525C15.9973 3.4345 14.3329 1.70912 12.4914 1.30127L12.4808 1.29907C11.1867 1.0307 9.84925 0.899171 8.38737 0.896523C6.9255 0.893874 5.59339 1.02894 4.29924 1.29951L4.28821 1.30172C3.46634 1.48401 2.68023 1.92893 2.02874 2.5323C1.85267 2.66507 1.69877 2.82493 1.57279 3.00591C0.997221 3.67771 0.579227 4.48147 0.416796 5.31525C0.213316 6.3353 -0.0166467 8.98054 0.00100882 10.7461C-0.0087017 11.6933 0.0526512 12.8939 0.143577 13.9607C0.19213 14.6449 0.247303 15.2407 0.30027 15.623C0.56113 17.5532 1.74802 19.6939 3.06159 20.6036L3.06909 20.6089C3.98231 21.2256 4.96093 21.7394 5.98711 22.1409C7.02613 22.5444 7.97953 22.7889 8.90247 22.8887H8.91042C10.1507 22.9994 11.278 21.9229 11.6192 20.3489C11.9079 20.303 12.194 20.2508 12.4777 20.1922L12.4883 20.19C14.3302 19.7822 15.9942 18.0568 16.3602 16.176C16.4528 15.7108 16.5522 14.9018 16.6325 13.9554C16.6512 13.734 16.5812 13.5141 16.438 13.3442C16.2947 13.1743 16.0899 13.0682 15.8685 13.0492Z" fill="#FF3B30"/>
<path d="M22.604 10.745C22.604 10.7172 22.604 10.6894 22.5996 10.6616C22.5998 10.6598 22.5998 10.658 22.5996 10.6563C22.597 10.6302 22.593 10.6043 22.5877 10.5786V10.5729C22.5546 10.4135 22.4756 10.2672 22.3604 10.1522L19.359 7.14813C19.2017 6.9908 18.9883 6.90239 18.7659 6.90234C18.5434 6.9023 18.3301 6.99063 18.1727 7.14791C18.0154 7.30518 17.927 7.51852 17.9269 7.74098C17.9269 7.96344 18.0152 8.17681 18.1725 8.33414L19.7469 9.90813H13.9573C13.7348 9.90813 13.5215 9.99648 13.3642 10.1538C13.207 10.311 13.1186 10.5243 13.1186 10.7468C13.1186 10.9692 13.207 11.1825 13.3642 11.3398C13.5215 11.497 13.7348 11.5854 13.9573 11.5854H19.7394L18.1663 13.1585C18.0096 13.3159 17.9217 13.529 17.9219 13.7511C17.9221 13.9733 18.0105 14.1862 18.1676 14.3433C18.3246 14.5003 18.5376 14.5887 18.7597 14.5889C18.9818 14.5891 19.1949 14.5013 19.3523 14.3445L22.3401 11.3568C22.4484 11.2553 22.5277 11.1267 22.5696 10.9842C22.5772 10.9588 22.5834 10.9331 22.5881 10.907C22.5884 10.9033 22.5884 10.8996 22.5881 10.896C22.5921 10.8734 22.5961 10.8518 22.5983 10.828C22.6005 10.8041 22.5983 10.7936 22.5983 10.7768V10.7476L22.604 10.745Z" fill="#FF3B30"/>
</svg>
