<svg width="19" height="22" viewBox="0 0 19 22" fill="none" xmlns="http://www.w3.org/2000/svg">
<path d="M9.0385 10.5974C10.4944 10.5974 11.755 10.0752 12.7851 9.04498C13.8152 8.01494 14.3374 6.75459 14.3374 5.29856C14.3374 3.84297 13.8152 2.58249 12.785 1.55206C11.7547 0.522152 10.4942 0 9.0385 0C7.58242 0 6.32203 0.522152 5.29199 1.55223C4.26195 2.58232 3.73959 3.84284 3.73959 5.29856C3.73959 6.75459 4.26191 8.01511 5.29217 9.04519C6.32242 10.0751 7.58294 10.5974 9.0385 10.5974ZM18.3101 16.9168C18.2804 16.4881 18.2203 16.0205 18.1318 15.5267C18.0425 15.0292 17.9276 14.5589 17.7899 14.129C17.6478 13.6848 17.4544 13.246 17.2154 12.8256C16.9673 12.3892 16.676 12.0092 16.349 11.6965C16.0071 11.3694 15.5885 11.1063 15.1044 10.9144C14.622 10.7237 14.0874 10.627 13.5156 10.627C13.291 10.627 13.0738 10.7191 12.6544 10.9922C12.3562 11.1864 12.0572 11.3792 11.7572 11.5706C11.469 11.7542 11.0786 11.9263 10.5964 12.082C10.1259 12.2343 9.64826 12.3115 9.17677 12.3115C8.70532 12.3115 8.22777 12.2343 7.75679 12.082C7.27511 11.9264 6.8847 11.7544 6.59681 11.5707C6.26295 11.3574 5.96088 11.1627 5.69886 10.992C5.27992 10.7189 5.06254 10.6268 4.83799 10.6268C4.26595 10.6268 3.73155 10.7236 3.24932 10.9147C2.76558 11.1062 2.34681 11.3692 2.00457 11.6966C1.67779 12.0095 1.38625 12.3893 1.1385 12.8256C0.899677 13.246 0.706319 13.6846 0.563964 14.1292C0.426465 14.5591 0.311525 15.0292 0.222237 15.5267C0.133765 16.0198 0.0736948 16.4876 0.0439607 16.9173C0.0143822 17.3497 -0.000278785 17.783 4.01385e-06 18.2164C4.01385e-06 19.3648 0.365064 20.2945 1.08496 20.9801C1.79595 21.6568 2.73671 22 3.88074 22H14.4738C15.6179 22 16.5583 21.6569 17.2694 20.9802C17.9895 20.295 18.3546 19.3652 18.3546 18.2162C18.3544 17.773 18.3395 17.3357 18.3101 16.9168Z" fill="#795ADE"/>
</svg>
