<svg width="14" height="13" viewBox="0 0 14 13" fill="none" xmlns="http://www.w3.org/2000/svg">
<path d="M13.5301 4.91194C13.4866 4.77774 13.4047 4.65928 13.2945 4.57125C13.1842 4.48322 13.0506 4.42951 12.9101 4.41679L8.99408 4.06127L7.44646 0.437975C7.33219 0.171772 7.07221 0 6.78282 0C6.49344 0 6.23336 0.171772 6.11982 0.437975L4.57221 4.06127L0.655607 4.41679C0.368473 4.44328 0.125348 4.63776 0.0355273 4.91194C-0.00824002 5.04625 -0.0116445 5.19045 0.0257355 5.32668C0.0631156 5.46291 0.139638 5.58519 0.245824 5.67835L3.20601 8.27398L2.33321 12.1182C2.26936 12.4008 2.37905 12.6931 2.61359 12.8626C2.73643 12.952 2.88447 13.0001 3.03638 13C3.1666 13 3.29438 12.9647 3.40608 12.8977L6.78282 10.8787L10.159 12.8977C10.2801 12.9702 10.4198 13.0055 10.5608 12.9993C10.7018 12.993 10.8378 12.9455 10.9521 12.8626C11.1866 12.6931 11.2963 12.4008 11.2325 12.1182L10.3596 8.27401L13.3198 5.67838C13.426 5.58522 13.5026 5.46295 13.5399 5.32672C13.5773 5.19048 13.5739 5.04628 13.5301 4.91196V4.91194Z" fill="#FF9500"/>
</svg>
