<svg width="29" height="26" viewBox="0 0 29 26" fill="none" xmlns="http://www.w3.org/2000/svg">
<path d="M26.554 13.7793C26.2339 13.7793 25.9268 13.8915 25.7005 14.0912C25.4741 14.2909 25.347 14.5618 25.347 14.8442V19.3309C25.346 20.1178 24.9913 20.8722 24.3606 21.4286C23.73 21.985 22.8749 22.298 21.9831 22.2989H6.98493C6.09306 22.298 5.23799 21.985 4.60735 21.4286C3.9767 20.8722 3.62198 20.1178 3.62103 19.3309V14.8442C3.62103 14.5618 3.49386 14.2909 3.2675 14.0912C3.04115 13.8915 2.73414 13.7793 2.41403 13.7793C2.09391 13.7793 1.78691 13.8915 1.56055 14.0912C1.3342 14.2909 1.20703 14.5618 1.20703 14.8442V19.3309C1.20863 20.6825 1.81788 21.9783 2.9011 22.9341C3.98432 23.8898 5.45302 24.4273 6.98493 24.4287H21.9831C23.515 24.4273 24.9837 23.8898 26.0669 22.9341C27.1501 21.9783 27.7594 20.6825 27.761 19.3309V14.8442C27.761 14.5618 27.6338 14.2909 27.4074 14.0912C27.1811 13.8915 26.8741 13.7793 26.554 13.7793Z" fill="#A7A7A7"/>
<path d="M8.09532 9.2073L13.277 4.63549V18.0389C13.277 18.3213 13.4041 18.5922 13.6305 18.7919C13.8568 18.9916 14.1638 19.1038 14.484 19.1038C14.8041 19.1038 15.1111 18.9916 15.3374 18.7919C15.5638 18.5922 15.6909 18.3213 15.6909 18.0389V4.63549L20.8726 9.2073C21.1002 9.40129 21.4051 9.50863 21.7216 9.5062C22.0381 9.50378 22.3408 9.39178 22.5646 9.19433C22.7884 8.99688 22.9153 8.72978 22.9181 8.45055C22.9208 8.17133 22.7991 7.90232 22.5793 7.70147L15.3373 1.3118C15.111 1.11216 14.804 1 14.484 1C14.1639 1 13.857 1.11216 13.6306 1.3118L6.38862 7.70147C6.16876 7.90232 6.0471 8.17133 6.04985 8.45055C6.0526 8.72978 6.17954 8.99688 6.40333 9.19433C6.62711 9.39178 6.92984 9.50378 7.24631 9.5062C7.56278 9.50863 7.86767 9.40129 8.09532 9.2073Z" fill="#A7A7A7"/>
</svg>
