<svg width="22" height="20" viewBox="0 0 22 20" fill="none" xmlns="http://www.w3.org/2000/svg">
<path d="M10.83 6.28383L14 9.42513V9.26608C14 8.47514 13.6839 7.71659 13.1213 7.15731C12.5587 6.59803 11.7956 6.28383 11 6.28383H10.83ZM6.53 7.0791L8.08 8.61993C8.03 8.82868 8 9.03744 8 9.26608C8 10.057 8.31607 10.8156 8.87868 11.3748C9.44129 11.9341 10.2044 12.2483 11 12.2483C11.22 12.2483 11.44 12.2185 11.65 12.1688L13.2 13.7096C12.53 14.0377 11.79 14.2365 11 14.2365C9.67392 14.2365 8.40215 13.7128 7.46447 12.7807C6.52678 11.8486 6 10.5843 6 9.26608C6 8.48076 6.2 7.74513 6.53 7.0791ZM1 1.58182L3.28 3.84833L3.73 4.29567C2.08 5.58797 0.78 7.27792 0 9.26608C1.73 13.6301 6 16.7217 11 16.7217C12.55 16.7217 14.03 16.4235 15.38 15.8867L15.81 16.3042L18.73 19.2069L20 17.9444L2.27 0.319336M11 4.29567C12.3261 4.29567 13.5979 4.81933 14.5355 5.75147C15.4732 6.6836 16 7.94785 16 9.26608C16 9.90229 15.87 10.5186 15.64 11.0753L18.57 13.988C20.07 12.7454 21.27 11.1151 22 9.26608C20.27 4.90206 16 1.81046 11 1.81046C9.6 1.81046 8.26 2.05898 7 2.50632L9.17 4.6436C9.74 4.4249 10.35 4.29567 11 4.29567Z" fill="#A1A3A6"/>
</svg>
