<svg width="512" height="512" viewBox="0 0 512 512" fill="none" xmlns="http://www.w3.org/2000/svg">
<path d="M97.8205 319.563C96.7846 316.47 95.8376 313.3 95.0058 310.141C94.6567 308.82 93.7972 307.691 92.616 307.003C91.4349 306.315 90.0289 306.124 88.707 306.472C87.3852 306.82 86.2557 307.679 85.5668 308.859C84.8779 310.04 84.686 311.446 85.0332 312.768C85.9225 316.144 86.9348 319.531 88.0422 322.837C88.2565 323.48 88.5955 324.075 89.0398 324.586C89.484 325.098 90.0247 325.517 90.6311 325.82C91.2374 326.122 91.8975 326.303 92.5735 326.35C93.2495 326.397 93.9283 326.311 94.5708 326.096C95.2134 325.88 95.8073 325.541 96.3185 325.096C96.8297 324.651 97.2481 324.11 97.5499 323.503C97.8518 322.896 98.031 322.236 98.0774 321.56C98.1239 320.884 98.0366 320.205 97.8205 319.563ZM105.275 337.747C104.978 337.139 104.563 336.595 104.056 336.147C103.548 335.699 102.957 335.356 102.316 335.136C101.676 334.917 100.998 334.825 100.323 334.867C99.6467 334.91 98.9858 335.085 98.3776 335.382C97.7694 335.68 97.2258 336.094 96.7778 336.602C96.3298 337.11 95.9862 337.701 95.7666 338.341C95.547 338.982 95.4557 339.659 95.4979 340.335C95.5401 341.011 95.7151 341.672 96.0127 342.28C97.544 345.409 99.1991 348.528 100.932 351.549C101.613 352.735 102.737 353.601 104.056 353.958C105.376 354.316 106.783 354.134 107.969 353.454C109.155 352.774 110.022 351.65 110.38 350.331C110.738 349.011 110.557 347.604 109.877 346.418C108.256 343.592 106.708 340.675 105.275 337.747ZM86.7804 296.614C87.4521 296.528 88.1004 296.311 88.6882 295.975C89.276 295.639 89.7919 295.191 90.2064 294.655C90.6209 294.12 90.9258 293.508 91.1038 292.854C91.2818 292.201 91.3293 291.519 91.2437 290.847L91.2186 290.65C90.8128 287.465 90.5045 284.234 90.302 281.049C90.2154 279.684 89.5902 278.409 88.5639 277.506C87.5376 276.602 86.1944 276.143 84.8296 276.229C83.4649 276.316 82.1904 276.941 81.2866 277.968C80.3828 278.994 79.9238 280.337 80.0104 281.702C80.2265 285.104 80.5555 288.553 80.9887 291.954L81.0139 292.151C81.0994 292.822 81.3164 293.471 81.6525 294.058C81.9886 294.646 82.4372 295.162 82.9727 295.577C83.5082 295.991 84.12 296.296 84.7734 296.474C85.4267 296.652 86.1087 296.7 86.7804 296.614ZM148.41 390.595C145.829 388.599 143.278 386.491 140.826 384.329C140.318 383.881 139.727 383.538 139.087 383.318C138.446 383.099 137.769 383.007 137.093 383.05C136.417 383.092 135.756 383.267 135.148 383.565C134.54 383.863 133.997 384.277 133.549 384.785C133.101 385.293 132.757 385.884 132.538 386.524C132.318 387.165 132.227 387.842 132.269 388.518C132.312 389.194 132.487 389.855 132.784 390.463C133.082 391.071 133.497 391.614 134.004 392.062C136.622 394.372 139.347 396.623 142.104 398.754C143.186 399.59 144.556 399.962 145.912 399.789C147.268 399.615 148.5 398.91 149.337 397.828C150.173 396.746 150.545 395.376 150.371 394.019C150.198 392.663 149.492 391.431 148.41 390.595ZM84.8437 266.187C85.5195 266.234 86.1977 266.146 86.8395 265.93C87.4814 265.713 88.0743 265.373 88.5843 264.927C89.0943 264.481 89.5114 263.939 89.8118 263.332C90.1121 262.725 90.2898 262.065 90.3346 261.389C90.5538 258.132 90.8844 254.84 91.3176 251.607C91.4991 250.252 91.1347 248.88 90.3045 247.793C89.4744 246.706 88.2465 245.994 86.8911 245.812C85.5356 245.631 84.1635 245.995 83.0768 246.825C81.99 247.655 81.2774 248.883 81.096 250.239C80.6334 253.695 80.2799 257.214 80.0455 260.697C80 261.372 80.088 262.05 80.3045 262.692C80.521 263.333 80.8618 263.926 81.3074 264.436C81.7529 264.946 82.2946 265.363 82.9013 265.663C83.5081 265.964 84.1681 266.142 84.8437 266.187ZM120.749 362.779C119.919 361.693 118.691 360.981 117.336 360.8C115.981 360.619 114.61 360.983 113.524 361.812C112.437 362.642 111.724 363.869 111.542 365.224C111.36 366.578 111.723 367.95 112.552 369.037C114.667 371.807 116.902 374.544 119.195 377.172C120.094 378.202 121.366 378.833 122.73 378.926C124.094 379.018 125.44 378.566 126.47 377.666C127.501 376.767 128.132 375.495 128.224 374.131C128.317 372.767 127.864 371.421 126.965 370.391C124.819 367.932 122.728 365.371 120.749 362.779ZM108.5 189.065C107.915 188.725 107.269 188.502 106.598 188.412C105.927 188.321 105.244 188.363 104.589 188.536C103.935 188.709 103.32 189.009 102.782 189.419C102.243 189.829 101.79 190.342 101.45 190.927C99.693 193.943 98.014 197.057 96.4587 200.181C96.1544 200.788 95.9729 201.448 95.9244 202.125C95.8759 202.802 95.9615 203.481 96.1762 204.125C96.3908 204.768 96.7304 205.363 97.1754 205.875C97.6205 206.388 98.1622 206.807 98.7696 207.109C99.3769 207.412 100.038 207.591 100.715 207.637C101.392 207.684 102.071 207.596 102.714 207.38C103.357 207.163 103.951 206.821 104.462 206.375C104.972 205.928 105.39 205.385 105.69 204.777C107.146 201.853 108.718 198.939 110.362 196.116C111.05 194.934 111.24 193.527 110.891 192.205C110.542 190.883 109.682 189.754 108.5 189.065ZM138.794 159.573C139.808 159.444 140.761 159.016 141.53 158.342C143.985 156.197 146.545 154.104 149.139 152.12C149.678 151.709 150.132 151.196 150.473 150.61C150.814 150.024 151.036 149.376 151.126 148.704C151.216 148.032 151.173 147.349 150.999 146.693C150.825 146.038 150.524 145.423 150.112 144.885C149.7 144.346 149.186 143.894 148.599 143.554C148.012 143.215 147.364 142.994 146.691 142.905C146.019 142.816 145.336 142.861 144.681 143.037C144.026 143.212 143.412 143.515 142.874 143.928C140.103 146.047 137.368 148.284 134.745 150.575C133.912 151.303 133.336 152.279 133.1 153.359C132.864 154.439 132.982 155.566 133.435 156.575C133.889 157.583 134.655 158.419 135.619 158.959C136.584 159.499 137.697 159.714 138.794 159.573ZM221.047 122.57L221.343 122.532C224.497 122.13 227.695 121.824 230.85 121.621C230.96 121.613 231.068 121.603 231.175 121.589C232.504 121.419 233.714 120.738 234.549 119.691C235.384 118.645 235.78 117.314 235.651 115.981C235.523 114.648 234.881 113.417 233.861 112.549C232.842 111.681 231.524 111.243 230.188 111.329C226.82 111.546 223.405 111.873 220.006 112.306L219.744 112.34C218.388 112.513 217.155 113.218 216.318 114.299C215.481 115.381 215.108 116.75 215.281 118.107C215.454 119.463 216.158 120.696 217.24 121.533C218.321 122.37 219.691 122.743 221.047 122.57ZM250.507 121.642C253.767 121.859 257.059 122.188 260.291 122.618C261.647 122.798 263.018 122.432 264.104 121.601C265.189 120.77 265.9 119.542 266.081 118.187C266.261 116.831 265.896 115.46 265.066 114.374C264.235 113.288 263.007 112.576 261.652 112.395C258.197 111.935 254.678 111.584 251.194 111.352C249.831 111.264 248.489 111.72 247.462 112.62C246.435 113.521 245.807 114.791 245.716 116.154C245.626 117.517 246.079 118.86 246.977 119.889C247.875 120.917 249.145 121.548 250.507 121.642ZM191.345 129.393C191.683 129.35 192.016 129.273 192.339 129.165C195.433 128.126 198.602 127.177 201.759 126.344C203.081 125.994 204.21 125.134 204.898 123.952C205.585 122.77 205.775 121.364 205.426 120.042C205.077 118.72 204.217 117.59 203.035 116.902C201.853 116.214 200.447 116.024 199.125 116.373C195.751 117.264 192.364 118.279 189.058 119.389C187.845 119.796 186.827 120.639 186.202 121.755C185.576 122.871 185.387 124.179 185.672 125.426C185.957 126.673 186.696 127.77 187.744 128.503C188.793 129.236 190.076 129.553 191.345 129.393ZM163.577 141.884C164.252 141.798 164.903 141.579 165.492 141.239C168.321 139.614 171.237 138.064 174.159 136.632C174.767 136.334 175.311 135.919 175.759 135.411C176.207 134.903 176.55 134.312 176.77 133.672C176.989 133.031 177.08 132.353 177.038 131.677C176.995 131.002 176.82 130.341 176.522 129.733C176.224 129.124 175.809 128.581 175.301 128.133C174.793 127.685 174.202 127.342 173.561 127.123C172.92 126.904 172.242 126.813 171.567 126.855C170.891 126.898 170.23 127.074 169.622 127.372C166.497 128.903 163.379 130.559 160.355 132.296C159.322 132.89 158.526 133.824 158.103 134.939C157.68 136.054 157.656 137.281 158.036 138.411C158.416 139.541 159.176 140.505 160.186 141.138C161.196 141.771 162.395 142.035 163.577 141.884ZM173.378 406.26C170.456 404.803 167.542 403.229 164.719 401.583C163.537 400.894 162.131 400.703 160.808 401.051C159.486 401.4 158.356 402.259 157.667 403.441C156.978 404.622 156.787 406.029 157.136 407.351C157.484 408.674 158.343 409.804 159.525 410.492C162.541 412.251 165.654 413.931 168.776 415.489C170 416.099 171.416 416.198 172.713 415.765C174.01 415.331 175.081 414.399 175.692 413.176C176.302 411.952 176.401 410.536 175.967 409.239C175.533 407.942 174.602 406.87 173.378 406.26ZM88.8792 235.954C89.5327 236.132 90.2149 236.179 90.8867 236.093C91.5585 236.007 92.2068 235.79 92.7945 235.453C93.3822 235.116 93.8976 234.667 94.3115 234.131C94.7253 233.595 95.0293 232.982 95.2061 232.328C96.0616 229.176 97.0338 226.009 98.0958 222.917C98.318 222.276 98.4114 221.598 98.3709 220.921C98.3304 220.243 98.1567 219.581 97.8597 218.971C97.5627 218.361 97.1483 217.816 96.6402 217.367C96.1321 216.917 95.5403 216.572 94.8987 216.352C94.2572 216.132 93.5784 216.04 92.9014 216.082C92.2244 216.125 91.5624 216.301 90.9534 216.599C90.3443 216.898 89.8002 217.314 89.3522 217.823C88.9043 218.333 88.5612 218.925 88.3426 219.568C87.2073 222.872 86.1682 226.257 85.2533 229.627C85.076 230.281 85.0291 230.963 85.1153 231.634C85.2016 232.306 85.4193 232.954 85.756 233.542C86.0926 234.129 86.5418 234.644 87.0776 235.058C87.6135 235.472 88.2257 235.776 88.8792 235.954ZM114.108 180.732C115.19 181.567 116.56 181.938 117.917 181.764C119.273 181.589 120.505 180.883 121.34 179.8C123.336 177.214 125.442 174.662 127.601 172.213C128.049 171.705 128.393 171.114 128.613 170.473C128.833 169.832 128.924 169.154 128.882 168.478C128.84 167.801 128.665 167.14 128.367 166.532C128.069 165.923 127.654 165.379 127.145 164.931C126.637 164.483 126.045 164.14 125.404 163.921C124.763 163.702 124.085 163.611 123.409 163.654C122.732 163.697 122.071 163.873 121.463 164.172C120.855 164.47 120.312 164.886 119.864 165.395C117.559 168.01 115.309 170.737 113.177 173.499C112.341 174.582 111.97 175.952 112.144 177.308C112.319 178.665 113.025 179.896 114.108 180.732ZM395.83 277.318C395.154 277.272 394.476 277.359 393.834 277.575C393.192 277.791 392.599 278.131 392.089 278.576C391.578 279.02 391.16 279.562 390.859 280.168C390.558 280.774 390.379 281.434 390.333 282.11C390.109 285.364 389.775 288.655 389.337 291.891C389.246 292.562 389.288 293.245 389.46 293.9C389.633 294.555 389.933 295.17 390.344 295.709C390.754 296.248 391.267 296.701 391.852 297.042C392.438 297.383 393.085 297.605 393.756 297.696C394.428 297.787 395.11 297.744 395.765 297.571C396.42 297.398 397.035 297.097 397.574 296.686C398.112 296.275 398.565 295.762 398.905 295.176C399.246 294.59 399.467 293.943 399.557 293.272C400.025 289.812 400.382 286.294 400.621 282.815C400.667 282.139 400.58 281.461 400.364 280.819C400.149 280.177 399.809 279.584 399.364 279.074C398.919 278.564 398.378 278.146 397.771 277.845C397.165 277.543 396.505 277.364 395.83 277.318ZM381.821 336.392C380.597 335.782 379.181 335.682 377.884 336.115C376.587 336.547 375.515 337.478 374.904 338.701C373.445 341.622 371.869 344.535 370.222 347.357C369.537 348.538 369.349 349.942 369.698 351.261C370.047 352.58 370.905 353.707 372.083 354.395C373.262 355.083 374.665 355.276 375.985 354.931C377.306 354.587 378.436 353.733 379.127 352.557C380.888 349.542 382.571 346.43 384.13 343.31C384.741 342.086 384.841 340.67 384.408 339.373C383.975 338.076 383.044 337.003 381.821 336.392ZM399.69 251.341C399.247 247.863 399.639 250.946 399.639 250.946C399.463 249.592 398.757 248.363 397.677 247.528C396.596 246.694 395.228 246.322 393.874 246.495L393.861 246.497C392.505 246.673 391.274 247.381 390.44 248.464C389.606 249.547 389.236 250.918 389.412 252.274L389.461 252.657C389.875 255.904 390.188 259.199 390.39 262.45C390.432 263.126 390.607 263.787 390.905 264.395C391.202 265.004 391.617 265.547 392.124 265.996C392.632 266.444 393.223 266.787 393.864 267.007C394.504 267.227 395.182 267.318 395.858 267.276C395.971 267.269 396.082 267.258 396.193 267.244C397.492 267.077 398.678 266.423 399.512 265.414C400.346 264.404 400.764 263.116 400.683 261.809C400.466 258.337 400.133 254.819 399.69 251.341ZM391.755 307.546C391.102 307.368 390.42 307.32 389.748 307.405C389.076 307.49 388.428 307.707 387.84 308.043C387.252 308.379 386.736 308.828 386.321 309.363C385.906 309.899 385.601 310.51 385.423 311.164C384.563 314.319 383.586 317.484 382.521 320.571C382.298 321.211 382.204 321.889 382.244 322.567C382.283 323.244 382.456 323.906 382.752 324.517C383.049 325.127 383.462 325.673 383.97 326.123C384.477 326.573 385.068 326.918 385.71 327.14C386.351 327.361 387.029 327.453 387.706 327.412C388.383 327.37 389.046 327.196 389.655 326.898C390.265 326.6 390.809 326.185 391.258 325.676C391.707 325.168 392.051 324.575 392.27 323.934C393.408 320.635 394.452 317.251 395.372 313.878C395.551 313.224 395.598 312.542 395.513 311.871C395.428 311.199 395.211 310.551 394.875 309.963C394.539 309.375 394.091 308.859 393.555 308.444C393.02 308.03 392.408 307.725 391.755 307.546ZM355.715 80C335.49 80.0229 316.1 88.0673 301.798 102.369C287.497 116.67 279.453 136.06 279.43 156.285C279.43 156.333 279.431 156.381 279.432 156.429C266.937 152.197 253.833 150.047 240.641 150.063C173.755 150.063 119.339 204.477 119.339 271.359C119.339 338.246 173.755 392.662 240.641 392.662C307.524 392.662 361.937 338.246 361.937 271.359C361.953 258.167 359.802 245.062 355.57 232.568C355.619 232.568 355.667 232.57 355.715 232.57C365.733 232.57 375.653 230.597 384.908 226.763C394.163 222.93 402.573 217.31 409.657 210.227C416.74 203.143 422.359 194.733 426.193 185.478C430.027 176.223 432 166.303 432 156.285C432 146.267 430.027 136.347 426.193 127.092C422.359 117.837 416.74 109.427 409.657 102.343C402.573 95.2596 394.163 89.6405 384.908 85.8068C375.653 81.9732 365.733 80 355.715 80ZM240.641 382.349C179.441 382.349 129.651 332.559 129.651 271.359C129.651 210.162 179.441 160.376 240.641 160.376C254.193 160.355 267.632 162.836 280.283 167.695C282.746 183.793 290.284 198.684 301.8 210.2C313.315 221.716 328.207 229.254 344.305 231.716C349.164 244.367 351.645 257.807 351.624 271.359C351.624 332.559 301.838 382.349 240.641 382.349ZM355.715 222.258C342.667 222.258 329.912 218.388 319.063 211.139C308.213 203.89 299.758 193.586 294.764 181.532C289.771 169.477 288.465 156.212 291.01 143.414C293.556 130.617 299.839 118.862 309.065 109.635C318.292 100.409 330.047 94.1256 342.844 91.5801C355.642 89.0345 368.907 90.341 380.962 95.3343C393.017 100.328 403.32 108.784 410.569 119.633C417.818 130.482 421.688 143.237 421.688 156.285C421.668 173.776 414.711 190.545 402.343 202.913C389.975 215.281 373.206 222.238 355.715 222.258ZM378.746 142.002V124.316H384.934C385.611 124.316 386.281 124.183 386.907 123.924C387.533 123.665 388.101 123.285 388.58 122.806C389.059 122.327 389.438 121.759 389.697 121.133C389.957 120.508 390.09 119.837 390.09 119.16C390.09 118.483 389.957 117.812 389.697 117.187C389.438 116.561 389.059 115.993 388.58 115.514C388.101 115.035 387.533 114.655 386.907 114.396C386.281 114.137 385.611 114.004 384.934 114.004H326.496C325.129 114.004 323.817 114.547 322.85 115.514C321.883 116.481 321.34 117.792 321.34 119.16C321.34 120.528 321.883 121.839 322.85 122.806C323.817 123.773 325.129 124.316 326.496 124.316H332.684V142.002C332.687 144.114 333.245 146.188 334.301 148.017C335.357 149.845 336.875 151.365 338.703 152.423L345.397 156.285L338.703 160.147C336.875 161.205 335.357 162.724 334.301 164.553C333.245 166.382 332.687 168.456 332.684 170.568V188.254H326.496C325.129 188.254 323.817 188.797 322.85 189.764C321.883 190.731 321.34 192.043 321.34 193.41C321.34 194.778 321.883 196.089 322.85 197.056C323.817 198.023 325.129 198.566 326.496 198.566H384.934C386.301 198.566 387.613 198.023 388.58 197.056C389.547 196.089 390.09 194.778 390.09 193.41C390.09 192.043 389.547 190.731 388.58 189.764C387.613 188.797 386.301 188.254 384.934 188.254H378.746V170.568C378.743 168.456 378.186 166.382 377.129 164.553C376.073 162.725 374.555 161.205 372.727 160.147L366.033 156.285L372.727 152.423C374.555 151.365 376.073 149.846 377.129 148.017C378.185 146.188 378.743 144.114 378.746 142.002ZM367.574 169.08L367.575 169.08C367.836 169.231 368.052 169.448 368.203 169.709C368.354 169.971 368.433 170.267 368.434 170.568V188.254H342.996V170.568C342.997 170.266 343.076 169.97 343.227 169.709C343.378 169.448 343.595 169.231 343.856 169.08L355.715 162.238L367.574 169.08ZM368.434 142.002C368.433 142.304 368.354 142.6 368.203 142.861C368.052 143.123 367.835 143.34 367.574 143.491L355.715 150.332L343.856 143.491C343.595 143.34 343.378 143.123 343.227 142.861C343.076 142.6 342.997 142.304 342.996 142.002V124.316H368.434V142.002ZM278.149 220.239C278.149 219.562 278.016 218.891 277.757 218.265C277.498 217.64 277.118 217.071 276.639 216.593C276.16 216.114 275.592 215.734 274.966 215.475C274.341 215.216 273.67 215.082 272.993 215.082H208.285C206.917 215.082 205.606 215.626 204.639 216.593C203.672 217.56 203.129 218.871 203.129 220.239C203.129 221.606 203.672 222.918 204.639 223.885C205.606 224.852 206.917 225.395 208.285 225.395H220.23C227.302 225.405 234.141 227.919 239.535 232.493C244.929 237.066 248.528 243.403 249.694 250.378H208.285C206.917 250.378 205.606 250.921 204.639 251.888C203.672 252.855 203.129 254.167 203.129 255.534C203.129 256.902 203.672 258.213 204.639 259.18C205.606 260.147 206.917 260.69 208.285 260.69H249.599C248.324 267.551 244.69 273.75 239.327 278.215C233.964 282.679 227.209 285.129 220.231 285.138H208.82C208.154 285.138 207.495 285.267 206.879 285.518L206.537 285.657C205.758 285.973 205.068 286.475 204.527 287.12C203.987 287.764 203.612 288.531 203.436 289.353C203.26 290.175 203.287 291.028 203.516 291.837C203.745 292.646 204.168 293.387 204.749 293.995L251.603 343.049C252.071 343.54 252.631 343.933 253.25 344.207C253.87 344.481 254.537 344.63 255.215 344.646C255.892 344.662 256.566 344.544 257.198 344.299C257.829 344.054 258.407 343.688 258.897 343.22C259.387 342.752 259.78 342.192 260.053 341.572C260.326 340.952 260.475 340.284 260.49 339.607C260.505 338.929 260.387 338.256 260.142 337.624C259.896 336.993 259.529 336.416 259.06 335.926L220.4 295.45C230.084 295.396 239.423 291.851 246.704 285.466C253.985 279.081 258.719 270.284 260.037 260.69H272.993C274.361 260.69 275.672 260.147 276.639 259.18C277.606 258.213 278.149 256.902 278.149 255.534C278.149 254.167 277.606 252.855 276.639 251.888C275.672 250.921 274.361 250.378 272.993 250.378H260.105C258.924 240.749 254.295 231.874 247.074 225.395H272.993C273.67 225.395 274.341 225.262 274.966 225.002C275.592 224.743 276.16 224.364 276.639 223.885C277.118 223.406 277.498 222.838 277.757 222.212C278.016 221.586 278.149 220.916 278.149 220.239ZM315.022 402.164C312.19 403.785 309.272 405.331 306.348 406.759C305.739 407.056 305.195 407.47 304.746 407.977C304.298 408.485 303.953 409.076 303.733 409.716C303.513 410.357 303.421 411.034 303.462 411.71C303.504 412.386 303.678 413.048 303.976 413.656C304.273 414.265 304.687 414.809 305.195 415.258C305.702 415.706 306.293 416.05 306.934 416.27C307.575 416.49 308.252 416.582 308.928 416.54C309.604 416.498 310.266 416.323 310.874 416.026C314 414.499 317.119 412.846 320.147 411.112C320.734 410.776 321.25 410.327 321.665 409.791C322.079 409.255 322.384 408.643 322.562 407.99C322.74 407.336 322.787 406.654 322.701 405.982C322.615 405.31 322.398 404.662 322.061 404.074C321.725 403.486 321.275 402.971 320.739 402.556C320.204 402.142 319.591 401.838 318.938 401.66C318.284 401.483 317.602 401.436 316.93 401.522C316.258 401.609 315.61 401.827 315.022 402.164ZM259.435 420.762L259.337 420.775C256.126 421.184 252.862 421.495 249.638 421.698C248.962 421.741 248.301 421.916 247.693 422.214C247.085 422.512 246.542 422.927 246.094 423.435C245.646 423.943 245.303 424.534 245.084 425.175C244.865 425.816 244.774 426.493 244.817 427.169C244.859 427.845 245.035 428.505 245.333 429.113C245.631 429.721 246.046 430.265 246.554 430.712C247.062 431.16 247.653 431.503 248.293 431.722C248.934 431.942 249.612 432.032 250.287 431.99C253.73 431.773 257.213 431.441 260.64 431.004L260.738 430.992C261.41 430.906 262.058 430.689 262.646 430.353C263.234 430.017 263.75 429.569 264.164 429.033C264.579 428.498 264.884 427.886 265.062 427.232C265.24 426.579 265.287 425.897 265.202 425.225C265.116 424.554 264.899 423.905 264.563 423.318C264.227 422.73 263.778 422.214 263.243 421.8C262.707 421.385 262.096 421.08 261.442 420.902C260.789 420.724 260.107 420.677 259.435 420.762ZM366.456 362.738C365.375 361.901 364.005 361.528 362.649 361.701C361.292 361.874 360.06 362.578 359.223 363.659C357.225 366.241 355.115 368.791 352.952 371.24C352.504 371.747 352.16 372.338 351.94 372.978C351.72 373.619 351.628 374.296 351.67 374.972C351.712 375.648 351.887 376.309 352.184 376.917C352.481 377.526 352.895 378.069 353.403 378.518C353.91 378.966 354.501 379.31 355.141 379.53C355.782 379.75 356.459 379.841 357.135 379.8C357.811 379.758 358.472 379.583 359.08 379.286C359.689 378.989 360.232 378.574 360.681 378.067C362.991 375.453 365.244 372.728 367.378 369.972C367.792 369.437 368.097 368.825 368.275 368.171C368.453 367.518 368.501 366.836 368.415 366.164C368.33 365.492 368.113 364.844 367.777 364.256C367.441 363.668 366.992 363.152 366.456 362.738ZM288.158 414.204C285.07 415.236 281.9 416.181 278.735 417.013C277.469 417.346 276.377 418.147 275.681 419.255C274.984 420.364 274.735 421.695 274.984 422.98C275.232 424.265 275.961 425.408 277.02 426.176C278.08 426.944 279.393 427.28 280.691 427.116C280.916 427.087 281.138 427.044 281.357 426.987C284.738 426.098 288.126 425.087 291.427 423.984C292.07 423.769 292.663 423.43 293.174 422.986C293.686 422.542 294.104 422.002 294.406 421.396C294.709 420.79 294.889 420.13 294.936 419.455C294.984 418.779 294.897 418.101 294.683 417.459C294.468 416.817 294.129 416.223 293.685 415.712C293.241 415.201 292.7 414.782 292.095 414.48C291.489 414.178 290.829 413.998 290.154 413.95C289.478 413.903 288.8 413.989 288.158 414.204ZM229.98 421.652C226.728 421.431 223.436 421.098 220.198 420.663C219.527 420.573 218.845 420.616 218.19 420.79C217.536 420.963 216.922 421.264 216.383 421.675C215.845 422.085 215.393 422.598 215.053 423.184C214.713 423.769 214.491 424.416 214.401 425.087C214.311 425.758 214.354 426.44 214.527 427.095C214.701 427.749 215.002 428.363 215.412 428.901C215.823 429.44 216.336 429.892 216.921 430.232C217.507 430.572 218.153 430.793 218.825 430.884C222.286 431.349 225.805 431.705 229.282 431.941C229.957 431.987 230.635 431.899 231.277 431.683C231.919 431.467 232.511 431.126 233.022 430.681C233.532 430.236 233.949 429.694 234.25 429.088C234.551 428.481 234.729 427.821 234.775 427.146C234.821 426.47 234.734 425.792 234.517 425.151C234.301 424.509 233.961 423.916 233.516 423.406C233.07 422.896 232.529 422.478 231.922 422.177C231.316 421.876 230.656 421.698 229.98 421.652ZM339.004 385.091C336.545 387.235 333.982 389.325 331.388 391.302C330.3 392.132 329.587 393.359 329.404 394.714C329.222 396.07 329.585 397.442 330.414 398.53C331.243 399.617 332.471 400.331 333.826 400.513C335.182 400.696 336.554 400.333 337.641 399.503C340.413 397.389 343.151 395.156 345.78 392.865C346.291 392.42 346.709 391.879 347.01 391.273C347.311 390.667 347.49 390.007 347.537 389.331C347.583 388.656 347.496 387.978 347.28 387.336C347.064 386.694 346.724 386.101 346.279 385.59C345.835 385.08 345.293 384.662 344.687 384.361C344.081 384.059 343.421 383.88 342.745 383.834C342.07 383.788 341.392 383.875 340.75 384.09C340.108 384.306 339.515 384.646 339.004 385.091ZM200.922 416.762C197.767 415.903 194.601 414.929 191.514 413.866C190.873 413.646 190.196 413.553 189.52 413.594C188.844 413.635 188.183 413.809 187.574 414.106C186.965 414.403 186.421 414.816 185.972 415.324C185.523 415.831 185.178 416.421 184.958 417.062C184.737 417.702 184.645 418.38 184.686 419.056C184.728 419.732 184.902 420.393 185.199 421.002C185.496 421.61 185.91 422.155 186.418 422.603C186.925 423.052 187.516 423.396 188.156 423.616C191.457 424.753 194.841 425.795 198.215 426.713C198.868 426.891 199.55 426.938 200.222 426.852C200.894 426.767 201.542 426.549 202.13 426.213C202.717 425.877 203.233 425.428 203.648 424.892C204.062 424.357 204.367 423.745 204.544 423.091C204.722 422.438 204.77 421.756 204.684 421.084C204.598 420.413 204.381 419.764 204.044 419.177C203.708 418.589 203.259 418.073 202.723 417.659C202.188 417.245 201.576 416.94 200.922 416.762Z" fill="#FFB500"/>
<mask id="mask0_114_10" style="mask-type:alpha" maskUnits="userSpaceOnUse" x="0" y="0" width="512" height="512">
<circle cx="256" cy="256" r="256" fill="#D9D9D9"/>
</mask>
<g mask="url(#mask0_114_10)">
</g>
</svg>
